<?xml version="1.0" encoding="utf-8"?>
<!-- Generator: Adobe Illustrator 24.2.3, SVG Export Plug-In . SVG Version: 6.00 Build 0)  -->
<svg version="1.1" id="Layer_1" xmlns="http://www.w3.org/2000/svg" xmlns:xlink="http://www.w3.org/1999/xlink" x="0px" y="0px"
	 width="186.3px" height="325.6px" viewBox="0 0 186.3 325.6" enable-background="new 0 0 186.3 325.6" xml:space="preserve">
<path fill="#2D2A2B" d="M6.3,0C2.8,0,0,2.8,0,6.3v313c0,3.5,2.8,6.3,6.3,6.3H180c3.5,0,6.3-2.8,6.3-6.3V6.3c0-3.5-2.8-6.3-6.3-6.3
	H6.3z"/>
<path fill="#64373C" d="M166,297.1H20.3V53.8c0-14,11.3-25.3,25.3-25.3h95.2c14,0,25.3,11.3,25.3,25.3L166,297.1L166,297.1z
	 M21.4,296h143.5V53.8c0-13.3-10.9-24.2-24.2-24.2H45.6c-13.3,0-24.2,10.9-24.2,24.2C21.4,53.8,21.4,296,21.4,296z"/>
<path fill="#4675BA" d="M179.3,15.2c0,0.7-4.5,0.5-4.8,1.1c-0.3,0.6,3.1,3.5,2.6,4s-3.5-2.7-4.2-2.5c-0.6,0.2-0.4,4.6-1.1,4.6
	c-0.7,0-0.5-4.3-1.1-4.6s-3.7,2.9-4.2,2.5c-0.5-0.5,2.9-3.4,2.6-4c-0.3-0.6-4.8-0.4-4.8-1.1s4.5-0.5,4.8-1.1s-3.1-3.5-2.6-4
	s3.5,2.7,4.2,2.5c0.6-0.2,0.4-4.6,1.1-4.6c0.7,0,0.5,4.3,1.1,4.6c0.6,0.3,3.7-2.9,4.2-2.5c0.5,0.5-2.9,3.4-2.6,4
	C174.8,14.7,179.3,14.5,179.3,15.2"/>
<path fill="#F0533A" d="M169.7,12.4c-0.3,0.6-0.3,1.4-0.2,2.1c0,0.7,0.1,1.4,0.1,2.1c0,0.4,0,0.7,0.2,1.1c0.4,1.1,1.6,1.4,2.6,1.7
	c2.5,0.6,2.8-3.5,2.3-5.5C174.1,11.8,170.8,9.8,169.7,12.4"/>
<path fill="#4675BA" d="M172.5,18c-0.2,0.2-0.4,0.2-0.6,0.1c0.2-0.2,0.2-0.2-0.1-0.4c-0.1-0.1-0.1-0.1-0.2-0.2
	c0.1,0,0.2-0.1,0.3-0.2c0.2-0.3,0.2-0.3-0.1-0.3l-0.1-0.1l0,0c0.1,0,0.2-0.1,0.3-0.2c0-0.2,0-0.4,0-0.6c0,0-0.1,0-0.1-0.1
	c-0.1-0.1-0.2-0.2-0.2-0.3s0-0.2,0.2-0.3c0.1-0.1,0.1-0.2,0.1-0.3s0-0.2,0-0.2c0-0.2,0-0.3-0.2-0.4c0,0,0-0.1-0.1-0.1l0,0
	c0.2-0.1,0.3-0.2,0.3-0.3s-0.1-0.1-0.2-0.2c-0.2-0.2-0.2-0.3,0-0.4l0,0c0.2-0.3,0.2-0.3,0-0.5c0.2-0.2,0.4-0.2,0.6,0
	c-0.2,0.2-0.2,0.2,0,0.4s0.2,0.4,0,0.4c0,0,0,0-0.1,0c-0.1,0.1-0.2,0.2-0.2,0.2s0.1,0,0.2,0.1c0,0,0,0.1,0.1,0.1l0,0
	c-0.1,0-0.2,0.1-0.2,0.2c0,0.2,0,0.4,0,0.6c0,0,0.1,0,0.1,0.1c0.1,0.1,0.2,0.3,0.2,0.4c0,0.1,0,0.2-0.1,0.2
	c-0.2,0.1-0.2,0.3-0.1,0.4l0,0c0,0.2,0,0.3,0,0.4s0.1,0.1,0.3,0.3c-0.1,0-0.1,0-0.2,0c-0.2,0.1-0.2,0.2,0,0.3l0,0
	c0.1,0.2,0.2,0.3,0.2,0.4s-0.1,0.1-0.2,0.3C172.2,17.8,172.3,17.9,172.5,18"/>
<polygon fill="#F0533A" points="20.5,15.4 13.6,16 13,22.4 12.3,16 5.5,15.4 12.3,14.8 13,8.4 14,15.1 "/>
<polygon fill="#693D42" points="56.4,268.7 53.7,269 53.5,271.5 53.2,269 50.5,268.7 53.2,268.5 53.5,266 53.9,268.6 "/>
<polygon fill="#693D42" points="136.9,57.6 134.2,57.9 134,60.4 133.7,57.9 131,57.6 133.7,57.4 134,54.9 134.4,57.5 "/>
<polygon fill="#693D42" points="90,50.8 88.7,50.9 88.6,52.1 88.5,50.9 87.2,50.8 88.5,50.7 88.6,49.5 88.8,50.8 "/>
<polygon fill="#693D42" points="120.2,106.8 115.6,107.2 115.2,111.4 114.8,107.2 110.2,106.8 114.8,106.4 115.2,102.3 115.9,106.6 
	"/>
<polygon fill="#693D42" points="57.4,91.1 53.8,91.5 53.5,95.6 53.1,91.5 49.6,91.1 53.1,90.7 53.5,86.6 54,90.9 "/>
<polygon fill="#693D42" points="56.5,93.6 53.5,91.6 50.6,94.5 53,91.2 50.5,88.6 53.5,90.6 56.3,87.7 54,91.3 "/>
<polygon fill="#693D42" points="125.6,225.3 123.1,225.6 122.8,228.5 122.6,225.6 120,225.3 122.6,225 122.8,222.1 123.2,225.2 "/>
<polygon fill="#693D42" points="125,227.1 122.8,225.7 120.8,227.8 122.5,225.4 120.7,223.5 122.8,224.9 124.9,222.8 123.2,225.4 
	"/>
<polygon fill="#693D42" points="66.1,251.6 62.6,252 62.2,256.1 61.9,252 58.3,251.6 61.9,251.2 62.2,247.1 62.8,251.4 "/>
<polygon fill="#693D42" points="65.2,254.1 62.2,252.1 59.3,255.1 61.7,251.7 59.2,249.1 62.2,251.1 65.1,248.2 62.8,251.8 "/>
<path fill="#4675BA" d="M6.9,310c0,0.7,4.5,0.5,4.8,1.1c0.3,0.6-3.1,3.5-2.6,4s3.5-2.7,4.2-2.5c0.6,0.2,0.4,4.6,1.1,4.6
	c0.7,0,0.5-4.3,1.1-4.6c0.6-0.3,3.7,2.9,4.2,2.5c0.5-0.5-2.9-3.4-2.6-4s4.8-0.4,4.8-1.1s-4.5-0.5-4.8-1.1s3.1-3.5,2.6-4
	s-3.5,2.7-4.2,2.5c-0.6-0.2-0.4-4.6-1.1-4.6c-0.7,0-0.5,4.3-1.1,4.6c-0.6,0.3-3.7-2.9-4.2-2.5c-0.5,0.5,2.9,3.4,2.6,4
	C11.4,309.5,6.9,309.3,6.9,310"/>
<path fill="#F0533A" d="M16.5,307.2c0.3,0.6,0.3,1.4,0.2,2.1c0,0.7-0.1,1.4-0.1,2.1c0,0.4,0,0.7-0.2,1.1c-0.4,1.1-1.6,1.4-2.6,1.7
	c-2.5,0.6-2.8-3.5-2.3-5.5C12.1,306.5,15.3,304.6,16.5,307.2"/>
<path fill="#4675BA" d="M13.7,312.8c0.2,0.2,0.4,0.2,0.6,0.1c-0.2-0.2-0.2-0.2,0.1-0.4c0.1-0.1,0.1-0.1,0.2-0.2
	c-0.1,0-0.2-0.1-0.3-0.2c-0.2-0.3-0.2-0.3,0.1-0.3l0.1-0.1l0,0c-0.1,0-0.2-0.1-0.3-0.2c0-0.2,0-0.4,0-0.6c0,0,0.1,0,0.1-0.1
	c0.1-0.1,0.2-0.2,0.2-0.3c0-0.1,0-0.2-0.2-0.3c-0.1-0.1-0.1-0.2-0.1-0.3c0-0.1,0-0.2,0-0.2c0-0.2,0-0.3,0.2-0.4c0,0,0-0.1,0.1-0.1
	l0,0c-0.2-0.1-0.3-0.2-0.3-0.3c0-0.1,0.1-0.1,0.2-0.2c0.2-0.2,0.2-0.3,0-0.4l0,0c-0.2-0.3-0.2-0.3,0-0.5c-0.2-0.2-0.4-0.2-0.6,0
	c0.2,0.2,0.2,0.2,0,0.4c-0.2,0.2-0.2,0.4,0,0.4c0,0,0,0,0.1,0c0.1,0.1,0.2,0.2,0.2,0.2s-0.1,0-0.2,0.1c0,0,0,0.1-0.1,0.1l0,0
	c0.1,0,0.2,0.1,0.2,0.2c0,0.2,0,0.4,0,0.6c0,0-0.1,0-0.1,0.1c-0.1,0.1-0.2,0.3-0.2,0.4s0,0.2,0.1,0.2c0.2,0.1,0.2,0.3,0.1,0.4l0,0
	c0,0.2,0,0.3,0,0.4s-0.1,0.1-0.3,0.3c0.1,0,0.1,0,0.2,0c0.2,0.1,0.2,0.2,0,0.3l0,0c-0.1,0.2-0.2,0.3-0.2,0.4s0.1,0.1,0.2,0.3
	C14,312.6,13.8,312.7,13.7,312.8"/>
<polygon fill="#F0533A" points="165.3,309.3 172.1,309.9 172.7,316.3 173.4,309.9 180.2,309.3 173.4,308.7 172.7,302.3 171.7,309 
	"/>
<path fill="#4675BA" d="M176,293.1c0,0.8-0.7,1.4-1.5,1.4s-1.5-0.6-1.5-1.4s0.7-1.4,1.5-1.4S176,292.3,176,293.1"/>
<path fill="#4675BA" d="M176,287.7c0,0.8-0.7,1.4-1.5,1.4s-1.5-0.6-1.5-1.4s0.7-1.4,1.5-1.4C175.3,286.3,176,286.9,176,287.7"/>
<path fill="#4675BA" d="M13.6,36.7c0,0.8-0.7,1.4-1.5,1.4s-1.5-0.6-1.5-1.4c0-0.8,0.7-1.4,1.5-1.4C12.9,35.3,13.6,35.9,13.6,36.7"/>
<path fill="#4675BA" d="M13.6,31.4c0,0.8-0.7,1.4-1.5,1.4s-1.5-0.6-1.5-1.4c0-0.8,0.7-1.4,1.5-1.4C12.9,29.9,13.6,30.6,13.6,31.4"/>
<g>
	<g>
		<g>
			<path fill="#693D42" d="M131.1,135.3c0,0-1.9,1.3-4.9,3.6C129.3,136.7,131.1,135.4,131.1,135.3z"/>
			<path fill="#693D42" d="M72.7,127.7c-1.8-3.2-3-5.2-3-5.2S70.8,124.6,72.7,127.7z"/>
			<path fill="#693D42" d="M78.3,125c-1.3-3.4-2.1-5.5-2.1-5.5C76.2,119.5,77,121.6,78.3,125z"/>
			<path fill="#693D42" d="M75.4,126.2c-1.6-3.3-2.5-5.4-2.6-5.3C72.8,120.9,73.8,122.9,75.4,126.2z"/>
			<path fill="#693D42" d="M63.7,126.6c0,0,1.4,1.8,3.8,4.7C65.2,128.4,63.8,126.6,63.7,126.6z"/>
			<path fill="#693D42" d="M66.6,124.5c0,0,1.3,1.9,3.4,5C68,126.3,66.7,124.4,66.6,124.5z"/>
			<path fill="#693D42" d="M61,128.9c0,0,1.6,1.7,4.2,4.4C62.6,130.6,61,128.9,61,128.9z"/>
			<path fill="#693D42" d="M81.3,123.9c-1-3.5-1.7-5.6-1.7-5.6S80.3,120.5,81.3,123.9z"/>
			<path fill="#693D42" d="M87.5,122.6c-0.5-3.6-0.8-5.8-0.8-5.8C86.7,116.8,87,119,87.5,122.6z"/>
			<path fill="#693D42" d="M90.7,122.4c-0.2-3.7-0.3-6-0.4-6C90.3,116.4,90.4,118.7,90.7,122.4z"/>
			<path fill="#693D42" d="M84.4,123.1c-0.7-3.5-1.2-5.7-1.3-5.7C83.1,117.4,83.6,119.6,84.4,123.1z"/>
			<path fill="#693D42" d="M54.6,148.7c-3.4-1.3-5.5-2.1-5.5-2.1C49,146.7,51.1,147.4,54.6,148.7z"/>
			<path fill="#693D42" d="M53.6,151.7c-3.5-1-5.7-1.7-5.7-1.6C47.9,150.1,50,150.7,53.6,151.7z"/>
			<path fill="#693D42" d="M52.8,154.7c-3.6-0.8-5.8-1.2-5.8-1.2C47,153.6,49.2,154,52.8,154.7z"/>
			<path fill="#693D42" d="M93.9,116.4c0,0-0.1,2.3-0.1,6.1C93.9,118.7,94,116.4,93.9,116.4z"/>
			<path fill="#693D42" d="M46.4,157.1c0,0,2.3,0.3,6.1,0.8C48.7,157.3,46.4,157,46.4,157.1z"/>
			<path fill="#693D42" d="M46.1,160.6c0,0,2.4,0.2,6.3,0.3C48.5,160.7,46.1,160.6,46.1,160.6z"/>
			<path fill="#693D42" d="M60.9,137.9c-2.9-2.3-4.7-3.7-4.7-3.7S57.9,135.6,60.9,137.9z"/>
			<path fill="#693D42" d="M55.8,145.8c-3.3-1.6-5.3-2.5-5.4-2.5C50.4,143.3,52.5,144.3,55.8,145.8z"/>
			<path fill="#693D42" d="M62.9,135.5c-2.7-2.5-4.4-4.1-4.5-4.1S60.2,133,62.9,135.5z"/>
			<path fill="#693D42" d="M57.3,143c-3.2-1.8-5.2-2.9-5.2-2.9S54.1,141.2,57.3,143z"/>
			<path fill="#693D42" d="M59,140.4c-3-2.1-4.9-3.3-5-3.3C54,137.1,55.9,138.3,59,140.4z"/>
			<path fill="#693D42" d="M128.9,132.6c0,0-1.8,1.5-4.6,3.9C127.1,134.1,128.9,132.6,128.9,132.6z"/>
			<path fill="#693D42" d="M131,147c3.4-1.4,5.5-2.3,5.5-2.3C136.5,144.6,134.4,145.5,131,147z"/>
			<path fill="#693D42" d="M132.2,149.9c3.5-1.1,5.6-1.9,5.6-1.9S135.7,148.7,132.2,149.9z"/>
			<path fill="#693D42" d="M128,141.5c3.2-1.9,5.1-3.1,5.1-3.2C133.1,138.3,131.2,139.5,128,141.5z"/>
			<path fill="#693D42" d="M129.6,144.2c3.3-1.7,5.3-2.7,5.3-2.8C134.9,141.4,132.9,142.4,129.6,144.2z"/>
			<path fill="#693D42" d="M133.1,152.9c3.5-0.9,5.7-1.4,5.7-1.5C138.8,151.4,136.7,152,133.1,152.9z"/>
			<path fill="#693D42" d="M106.1,162.5c1.7-0.2,2.7-0.3,2.7-0.3s-1.3,0-3.6,0.1c10.8-1.2,22.2-2.5,28.9-3.2
				c-6.5,0.6-17.5,1.5-28.1,2.4c1.7-0.3,2.7-0.5,2.7-0.5s-1.3,0.1-3.5,0.3c10.7-2,21.9-4.1,28.5-5.4c-6.5,1.1-17.5,2.9-28,4.6
				c1.7-0.4,2.7-0.7,2.7-0.7s-1.2,0.2-3.2,0.5c10.4-2.8,21.4-5.8,27.8-7.5c-6.4,1.6-17.3,4.2-27.8,6.8c1.8-0.6,2.9-1,2.9-1
				s-1.1,0.2-3,0.7c10.1-3.6,20.7-7.3,27-9.5c-6.3,2.1-17.1,5.6-27.4,8.9c1.9-0.8,3-1.3,3-1.3s-1,0.3-2.7,0.9
				c9.7-4.3,19.9-8.8,25.9-11.4c-6.2,2.6-16.7,6.9-26.7,11c1.9-1,3-1.6,3-1.6s-1,0.4-2.6,1.1c9.3-5,19.1-10.2,24.9-13.3
				c-6,3-16.1,8.2-25.8,13c1.9-1.1,3-1.8,2.9-1.8c0,0-0.9,0.4-2.5,1.3c8.9-5.7,18.2-11.6,23.7-15.1c-5.7,3.5-15.4,9.3-24.6,14.9
				c1.8-1.3,2.8-2,2.8-2s-0.9,0.5-2.5,1.5c8.5-6.4,17.3-13,22.6-16.9c-5.4,3.9-14.6,10.4-23.3,16.6c1.6-1.3,2.5-2.1,2.5-2.2
				c0,0-0.9,0.6-2.5,1.8c8-7,16.3-14.3,21.3-18.7c-5.1,4.3-13.6,11.4-21.8,18.2c1.4-1.4,2.2-2.2,2.2-2.2s-0.9,0.7-2.5,2.1
				c7.5-7.6,15.3-15.6,19.9-20.4c-4.7,4.6-12.6,12.3-20.2,19.7c1.2-1.4,1.9-2.2,1.9-2.3c0,0-0.9,0.9-2.4,2.4
				c6.9-8.2,14.1-16.8,18.4-21.9c-4.3,4.9-11.6,13.2-18.6,21.1c1.1-1.4,1.7-2.3,1.7-2.3s-0.9,0.9-2.3,2.6
				c6.3-8.7,12.8-17.9,16.7-23.4c-3.9,5.2-10.5,14-16.9,22.4c0.9-1.5,1.5-2.4,1.5-2.4s-0.8,1-2,2.8c5.6-9.2,11.4-18.9,14.9-24.6
				c-3.5,5.5-9.5,14.8-15.2,23.7c0.8-1.6,1.3-2.5,1.3-2.5s-0.7,1-1.8,2.8c4.8-9.6,9.9-19.7,12.9-25.6c-3.1,5.8-8.3,15.6-13.4,25
				c0.7-1.7,1.2-2.7,1.1-2.7c0,0-0.6,1-1.5,2.8c4.1-9.9,8.3-20.3,10.8-26.4c-2.6,6.1-7.2,16.3-11.5,26.1c0.6-1.9,1-3,1-3
				s-0.5,1-1.2,2.7c3.3-10.1,6.7-20.7,8.7-26.9c-2.2,6.3-5.9,17-9.5,27.1c0.5-2.1,0.8-3.2,0.8-3.3c0,0-0.3,0.9-0.9,2.6
				c2.4-10.3,5-20.9,6.5-27.3c-1.7,6.5-4.6,17.4-7.4,27.9c0.4-2.2,0.6-3.5,0.6-3.5s-0.3,0.9-0.7,2.6c1.6-10.4,3.3-21.1,4.4-27.6
				c-1.2,6.6-3.2,17.7-5.2,28.3c0.2-2.2,0.3-3.5,0.3-3.5s-0.2,1-0.5,2.8c0.8-10.4,1.7-21.3,2.2-27.8c-0.7,6.6-1.8,17.6-2.9,28.1
				c0-2,0.1-3.2,0-3.2s-0.1,1.2-0.3,3.2c0-10.6,0.1-21.7,0.1-28.3c-0.2,6.6-0.5,17.4-0.8,27.9c-0.1-1.8-0.2-2.9-0.2-2.8
				c0,0-0.1,1.3-0.1,3.5c-0.8-10.7-1.6-22-2.1-28.7c0.3,6.5,0.8,17.4,1.3,27.9c-0.2-1.7-0.4-2.6-0.4-2.6s0,1.3,0.2,3.5
				c-1.6-10.7-3.3-21.9-4.3-28.5c0.8,6.5,2.2,17.4,3.5,27.8c-0.4-1.7-0.6-2.7-0.6-2.7s0.1,1.2,0.4,3.3c-2.4-10.5-5-21.5-6.5-28
				c1.3,6.4,3.6,17.3,5.7,27.7c-0.5-1.8-0.8-2.8-0.9-2.8c0,0,0.2,1.1,0.6,3.1c-3.2-10.2-6.6-20.9-8.6-27.2
				c1.8,6.3,4.9,17.1,7.9,27.4c-0.7-1.9-1.1-2.9-1.2-2.9c0,0,0.3,1,0.8,2.8c-4-9.9-8.1-20.1-10.6-26.2c2.4,6.2,6.3,16.8,10.1,26.8
				c-0.9-1.9-1.4-3-1.5-3c0,0,0.3,1,1,2.6c-4.7-9.5-9.6-19.3-12.5-25.2c2.8,6,7.6,16.3,12.1,26.1c-1.1-1.9-1.7-3-1.7-3
				s0.4,0.9,1.2,2.5c-5.4-9.1-11-18.5-14.3-24.1c3.3,5.8,8.8,15.6,14.1,25c-1.2-1.8-1.9-2.8-2-2.8c0,0,0.5,0.9,1.4,2.5
				c-6.1-8.6-12.4-17.6-16.2-23c3.7,5.5,10,14.9,15.9,23.8c-1.3-1.7-2.1-2.6-2.1-2.6s0.6,0.9,1.7,2.5c-6.7-8.2-13.8-16.7-18-21.8
				c4.1,5.2,11,14,17.6,22.4c-1.4-1.5-2.2-2.4-2.2-2.3c0,0,0.7,0.9,2,2.5c-7.4-7.7-15.1-15.7-19.7-20.5c4.5,4.9,12,13,19.1,20.8
				c-1.4-1.3-2.2-2.1-2.3-2c0,0,0.8,0.9,2.2,2.4c-8-7.1-16.4-14.6-21.3-19c4.8,4.5,12.9,12,20.6,19.3c-1.4-1.1-2.3-1.8-2.3-1.8
				s0.9,0.9,2.5,2.3c-8.6-6.5-17.5-13.4-22.9-17.5c5.1,4.1,13.7,11,22,17.6c-1.5-1-2.3-1.6-2.3-1.5c0,0,1,0.8,2.7,2.2
				c-9.1-5.9-18.6-12.1-24.2-15.7c5.4,3.7,14.5,9.9,23.3,15.9c-1.5-0.9-2.4-1.4-2.4-1.3c0,0,1,0.7,2.8,1.9
				c-9.5-5.2-19.5-10.6-25.4-13.8c5.7,3.3,15.3,8.8,24.6,14.2c-1.7-0.8-2.6-1.2-2.6-1.2s1,0.6,2.8,1.6c-9.8-4.4-20.2-9-26.2-11.8
				c6,2.8,16.1,7.7,25.8,12.3c-1.8-0.7-2.9-1.1-2.9-1s1,0.5,2.8,1.3c-10.1-3.6-20.7-7.4-26.9-9.7c6.2,2.4,16.8,6.5,26.8,10.4
				c-2-0.6-3.1-0.9-3.1-0.9s1,0.4,2.7,1c-10.3-2.8-21-5.8-27.4-7.5c6.4,1.9,17.4,5.2,27.8,8.4c-2.1-0.5-3.4-0.7-3.4-0.7
				s0.9,0.3,2.6,0.8c-10.4-2-21.2-4.1-27.7-5.4c6.6,1.4,17.8,3.9,28.4,6.2c-2.2-0.3-3.5-0.5-3.6-0.4c0,0,1,0.2,2.7,0.6
				c-10.5-1.2-21.4-2.5-27.9-3.3c6.7,0.9,17.9,2.5,28.5,4c-2.2-0.1-3.5-0.2-3.5-0.2s1.1,0.2,3,0.4c-10.5-0.4-21.5-0.9-28.2-1.2
				c6.7,0.4,17.6,1.1,28.2,1.8c-1.9,0-3.1,0.1-3.1,0.1s1.3,0.1,3.5,0.2c-10.8,0.4-22.1,0.8-28.8,1c6.6-0.1,17.5-0.2,28.1-0.3
				c-1.7,0.2-2.7,0.3-2.7,0.3s1.3,0,3.6-0.1c-10.8,1.2-22.2,2.5-28.9,3.2c6.5-0.6,17.5-1.5,28.1-2.4c-1.7,0.3-2.7,0.5-2.7,0.5
				s1.3-0.1,3.5-0.3c-10.7,2-21.9,4.1-28.5,5.4c6.5-1.1,17.5-2.9,28-4.6c-1.8,0.4-2.8,0.7-2.8,0.7s1.2-0.2,3.2-0.5
				c-10.4,2.8-21.4,5.8-27.8,7.5c6.4-1.6,17.3-4.2,27.8-6.7c-1.8,0.6-2.9,1-2.9,1s1.1-0.2,3-0.7c-10.1,3.6-20.7,7.3-26.9,9.5
				c6.3-2.1,17.1-5.6,27.4-8.9c-1.9,0.8-3,1.3-3,1.3s1-0.3,2.7-0.9c-9.7,4.3-19.9,8.8-25.9,11.4c6.2-2.6,16.7-6.9,26.7-11
				c-1.9,1-3,1.6-3,1.6s1-0.4,2.6-1.1c-9.3,5-19.1,10.2-24.9,13.3c6-3,16.1-8.2,25.8-13c-1.9,1.1-3,1.8-2.9,1.8c0,0,0.9-0.4,2.5-1.3
				c-8.9,5.7-18.2,11.6-23.7,15.1c5.7-3.5,15.4-9.3,24.6-14.9c-1.8,1.3-2.8,2-2.8,2s0.9-0.5,2.5-1.5c-8.5,6.4-17.3,13-22.6,16.9
				c5.4-3.9,14.6-10.4,23.3-16.6c-1.6,1.3-2.5,2.1-2.5,2.2c0,0,0.9-0.6,2.5-1.8c-8,7-16.3,14.3-21.3,18.7
				c5.1-4.3,13.6-11.4,21.8-18.2c-1.4,1.4-2.2,2.2-2.2,2.2s0.9-0.7,2.5-2.1c-7.5,7.6-15.3,15.6-19.9,20.4
				c4.7-4.6,12.6-12.3,20.2-19.7c-1.2,1.4-1.9,2.2-1.9,2.3c0,0,0.9-0.9,2.4-2.4c-6.9,8.2-14.1,16.8-18.4,21.9
				c4.3-4.9,11.6-13.2,18.6-21.1c-1.1,1.4-1.7,2.3-1.7,2.3s0.9-0.9,2.3-2.6c-6.3,8.7-12.8,17.9-16.7,23.4c3.9-5.2,10.5-14,16.9-22.4
				c-0.9,1.5-1.5,2.4-1.4,2.4c0,0,0.8-1,2.1-2.8c-5.6,9.2-11.4,18.9-14.9,24.6c3.5-5.5,9.5-14.8,15.2-23.7c-0.8,1.6-1.3,2.5-1.3,2.5
				s0.7-1,1.8-2.8c-4.8,9.6-9.9,19.7-12.9,25.6c3.1-5.8,8.3-15.6,13.4-25c-0.7,1.7-1.2,2.7-1.1,2.7c0,0,0.6-1,1.5-2.8
				c-4.1,9.9-8.3,20.3-10.8,26.4c2.6-6.1,7.2-16.3,11.5-26.1c-0.6,1.9-1,3-1,3s0.5-1,1.2-2.7c-3.3,10.1-6.7,20.7-8.7,26.9
				c2.2-6.3,5.9-16.9,9.5-27.1c-0.5,2.1-0.8,3.2-0.8,3.3c0,0,0.3-0.9,0.9-2.6c-2.4,10.3-5,21-6.5,27.3c1.7-6.5,4.6-17.5,7.4-27.9
				c-0.4,2.2-0.6,3.5-0.6,3.5s0.3-0.9,0.7-2.6c-1.6,10.4-3.3,21.1-4.4,27.5c1.2-6.6,3.2-17.7,5.2-28.3c-0.2,2.2-0.3,3.5-0.3,3.5
				s0.2-1,0.5-2.8c-0.8,10.4-1.7,21.3-2.3,27.8c0.7-6.6,1.8-17.6,2.9-28.1c0,2-0.1,3.2,0,3.2c0,0,0.1-1.2,0.3-3.2
				c0,10.6-0.1,21.7-0.1,28.3c0.2-6.6,0.5-17.4,0.8-27.9c0.1,1.8,0.2,2.8,0.2,2.8s0.1-1.3,0.1-3.5c0.8,10.7,1.6,22,2.1,28.7
				c-0.3-6.5-0.8-17.4-1.3-27.9c0.2,1.7,0.4,2.6,0.4,2.6s0-1.3-0.2-3.5c1.6,10.7,3.3,21.9,4.3,28.5c-0.8-6.5-2.2-17.3-3.5-27.8
				c0.4,1.7,0.6,2.7,0.6,2.7s-0.1-1.2-0.4-3.3c2.4,10.5,5,21.5,6.5,28c-1.3-6.4-3.6-17.3-5.7-27.7c0.5,1.8,0.8,2.8,0.9,2.8
				c0,0-0.2-1.1-0.6-3.1c3.2,10.2,6.6,20.9,8.6,27.2c-1.8-6.3-4.9-17.1-7.9-27.4c0.7,1.9,1.1,2.9,1.2,2.9c0,0-0.3-1-0.8-2.8
				c4,9.9,8.1,20.1,10.6,26.2c-2.4-6.2-6.3-16.8-10.1-26.8c0.9,1.9,1.4,3,1.5,3c0,0-0.3-1-1-2.6c4.7,9.5,9.6,19.3,12.5,25.2
				c-2.8-6-7.6-16.3-12.1-26.1c1.1,1.9,1.7,3,1.7,3s-0.4-0.9-1.2-2.5c5.4,9.1,11,18.5,14.4,24.1c-3.3-5.8-8.8-15.7-14.1-25
				c1.2,1.8,1.9,2.8,2,2.8c0,0-0.5-0.9-1.4-2.5c6.1,8.6,12.4,17.6,16.2,23c-3.7-5.5-10-14.9-15.9-23.8c1.3,1.7,2.1,2.6,2.1,2.6
				s-0.6-0.9-1.7-2.5c6.7,8.2,13.8,16.7,18,21.8c-4.1-5.2-11-14-17.6-22.4c1.4,1.5,2.2,2.3,2.2,2.3s-0.7-0.9-2-2.5
				c7.4,7.7,15.1,15.7,19.7,20.5c-4.5-4.9-12-13-19.1-20.9c1.4,1.3,2.2,2.1,2.3,2c0,0-0.8-0.9-2.2-2.4c8,7.1,16.4,14.6,21.3,19
				c-4.8-4.5-12.9-12-20.6-19.3c1.4,1.1,2.3,1.8,2.3,1.8s-0.9-0.9-2.5-2.3c8.6,6.5,17.5,13.4,22.9,17.4c-5.1-4.1-13.7-11-21.9-17.6
				c1.5,1,2.3,1.6,2.3,1.5c0,0-1-0.8-2.7-2.1c9.1,5.9,18.6,12,24.2,15.7c-5.4-3.7-14.5-9.9-23.3-15.9c1.5,0.9,2.4,1.4,2.4,1.3
				c0,0-1-0.7-2.8-1.9c9.5,5.2,19.5,10.6,25.3,13.8c-5.7-3.3-15.3-8.8-24.5-14.1c1.7,0.8,2.6,1.2,2.6,1.2s-1-0.6-2.8-1.6
				c9.8,4.4,20.2,9,26.2,11.8c-6-2.8-16.1-7.7-25.7-12.3c1.8,0.7,2.9,1.1,2.9,1c0,0-1-0.5-2.8-1.3c10.1,3.6,20.7,7.4,26.9,9.7
				c-6.2-2.4-16.8-6.5-26.8-10.4c2,0.6,3.1,0.9,3.2,0.9c0,0-1-0.4-2.7-1c10.3,2.8,21,5.8,27.4,7.5c-6.4-1.9-17.4-5.2-27.8-8.4
				c2.1,0.5,3.4,0.7,3.4,0.7s-0.9-0.3-2.6-0.8c10.4,2,21.2,4.1,27.6,5.4c-6.6-1.4-17.8-3.9-28.4-6.2c2.2,0.3,3.6,0.5,3.6,0.4
				c0,0-1-0.2-2.7-0.6c10.5,1.2,21.4,2.5,27.9,3.3c-6.7-0.9-17.9-2.5-28.5-4c2.2,0.1,3.5,0.2,3.5,0.2s-1.1-0.2-3-0.4
				c10.6,0.4,21.6,0.9,28.2,1.2c-6.7-0.4-17.6-1.1-28.2-1.8c1.9,0,3.1-0.1,3.1-0.1s-1.3-0.1-3.5-0.2c10.8-0.4,22.1-0.8,28.8-1
				C127.6,162.3,116.7,162.4,106.1,162.5z"/>
			<path fill="#693D42" d="M134.2,162.2c3.8,0,6.1-0.1,6.1-0.1C140.3,162.1,138,162.1,134.2,162.2z"/>
			<path fill="#693D42" d="M134.2,159.1c3.7-0.3,5.9-0.5,5.9-0.6C140.1,158.5,137.8,158.7,134.2,159.1z"/>
			<path fill="#693D42" d="M133.8,156c3.6-0.6,5.8-1,5.8-1C139.6,154.9,137.4,155.3,133.8,156z"/>
			<path fill="#693D42" d="M112.1,126.8c1.7-3.2,2.8-5.2,2.7-5.2C114.8,121.5,113.7,123.5,112.1,126.8z"/>
			<path fill="#693D42" d="M109.2,125.4c1.4-3.3,2.3-5.4,2.3-5.4S110.6,122.1,109.2,125.4z"/>
			<path fill="#693D42" d="M103.2,123.5c0.9-3.5,1.5-5.7,1.4-5.7C104.6,117.7,104,119.9,103.2,123.5z"/>
			<path fill="#693D42" d="M106.2,124.3c1.2-3.4,1.9-5.5,1.9-5.5C108.1,118.7,107.4,120.8,106.2,124.3z"/>
			<path fill="#693D42" d="M126.4,129.9c0,0-1.7,1.6-4.3,4.3C124.8,131.6,126.4,130,126.4,129.9z"/>
			<path fill="#693D42" d="M101.1,117c0,0-0.4,2.3-1,5.9C100.7,119.3,101.1,117,101.1,117z"/>
			<path fill="#693D42" d="M117.4,130.1c2.2-3,3.6-4.8,3.6-4.8C120.9,125.3,119.6,127.1,117.4,130.1z"/>
			<path fill="#693D42" d="M119.8,132.1c2.5-2.8,4-4.5,3.9-4.6C123.7,127.5,122.2,129.3,119.8,132.1z"/>
			<path fill="#693D42" d="M97.5,116.5c0,0-0.3,2.3-0.6,6.1C97.3,118.9,97.5,116.5,97.5,116.5z"/>
			<path fill="#693D42" d="M114.8,128.4c2-3.1,3.2-5,3.1-5C117.9,123.3,116.7,125.2,114.8,128.4z"/>
			<path fill="#693D42" d="M59.9,196.3c0,0,1.7-1.6,4.3-4.3C61.5,194.7,59.9,196.3,59.9,196.3z"/>
			<path fill="#693D42" d="M125.3,197.3c0,0-1.6-1.7-4.1-4.4C123.7,195.7,125.3,197.4,125.3,197.3z"/>
			<path fill="#693D42" d="M52.1,164c-3.8,0-6.1,0.1-6.1,0.1C46,164.2,48.3,164.1,52.1,164z"/>
			<path fill="#693D42" d="M113.7,198.5c1.8,3.2,3,5.2,3,5.2S115.5,201.7,113.7,198.5z"/>
			<path fill="#693D42" d="M122.6,199.7c0,0-1.4-1.8-3.8-4.7C121.1,197.9,122.6,199.7,122.6,199.7z"/>
			<path fill="#693D42" d="M119.7,201.8c0,0-1.3-1.9-3.4-5C118.4,199.9,119.7,201.8,119.7,201.8z"/>
			<path fill="#693D42" d="M108,201.3c1.3,3.4,2.1,5.5,2.1,5.5C110.2,206.8,109.3,204.7,108,201.3z"/>
			<path fill="#693D42" d="M98.8,203.6c0.5,3.6,0.8,5.8,0.8,5.8C99.6,209.5,99.3,207.2,98.8,203.6z"/>
			<path fill="#693D42" d="M95.6,203.9c0.2,3.7,0.3,6,0.4,6C96,209.8,95.9,207.5,95.6,203.9z"/>
			<path fill="#693D42" d="M101.9,203.1c0.7,3.5,1.2,5.7,1.3,5.7C103.2,208.8,102.7,206.7,101.9,203.1z"/>
			<path fill="#693D42" d="M105,202.4c1,3.5,1.7,5.6,1.7,5.6C106.7,207.9,106.1,205.8,105,202.4z"/>
			<path fill="#693D42" d="M92.4,209.9c0,0,0.1-2.3,0.1-6.1C92.4,207.6,92.4,209.9,92.4,209.9z"/>
			<path fill="#693D42" d="M131.8,177.6c3.4,1.3,5.5,2.1,5.5,2.1C137.3,179.6,135.2,178.8,131.8,177.6z"/>
			<path fill="#693D42" d="M133.5,171.5c3.6,0.8,5.8,1.3,5.9,1.2C139.4,172.7,137.1,172.2,133.5,171.5z"/>
			<path fill="#693D42" d="M132.8,174.6c3.5,1,5.7,1.7,5.7,1.6C138.5,176.2,136.3,175.6,132.8,174.6z"/>
			<path fill="#693D42" d="M123.4,190.7c2.7,2.5,4.4,4.1,4.5,4.1S126.2,193.2,123.4,190.7z"/>
			<path fill="#693D42" d="M139.9,169.2c0,0-2.3-0.3-6.1-0.8C137.6,168.9,139.9,169.2,139.9,169.2z"/>
			<path fill="#693D42" d="M127.4,185.9c3.1,2.1,5,3.3,5,3.3S130.5,187.9,127.4,185.9z"/>
			<path fill="#693D42" d="M130.5,180.5c3.3,1.6,5.3,2.5,5.4,2.5C135.9,182.9,133.9,182,130.5,180.5z"/>
			<path fill="#693D42" d="M125.5,188.4c2.9,2.3,4.7,3.7,4.7,3.7S128.4,190.6,125.5,188.4z"/>
			<path fill="#693D42" d="M129.1,183.2c3.2,1.8,5.2,2.9,5.2,2.9C134.3,186.1,132.3,185,129.1,183.2z"/>
			<path fill="#693D42" d="M110.9,200c1.6,3.3,2.5,5.4,2.6,5.3C113.5,205.4,112.5,203.3,110.9,200z"/>
			<path fill="#693D42" d="M56.7,182.1c-3.3,1.7-5.3,2.7-5.3,2.8C51.4,184.9,53.4,183.8,56.7,182.1z"/>
			<path fill="#693D42" d="M58.3,184.8c-3.2,1.9-5.1,3.2-5.1,3.2S55.2,186.8,58.3,184.8z"/>
			<path fill="#693D42" d="M55.2,190.9c0,0,1.9-1.3,4.9-3.6C57.1,189.5,55.2,190.9,55.2,190.9z"/>
			<path fill="#693D42" d="M57.5,193.7c0,0,1.8-1.5,4.6-3.9C59.2,192.2,57.4,193.7,57.5,193.7z"/>
			<path fill="#693D42" d="M55.3,179.3c-3.4,1.4-5.5,2.3-5.5,2.3C49.9,181.7,51.9,180.8,55.3,179.3z"/>
			<path fill="#693D42" d="M52.5,170.3c-3.6,0.6-5.8,1-5.8,1S48.9,170.9,52.5,170.3z"/>
			<path fill="#693D42" d="M52.2,167.1c-3.7,0.3-6,0.5-6,0.6C46.2,167.8,48.5,167.5,52.2,167.1z"/>
			<path fill="#693D42" d="M54.1,176.4c-3.5,1.1-5.6,1.9-5.6,1.9C48.5,178.3,50.7,177.6,54.1,176.4z"/>
			<path fill="#693D42" d="M53.2,173.3c-3.6,0.9-5.7,1.4-5.7,1.5C47.5,174.8,49.7,174.3,53.2,173.3z"/>
			<path fill="#693D42" d="M74.3,199.5c-1.7,3.2-2.8,5.2-2.7,5.2C71.6,204.7,72.6,202.7,74.3,199.5z"/>
			<path fill="#693D42" d="M80.1,202c-1.2,3.4-1.9,5.5-1.9,5.6C78.3,207.5,79,205.4,80.1,202z"/>
			<path fill="#693D42" d="M83.2,202.8c-0.9,3.5-1.5,5.7-1.4,5.7C81.8,208.5,82.3,206.4,83.2,202.8z"/>
			<path fill="#693D42" d="M77.1,200.8c-1.5,3.3-2.3,5.4-2.3,5.4C74.9,206.3,75.8,204.2,77.1,200.8z"/>
			<path fill="#693D42" d="M140.3,165.7c0,0-2.4-0.2-6.3-0.3C137.9,165.6,140.3,165.7,140.3,165.7z"/>
			<path fill="#693D42" d="M85.3,209.3c0,0,0.4-2.3,1-5.9C85.6,207,85.2,209.2,85.3,209.3z"/>
			<path fill="#693D42" d="M68.9,196.1c-2.2,3-3.6,4.8-3.5,4.8C65.4,201,66.8,199.1,68.9,196.1z"/>
			<path fill="#693D42" d="M66.5,194.2c-2.4,2.8-4,4.5-3.9,4.6C62.6,198.8,64.1,197,66.5,194.2z"/>
			<path fill="#693D42" d="M71.5,197.9c-2,3.1-3.2,5-3.1,5S69.6,201,71.5,197.9z"/>
			<path fill="#693D42" d="M88.8,209.7c0,0,0.2-2.3,0.6-6.1C89,207.4,88.8,209.7,88.8,209.7z"/>
		</g>
	</g>
</g>
<rect x="11.8" y="54.2" fill="#64373C" width="0.6" height="32.4"/>
<rect x="174.2" y="239.4" fill="#64373C" width="0.6" height="32.4"/>
<path fill="#2D2A2B" d="M101.6,128.7c1.5,1.3,1.5,1.9,1.7,3.9c0.7,7.2,1.4,14.5,2.1,21.7c0.8-1.5,2.3-3.2,3.9-2.5
	c1.1,0.5,1.3,1.9,1.3,3.1c0.2,6.7-0.6,13.4,0.6,20c0.3,1.5,0.7,2.9,0.5,4.4c-0.3,3.8-3.8,6.5-5.1,10.1c-0.5,1.3-0.6,2.8-1.2,4
	c-1.4,2.7-4.6,3.9-7.6,4.4c-5.3,0.8-10.7-0.1-16-1c-0.6-0.1-1.2-0.2-1.6-0.6c-0.4-0.4-0.6-0.9-0.8-1.4c-2.6-7.5-5.2-15.2-5-23.1
	c0.1-5.3,1.5-10.4,1.8-15.7c0.2-4.3-0.3-8.7,0.9-12.8c0.4-1.3,1.3-2.6,2.2-3.5c0.3-0.3,2.1-1.4,3.3-0.1c0,0,0.4-5.4,1.6-8.1
	c1.1-2.6,5.1-2.4,5.1-2.4c0.4-3.3,2.1-4.2,4.2-4.2c2.6,0,3.5,3.4,3.7,3.4C97.4,128.4,100.2,127.4,101.6,128.7"/>
<path fill="#F0533A" d="M93.5,199.2c-4,0-8-0.7-11.8-1.3c-0.6-0.1-1.5-0.2-2.2-0.8s-0.9-1.3-1.1-1.9c-2.5-7.2-5.2-15.3-5-23.5
	c0.1-2.8,0.5-5.7,0.9-8.4c0.4-2.4,0.7-4.9,0.9-7.3c0.1-1.2,0.1-2.5,0.1-3.8c0-3.1,0-6.2,0.9-9.3c0.4-1.3,1.3-2.8,2.5-4
	c0.5-0.5,1.8-1.2,3.2-1c0.2-1.9,0.7-5,1.5-6.9c1-2.3,3.7-2.9,5.2-3c0.6-2.8,2.4-4.2,5.1-4.2c2.4,0,3.7,2.1,4.2,3.3
	c1.1-0.2,3-0.4,4.3,0.7l0,0c1.8,1.5,1.9,2.5,2.1,4.5v0.1l1.9,19c1.1-0.9,2.4-1.2,3.5-0.7c1.9,0.9,1.9,3.3,2,4.1c0.1,2.2,0,4.5,0,6.7
	c-0.1,4.4-0.2,8.9,0.6,13.2l0.1,0.7c0.3,1.3,0.5,2.6,0.4,4c-0.2,2.5-1.6,4.5-2.9,6.4c-0.9,1.3-1.8,2.6-2.3,4c-0.2,0.5-0.3,1-0.4,1.5
	c-0.2,0.9-0.4,1.8-0.9,2.6c-1.7,3.3-5.5,4.6-8.4,5C96.5,199.1,95,199.2,93.5,199.2z M81.4,140.1c-0.6,0-1.1,0.4-1.1,0.4
	c-0.9,0.9-1.7,2.1-1.9,3.1c-0.8,2.7-0.8,5.6-0.8,8.6c0,1.3,0,2.6-0.1,3.9c-0.1,2.5-0.5,5.1-0.9,7.5c-0.4,2.7-0.8,5.4-0.9,8.1
	c-0.2,7.8,2.4,15.4,4.9,22.7c0.1,0.3,0.3,0.8,0.5,1s0.7,0.3,1.1,0.3c5.1,0.9,10.4,1.8,15.6,1c2-0.3,5.5-1.2,6.8-3.8
	c0.3-0.7,0.5-1.4,0.7-2.2c0.1-0.6,0.3-1.1,0.5-1.7c0.6-1.7,1.6-3.1,2.5-4.5c1.2-1.8,2.4-3.4,2.5-5.4c0.1-1.1-0.1-2.2-0.4-3.4
	l-0.1-0.7c-0.9-4.5-0.8-9.2-0.7-13.6c0-2.2,0.1-4.4,0-6.6c0-1.2-0.3-2-0.7-2.2c-0.7-0.3-1.7,0.8-2.4,2l-1.7,3.1l-2.5-25.4
	c-0.2-1.8-0.2-2-1.3-3l0,0c-0.7-0.6-2.4-0.3-3.1-0.1l-0.2,0.1h-0.2c-0.7,0-1-0.6-1.2-1c-0.6-1.2-1.3-2.4-2.4-2.4
	c-1.6,0-2.8,0.5-3.1,3.2l-0.1,1h-1c0,0-3.3,0-4.1,1.8c-1.1,2.5-1.5,7.7-1.5,7.8l-0.2,2.4l-1.7-1.7C81.8,140.2,81.6,140.1,81.4,140.1
	z"/>
<path fill="#F0533A" d="M105.6,154.1c-0.2,0.1-0.4,0.2-0.6,0.4s-0.3,0.4-0.4,0.6c-0.1,0.2-0.2,0.4-0.3,0.7c0,0.1,0,0.1-0.1,0.2
	c0,0.1,0,0.1-0.1,0.2c0,0.1-0.1,0.2-0.1,0.3s-0.1,0.2-0.1,0.3s0,0.1,0,0.2v0.2c-0.1,0.2-0.1,0.5-0.1,0.7c-0.1,0.5-0.1,1-0.2,1.4
	c0,0.5-0.1,1-0.1,1.4c0,0.2,0,0.5,0,0.7v0.7c0,0.5,0,1,0,1.4v0.4v0.4v0.4v0.4c0,0.5-0.1,1-0.2,1.4c-0.1,0.5-0.2,0.9-0.3,1.4
	c-0.1,0.5-0.2,0.9-0.4,1.4c-0.2,0.5-0.3,0.9-0.5,1.4c-0.3,0.9-0.7,1.8-0.9,2.8c-0.1,0.2-0.1,0.5-0.2,0.7c0,0.1,0,0.1,0,0.2
	c0,0.1,0,0.1,0,0.2c0,0.1,0,0.2,0,0.4c0,0.1,0,0.2,0,0.4c0,0.1,0,0.1,0,0.2c0,0.1,0,0.1,0,0.2c0,0.2,0,0.5,0,0.7l0,0
	c0-1,0.1-1.9,0.4-2.8c0.3-0.9,0.6-1.8,0.9-2.7s0.7-1.8,0.9-2.8c0.1-0.5,0.2-1,0.2-1.4c0.1-0.5,0.1-1,0.1-1.4V165v-0.4v-0.7
	c0-0.5,0-1,0-1.4c0-0.2,0-0.5,0-0.7s0-0.5,0-0.7c0-0.5,0.1-1,0.1-1.4c0.1-0.5,0.1-1,0.2-1.4c0-0.2,0.1-0.5,0.1-0.7
	c0-0.1,0.1-0.2,0.1-0.3s0.1-0.2,0.1-0.3s0.1-0.2,0.1-0.3s0-0.1,0.1-0.2c0-0.1,0-0.1,0.1-0.2c0.1-0.2,0.2-0.4,0.3-0.6
	c0.1-0.2,0.3-0.4,0.4-0.6C105.2,154.4,105.4,154.2,105.6,154.1L105.6,154.1z"/>
<path fill="#F0533A" d="M97.1,128.9c0,0.3-0.1,0.6-0.1,0.9c0,0.3-0.1,0.6-0.1,0.9c-0.1,0.6-0.1,1.2-0.2,1.8c0,0.3,0,0.6,0,0.9
	c0,0.3,0,0.6,0,0.9c0,0.3,0,0.6,0,0.9c0,0.3,0,0.6,0.1,0.9l0.1,0.9c0,0.3,0,0.6,0.1,0.9c0,0.6,0.1,1.2,0.1,1.8c0,1.2,0.1,2.4,0,3.5
	c0,0.6,0,1.2-0.1,1.8v0.9c0,0.3,0,0.6,0,0.9c0,0.6-0.1,1.2-0.1,1.8s0,1.2,0,1.8c0,0.1,0,0.3,0,0.4v0.2v0.2c0,0.1,0,0.1,0,0.2v0.2
	c0,0.1,0,0.3,0.1,0.4c0,0.1,0,0.1,0,0.2v0.2c0,0.1,0.1,0.3,0.1,0.4c0.1,0.3,0.2,0.6,0.2,0.9c0.1,0.3,0.1,0.6,0.1,0.9
	c0,0.3-0.1,0.6-0.1,0.9c0,0.1,0,0.2,0,0.2v0.1c0,0,0,0,0,0.1v0.1v0.1c0,0,0,0,0,0.1c0,0,0,0,0,0.1v0.1c0,0.1,0.1,0.1,0.1,0.2
	c0.1,0.1,0.2,0.2,0.3,0.4c0,0.1,0.1,0.1,0.1,0.2c0,0.1,0,0.1,0,0.2l0,0c-0.2,0.1-0.4,0.2-0.6,0.2s-0.4,0-0.6-0.1l0,0
	c0.1,0,0.2,0.1,0.3,0.1c0.1,0,0.2,0,0.3,0c0.2,0,0.4-0.1,0.6-0.2l0,0l0,0c0-0.1,0-0.2,0-0.2c0-0.1,0-0.2-0.1-0.2
	c-0.1-0.1-0.2-0.3-0.2-0.4c0-0.1-0.1-0.1-0.1-0.2v-0.1c0,0,0,0,0-0.1c0,0,0,0,0-0.1V156v-0.1c0,0,0,0,0-0.1v-0.1c0-0.1,0-0.1,0-0.2
	c0-0.3,0.1-0.6,0.2-0.9c0-0.3,0-0.6-0.1-0.9c-0.1-0.3-0.1-0.6-0.2-0.9c0-0.1,0-0.1,0-0.2v-0.2v-0.2c0-0.1,0-0.1,0-0.2
	c0-0.1,0-0.3-0.1-0.4v-0.2c0-0.1,0-0.1,0-0.2V151v-0.2c0-0.1,0-0.3,0-0.4c0-1.2,0-2.4,0.1-3.5c0-0.6,0-1.2,0-1.8s0-1.2,0-1.8v-0.4
	v-0.4c0-0.3,0-0.6,0-0.9c0-0.6,0-1.2,0-1.8c0-1.2-0.1-2.4-0.1-3.5c0-0.6-0.1-1.2-0.1-1.8s0-1.2,0-1.8s0.1-1.2,0.1-1.8l0.1-0.9
	C97.1,129.5,97.1,129.2,97.1,128.9L97.1,128.9z"/>
<path fill="#F0533A" d="M89.4,131.8c0.1,0.4,0.2,0.8,0.2,1.1c0,0.1,0,0.2,0,0.3v0.1v0.1c0,0.2,0,0.4,0,0.6c0,0.4,0.1,0.8,0.1,1.2
	s0,0.8,0,1.2c0,0.2,0,0.4,0,0.6c0,0.2,0,0.4,0,0.6c0,0.4,0,0.8,0,1.2v0.6c0,0.1,0,0.2,0,0.3s0,0.2,0,0.3c0,0.4,0,0.8-0.1,1.2l0,0
	c0.1-0.4,0.2-0.8,0.2-1.2c0-0.1,0-0.2,0-0.3s0-0.2,0-0.3c0-0.2,0-0.4,0-0.6c0-0.4,0-0.8,0-1.2c0-0.2,0-0.4,0-0.6c0-0.2,0-0.4,0-0.6
	c0-0.4,0-0.8,0-1.2s0-0.8,0-1.2c0-0.2,0-0.4,0-0.6v-0.1v-0.1v-0.1V133C89.7,132.5,89.6,132.1,89.4,131.8L89.4,131.8z"/>
<path fill="#F0533A" d="M82.8,141.7c-0.1,0.7-0.3,1.5-0.4,2.2l-0.1,0.6c0,0.2,0,0.4-0.1,0.6c0,0.4-0.1,0.8-0.1,1.1
	c0,0.2,0,0.4,0,0.6c0,0.2,0,0.4,0,0.6c0,0.2,0,0.4,0,0.6v0.6c0,0.2,0,0.4,0,0.6c0,0.1,0,0.2,0,0.3v0.3v0.3v0.1v0.1v0.6
	c0,0.8,0,1.5,0,2.3c0,0.2,0,0.4,0,0.6c0,0.1,0,0.2,0,0.3v0.3c0,0.2,0,0.4,0,0.6c0,0.2,0,0.4,0.1,0.6c0.1,0.8,0.2,1.5,0.3,2.3
	c0,0.4,0.1,0.8,0.1,1.1c0,0.2,0,0.4,0,0.6c0,0.2,0,0.4,0,0.6l0,0c0-0.2,0-0.4,0-0.6c0-0.2,0-0.4,0-0.6c0-0.2,0-0.4,0-0.6
	c0-0.2,0-0.4,0-0.6c0-0.8-0.1-1.5-0.2-2.3l-0.1-0.6l-0.1-0.6V154c0-0.1,0-0.2,0-0.3c0-0.2,0-0.4,0-0.6v-0.6v-0.1v-0.1V152v-0.3
	c0-0.1,0-0.2,0-0.3c0-0.2,0-0.4,0-0.6c0-0.8,0-1.5,0.1-2.3v-0.6c0-0.2,0-0.4,0.1-0.6c0-0.4,0.1-0.7,0.1-1.1c0-0.2,0-0.4,0.1-0.6
	l0.1-0.6l0.1-1.1C82.7,143.2,82.8,142.4,82.8,141.7L82.8,141.7z"/>
<path fill="#F0533A" d="M89.6,148.3c0,0.4,0,0.7-0.1,1.1c0,0.2,0,0.4,0,0.5v0.5c0,0.7,0.1,1.4,0.1,2.1c0,0.4,0,0.7-0.1,1.1
	c0,0.2-0.1,0.3-0.1,0.5c-0.1,0.2-0.2,0.3-0.2,0.5c0,0.1-0.1,0.2-0.1,0.2c0,0.1-0.1,0.2-0.1,0.3s0,0.2,0,0.3s0,0.2,0.1,0.3
	c0,0.1,0.1,0.2,0.2,0.2s0.1,0.1,0.2,0.2c0.1,0.1,0.2,0.3,0.3,0.4L90,157v-0.5c0-0.2,0-0.3,0-0.5s0-0.3,0-0.5s0-0.3,0-0.5
	s0-0.3,0-0.5l0,0c0,0.2,0,0.3,0,0.5s0,0.3,0,0.5s0,0.3,0,0.5s0,0.3,0,0.5h0.2c0-0.1-0.1-0.2-0.1-0.3c-0.1-0.1-0.1-0.1-0.2-0.2
	c-0.1-0.1-0.2-0.3-0.3-0.4c0-0.1-0.1-0.1-0.1-0.2c0-0.1,0-0.2,0-0.2c0-0.1,0-0.2,0.1-0.2c0-0.1,0.1-0.2,0.1-0.2
	c0.1-0.2,0.2-0.3,0.2-0.5c0.1-0.2,0.1-0.4,0.1-0.5c0-0.2,0-0.4,0-0.5V153v-0.3c0-0.7,0.1-1.4,0.1-2.1v-0.5c0-0.2,0-0.4,0-0.5
	C89.7,149.1,89.7,148.7,89.6,148.3L89.6,148.3z"/>
<path fill="#F0533A" d="M101.3,157.1c-0.7-0.1-1.4-0.1-2-0.1c-0.2,0-0.3,0-0.5,0.1h-0.3c-0.1,0-0.2,0-0.3,0.1c-0.1,0-0.2,0-0.2,0.1
	c-0.1,0-0.2,0-0.2,0.1c-0.1,0-0.2,0-0.2,0.1l-0.2,0.1c-0.2,0.1-0.3,0.1-0.5,0.2l-0.1,0.1l-0.1,0.1c-0.1,0-0.2,0.1-0.2,0.1
	c-0.2,0.1-0.3,0.2-0.5,0.2c-0.2,0.1-0.3,0.2-0.5,0.2c-0.2,0.1-0.3,0.1-0.5,0.2c-0.2,0-0.3,0.1-0.5,0.1h-0.1h-0.1h-0.1h-0.1
	c-0.2,0-0.3,0-0.5,0s-0.3,0-0.5,0s-0.3,0-0.5,0s-0.3,0-0.5,0s-0.3,0-0.5,0c-0.3,0-0.7,0-1,0c-0.2,0-0.3,0-0.5,0s-0.3,0-0.5,0
	c-0.7,0.1-1.3,0.2-2,0.3s-1.3,0.3-2,0.4l0,0c0.7-0.1,1.3-0.2,2-0.3s1.3-0.2,2-0.2c0.3,0,0.7-0.1,1-0.1s0.7,0,1-0.1
	c0.7,0,1.3,0,2-0.1c0.3,0,0.7,0,1-0.1c0.2,0,0.3-0.1,0.5-0.1s0.3-0.1,0.5-0.2c0.2-0.1,0.3-0.1,0.5-0.2c0.2-0.1,0.3-0.1,0.5-0.2
	c0.3-0.1,0.6-0.2,0.9-0.4c0.3-0.1,0.6-0.2,1-0.3c0.1,0,0.2,0,0.2-0.1h0.2c0.2,0,0.3-0.1,0.5-0.1h0.1h0.1c0.1,0,0.2,0,0.3,0h0.3h0.3
	C100.7,157.1,101,157.1,101.3,157.1L101.3,157.1z"/>
<path fill="#F0533A" d="M83.8,159.9c-0.1,0-0.3-0.1-0.4-0.1s-0.1,0-0.2,0s-0.1,0-0.2,0s-0.3,0-0.4,0s-0.3,0-0.4-0.1
	c-0.1,0-0.1,0-0.2,0s-0.1,0-0.2,0s-0.3-0.1-0.4-0.1s-0.2-0.1-0.3-0.2c-0.1-0.1-0.2-0.2-0.2-0.3l0,0c0,0.1,0.1,0.3,0.1,0.4
	c0.1,0.1,0.2,0.2,0.4,0.3c0.1,0.1,0.3,0.1,0.4,0.1s0.1,0,0.2,0s0.1,0,0.2,0s0.3,0,0.4,0s0.3,0.1,0.4,0.1s0.1,0,0.2,0s0.1,0,0.2,0
	C83.5,159.9,83.6,159.9,83.8,159.9L83.8,159.9z"/>
<path fill="#F0533A" d="M98.7,163c-0.8,0.5-1.7,1-2.6,1.4c-0.2,0.1-0.4,0.2-0.7,0.3c-0.1,0-0.2,0.1-0.3,0.1l-0.3,0.1
	c-0.5,0.2-0.9,0.3-1.4,0.5c-0.5,0.1-0.9,0.3-1.4,0.4c-0.2,0.1-0.5,0.1-0.7,0.2c-0.2,0.1-0.5,0.1-0.7,0.2c-0.5,0.1-0.9,0.2-1.4,0.4
	c-0.2,0.1-0.5,0.1-0.7,0.2c-0.2,0.1-0.5,0.1-0.7,0.2l-0.7,0.2l-0.7,0.1l-0.7,0.1c-0.1,0-0.2,0-0.4,0.1l-0.4,0.1
	c-0.5,0.1-1,0.1-1.4,0.2c-0.2,0-0.5,0-0.7,0.1c-0.1,0-0.2,0-0.4,0H82c-1.9,0.1-3.9,0-5.8-0.2l0,0c1.9,0.3,3.9,0.5,5.8,0.4h0.4
	c0.1,0,0.2,0,0.4,0h0.4c0.1,0,0.2,0,0.4,0c0.5,0,1-0.1,1.5-0.2c1-0.1,1.9-0.3,2.9-0.6c0.2-0.1,0.5-0.1,0.7-0.2
	c0.1,0,0.2-0.1,0.4-0.1l0.4-0.1c0.5-0.1,0.9-0.2,1.4-0.4l1.4-0.3c0.5-0.1,0.9-0.2,1.4-0.4c0.5-0.1,0.9-0.3,1.4-0.5l0.3-0.1
	c0.1,0,0.2-0.1,0.3-0.1c0.2-0.1,0.5-0.2,0.7-0.3C97.1,164.1,98,163.6,98.7,163L98.7,163z"/>
<path fill="#F0533A" d="M84.5,171.8l1.1-0.7c0.4-0.2,0.7-0.5,1.1-0.7s0.7-0.4,1.1-0.7c0.4-0.2,0.7-0.4,1.1-0.6
	c1.5-0.8,3-1.6,4.6-2.1h0.1c0.1,0,0.1,0,0.2,0l0.3-0.1c0.2-0.1,0.4-0.1,0.6-0.2h0.2H95h0.1l0.3-0.1c0.1,0,0.2,0,0.3-0.1h0.2h0.2
	c0.8-0.1,1.7-0.2,2.5-0.2s1.7,0.1,2.5,0.2c0.4,0.1,0.8,0.1,1.3,0.2h0.3c0.1,0,0.2,0,0.3,0.1l0.1,0.1l0,0l0,0l0,0c0,0,0,0,0,0.1
	c0,0,0,0.1-0.1,0.1c0,0,0,0-0.1,0l0,0l0,0l0,0c-1,0.5-2,1.1-2.8,1.8c-0.9,0.7-1.7,1.4-2.5,2.3c-0.8,0.8-1.5,1.7-2.1,2.6
	c-0.3,0.5-0.6,0.9-0.9,1.4s-0.6,0.9-0.9,1.4c-0.1,0.2-0.3,0.5-0.4,0.7l-0.1,0.1v0.1l-0.1,0.2l-0.2,0.4c0,0.1-0.1,0.1-0.1,0.2
	l-0.1,0.2l-0.2,0.4c-0.1,0.3-0.2,0.5-0.4,0.8c-0.1,0.1-0.1,0.3-0.2,0.4l-0.2,0.4c-0.1,0.3-0.2,0.5-0.3,0.8l-0.3,0.8l-0.3,0.8
	l-0.3,0.8c-0.1,0.3-0.2,0.5-0.3,0.8l-0.3,0.8l-0.3,0.8l-0.3,0.8l-0.3,0.8c-0.2,0.5-0.3,1.1-0.5,1.6l0,0l0.6-1.6l0.6-1.6l0.3-0.8
	l0.3-0.8l0.3-0.8l0.3-0.8c0.8-2.1,1.8-4.1,2.9-6c0.3-0.5,0.6-1,0.9-1.4c0.3-0.5,0.6-0.9,0.9-1.4c0.6-0.9,1.3-1.8,2.1-2.6
	c0.7-0.8,1.6-1.6,2.4-2.3c0.9-0.7,1.8-1.3,2.8-1.8l0,0c0,0,0.1,0,0.1,0.1h0.1c0.1,0,0.1-0.1,0.1-0.1v-0.1l0,0l0,0l0,0
	c0-0.1-0.1-0.1-0.1-0.1c-0.1-0.1-0.2-0.1-0.3-0.1h-0.3c-0.4-0.1-0.8-0.1-1.3-0.2c-0.8-0.1-1.7-0.2-2.5-0.2s-1.7,0-2.5,0.2H96h-0.2
	c-0.1,0-0.2,0-0.3,0.1c-0.2,0-0.4,0.1-0.6,0.1s-0.4,0.1-0.6,0.2l-0.3,0.1c-0.1,0-0.1,0-0.2,0l-0.2,0.1c-1.6,0.5-3.2,1.3-4.6,2.1
	c-0.7,0.4-1.5,0.9-2.2,1.3c-0.4,0.2-0.7,0.5-1.1,0.7l-0.5,0.4L84.5,171.8L84.5,171.8z"/>
<path fill="#F0533A" d="M86.5,183.4c0-0.4,0.1-0.8,0.1-1.3v-0.3v-0.3c0-0.2,0-0.4,0-0.6c0-0.2,0-0.4,0-0.6c0-0.1,0-0.2,0-0.3
	s0-0.2,0-0.3s0-0.2-0.1-0.3c0-0.1-0.1-0.2-0.1-0.3c-0.1-0.2-0.2-0.4-0.3-0.5l-0.2-0.3c-0.1-0.1-0.1-0.2-0.2-0.3
	c-0.1-0.2-0.2-0.4-0.3-0.5c-0.1-0.2-0.2-0.4-0.3-0.5c-0.1-0.2-0.2-0.4-0.3-0.6c-0.1-0.2-0.2-0.4-0.3-0.6c0-0.1-0.1-0.2-0.1-0.3
	s-0.1-0.2-0.1-0.3c-0.2-0.4-0.3-0.8-0.4-1.2l0,0c0.1,0.4,0.2,0.8,0.3,1.2c0,0.1,0.1,0.2,0.1,0.3s0.1,0.2,0.1,0.3
	c0.1,0.2,0.2,0.4,0.2,0.6c0.2,0.4,0.4,0.8,0.6,1.1c0.1,0.2,0.2,0.4,0.4,0.5c0.1,0.2,0.3,0.3,0.4,0.5s0.3,0.3,0.4,0.5
	c0,0.1,0.1,0.2,0.1,0.3s0,0.2,0.1,0.3c0,0.1,0,0.2,0,0.3s0,0.2,0,0.3c0,0.2,0,0.4,0,0.6c0,0.2,0,0.4,0,0.6v0.3v0.3
	C86.4,182.5,86.4,183,86.5,183.4L86.5,183.4z"/>
<path fill="#F0533A" d="M106.6,187.6c-0.2,0-0.3,0-0.5,0.1c0,0,0,0-0.1,0h-0.1h-0.1c-0.1,0-0.2,0.1-0.2,0.1l-0.1,0.1
	c0,0-0.1,0-0.1,0.1c-0.1,0.1-0.1,0.1-0.2,0.2c-0.1,0.1-0.3,0.2-0.4,0.4c-0.2,0.3-0.4,0.5-0.6,0.8c-0.1,0.1-0.2,0.3-0.3,0.4l-0.1,0.1
	l-0.1,0.1l-0.1,0.1l-0.1,0.1l-0.1,0.1l-0.1,0.1c-0.1,0.1-0.1,0.1-0.2,0.2c-0.1,0-0.1,0.1-0.2,0.2c-0.1,0-0.1,0.1-0.2,0.1
	c-0.3,0.2-0.6,0.4-0.9,0.5c-0.3,0.2-0.6,0.3-0.9,0.4c-0.3,0.1-0.6,0.2-1,0.3l0,0c0.3,0,0.7-0.1,1-0.2c0.3-0.1,0.6-0.2,0.9-0.4
	s0.6-0.3,0.9-0.5c0.1-0.1,0.1-0.1,0.2-0.2l0.1-0.1l0.1-0.1c0.1-0.1,0.1-0.1,0.2-0.2l0.1-0.1l0.1-0.1l0.1-0.1l0.1-0.1
	c0.1-0.1,0.1-0.1,0.2-0.2c0.1-0.1,0.2-0.3,0.3-0.4c0.2-0.3,0.4-0.5,0.7-0.7c0.1-0.1,0.2-0.2,0.4-0.3c0.1-0.1,0.1-0.1,0.2-0.2
	c0,0,0.1,0,0.1-0.1l0.1-0.1C106,187.8,106.3,187.7,106.6,187.6L106.6,187.6z"/>
<path fill="#F0533A" d="M105.1,190.6c-0.1,0-0.1,0-0.2,0.1l-0.1,0.1l-0.1,0.1l-0.1,0.1l-0.1,0.1l-0.1,0.1l-0.1,0.1
	c0,0-0.1,0-0.1,0.1c-0.1,0-0.2,0.1-0.3,0.1c-0.1,0.1-0.2,0.1-0.3,0.2l-0.1,0.1l-0.1,0.1l-0.1,0.1l-0.1,0.1l0,0
	c0.1,0,0.2-0.1,0.3-0.1c0.1,0,0.2-0.1,0.3-0.1c0.1-0.1,0.2-0.1,0.3-0.2l0.1-0.1l0.1-0.1c0.1-0.1,0.2-0.1,0.3-0.2
	c0.1-0.1,0.2-0.1,0.3-0.1c0.1-0.1,0.2-0.1,0.3-0.2C105,190.8,105.1,190.7,105.1,190.6L105.1,190.6z"/>
<path fill="#F0533A" d="M110.3,153.1c0,0.1,0,0.2,0,0.3s0,0.2,0,0.3c0,0.2-0.1,0.4-0.1,0.6c0,0.2,0,0.4,0,0.6c0,0.2-0.1,0.4-0.1,0.6
	c0,0.1,0,0.2,0,0.3s0,0.2,0,0.3c0,0.2,0,0.4,0,0.7c0,0.1,0,0.2,0,0.3s0,0.1,0,0.2c0,0.1,0,0.1,0,0.2c0.1,0.2,0.2,0.4,0.3,0.6l0,0
	c-0.1-0.2-0.2-0.4-0.2-0.6v-0.1v-0.1c0-0.1,0-0.1,0-0.2c0-0.1,0-0.2,0-0.3c0-0.2,0-0.4,0-0.6v-0.3c0-0.1,0-0.2,0-0.3
	c0-0.2,0-0.4,0-0.6c0-0.2,0.1-0.4,0.1-0.6c0-0.1,0-0.2,0.1-0.3c0-0.1,0-0.2,0-0.3C110.4,153.6,110.4,153.3,110.3,153.1L110.3,153.1z
	"/>
<path fill="#F0533A" d="M110.4,162.1c0-0.1-0.1-0.1-0.1-0.2c-0.1,0-0.1-0.1-0.2-0.1s-0.1,0-0.2,0s-0.1,0-0.2,0s-0.1,0-0.2,0
	s-0.1,0-0.2,0s-0.3,0-0.4,0.1l0,0c0.1,0,0.3,0,0.4,0s0.1,0,0.2,0h0.2c0.1,0,0.1,0,0.2,0s0.1,0.1,0.2,0.1S110.2,162.1,110.4,162.1
	C110.3,162.1,110.4,162.1,110.4,162.1L110.4,162.1z"/>
<path fill="#F0533A" d="M110.4,162.6L110.4,162.6C110.3,162.6,110.3,162.6,110.4,162.6c-0.1,0-0.1,0-0.2,0c0,0,0,0-0.1,0H110
	c0,0,0,0-0.1,0c0,0,0,0-0.1,0h-0.1h-0.1c-0.1,0-0.2,0-0.2,0l0,0c0.1,0,0.2,0.1,0.2,0.1h0.1c0,0,0,0,0.1,0c0,0,0,0,0.1,0h0.1h0.1h0.1
	C110.3,162.6,110.4,162.6,110.4,162.6L110.4,162.6z"/>
<path fill="#F0533A" d="M110.4,163.6c-0.1,0-0.2,0-0.2,0c-0.1,0-0.1,0.1-0.2,0.1c-0.1,0.1-0.1,0.1-0.2,0.2c-0.1,0-0.1,0.1-0.2,0.1
	s-0.1,0-0.2,0s-0.1,0-0.2,0s-0.1,0-0.2,0.1c-0.1,0-0.1,0.1-0.2,0.1l0,0c0.1-0.1,0.3-0.1,0.4-0.1s0.1,0,0.2,0s0.1,0,0.2-0.1
	c0.1,0,0.1-0.1,0.2-0.1s0.1-0.1,0.2-0.1C110.2,163.7,110.3,163.6,110.4,163.6L110.4,163.6z"/>
<path fill="#F0533A" d="M111.6,178.4c-0.1-0.1-0.1-0.2-0.2-0.3s-0.1-0.2-0.2-0.3s-0.2-0.2-0.3-0.3c-0.1-0.1-0.1-0.2-0.2-0.3
	c0,0-0.1-0.1-0.2-0.1s-0.1-0.1-0.2-0.1c-0.1-0.1-0.2-0.1-0.4-0.2c-0.2-0.1-0.5-0.2-0.8-0.2l0,0c0.3,0.1,0.5,0.2,0.7,0.3l0.4,0.2
	c0.1,0.1,0.2,0.1,0.3,0.2c0.1,0.1,0.2,0.2,0.3,0.3c0.1,0.1,0.1,0.2,0.2,0.3s0.2,0.2,0.2,0.3C111.4,178.2,111.5,178.3,111.6,178.4
	L111.6,178.4z"/>
<path fill="#F0533A" d="M111.1,178.8L111.1,178.8h-0.2h-0.1l-0.1-0.1c0,0,0,0,0-0.1c0,0,0,0,0-0.1v-0.1c0,0,0-0.1-0.1-0.1l-0.1-0.1
	l0,0c0.1,0.1,0.1,0.2,0.1,0.2s0,0.1,0.1,0.1c0,0,0,0.1,0.1,0.1l0.1,0.1L111.1,178.8L111.1,178.8C111,178.9,111.1,178.8,111.1,178.8
	L111.1,178.8z"/>
<path fill="#F0533A" d="M110.7,179.9c-0.3-0.1-0.5-0.2-0.7-0.3c-0.1-0.1-0.2-0.1-0.3-0.2c-0.1-0.1-0.2-0.2-0.2-0.3V179v-0.1
	c0-0.1-0.1-0.1-0.1-0.2c0-0.1,0-0.1-0.1-0.2c0-0.1-0.1-0.1-0.1-0.2c-0.1,0-0.1-0.1-0.2-0.1s-0.1,0-0.2,0s-0.1,0-0.2,0s-0.1,0-0.2,0
	l0,0c0.1,0,0.1,0.1,0.2,0.1s0.1,0,0.2,0s0.3,0,0.3,0.1c0.1,0.1,0.1,0.2,0.2,0.3c0,0.1,0.1,0.1,0.1,0.2c0,0.1,0.1,0.1,0.1,0.2
	c0.1,0.1,0.2,0.2,0.3,0.3c0.1,0.1,0.2,0.2,0.3,0.3c0.1,0.1,0.2,0.1,0.4,0.2C110.4,179.9,110.6,180,110.7,179.9L110.7,179.9z"/>
<path fill="#F0533A" d="M102.7,138.7c-0.4,0.1-0.7,0.2-1.1,0.3c-0.2,0-0.4,0.1-0.6,0.1s-0.4,0-0.6,0s-0.4-0.1-0.6-0.1
	s-0.4-0.1-0.5-0.2c-0.1,0-0.2-0.1-0.3-0.1c-0.1,0-0.2-0.1-0.3-0.1c-0.2-0.1-0.3-0.2-0.5-0.2l0,0c0.2,0.1,0.3,0.2,0.5,0.3
	c0.1,0,0.2,0.1,0.3,0.1c0.1,0,0.2,0.1,0.3,0.1c0.2,0.1,0.4,0.1,0.5,0.1c0.2,0,0.4,0.1,0.6,0.1s0.4,0,0.6,0s0.4,0,0.6-0.1
	C102,139,102.4,138.8,102.7,138.7L102.7,138.7z"/>
<path fill="#F0533A" d="M95.3,136.1c-0.4,0.1-0.7,0.2-1.1,0.3c-0.2,0-0.4,0.1-0.6,0.1s-0.4,0-0.6,0s-0.4-0.1-0.6-0.1
	s-0.4-0.1-0.5-0.2c-0.1,0-0.2-0.1-0.3-0.1c-0.1,0-0.2-0.1-0.3-0.1c-0.2-0.1-0.3-0.2-0.5-0.2l0,0c0.2,0.1,0.3,0.2,0.5,0.3
	c0.1,0,0.2,0.1,0.3,0.1c0.1,0,0.2,0.1,0.3,0.1c0.2,0.1,0.4,0.1,0.5,0.1c0.2,0,0.4,0.1,0.6,0.1s0.4,0,0.6,0s0.4,0,0.6-0.1
	C94.6,136.3,95,136.2,95.3,136.1L95.3,136.1z"/>
<path fill="#F0533A" d="M104.4,147.1c-0.1,0-0.3-0.1-0.4-0.2c-0.1-0.1-0.3-0.1-0.4-0.2c-0.3-0.1-0.5-0.3-0.8-0.4
	c-0.3-0.1-0.5-0.2-0.8-0.3s-0.6-0.1-0.9-0.1s-0.6,0-0.9,0.1c-0.1,0-0.1,0-0.2,0.1h-0.1h-0.1c-0.1,0.1-0.3,0.1-0.4,0.2
	c-0.3,0.1-0.5,0.3-0.8,0.4c-0.1,0.1-0.3,0.1-0.4,0.2c-0.1,0.1-0.3,0.1-0.4,0.1h-0.1h0.1c0.2,0.1,0.5,0.1,0.7,0.1s0.5-0.1,0.7-0.1
	s0.5-0.1,0.7-0.1s0.5,0,0.7,0s0.5,0.1,0.7,0.1s0.5,0.1,0.7,0.1s0.5,0,0.7,0s0.5,0,0.7-0.1l0,0c-0.2,0-0.5,0.1-0.7,0.1s-0.5,0-0.7,0
	s-0.5,0-0.7-0.1c-0.2,0-0.5-0.1-0.7-0.1s-0.5-0.1-0.7,0c-0.2,0-0.5,0.1-0.7,0.1s-0.5,0.1-0.7,0.1s-0.5,0-0.7-0.1l0,0
	c0.1,0,0.3-0.1,0.4-0.1c0.1-0.1,0.3-0.1,0.4-0.2c0.3-0.1,0.5-0.3,0.8-0.4c0.1,0,0.1-0.1,0.2-0.1s0.1-0.1,0.2-0.1h0.1h0.1
	c0.1,0,0.1,0,0.2-0.1c0.3-0.1,0.6-0.1,0.9-0.1s0.6,0.1,0.9,0.1c0.3,0.1,0.6,0.2,0.8,0.3c0.3,0.1,0.5,0.2,0.8,0.4
	c0.1,0.1,0.3,0.1,0.4,0.2C104.1,147,104.2,147.1,104.4,147.1L104.4,147.1z"/>
<path fill="#F0533A" d="M90.3,144.4c0.1-0.1,0.3-0.1,0.4-0.2c0.1-0.1,0.3-0.1,0.4-0.1c0.3-0.1,0.6-0.1,0.9-0.2c0.3,0,0.6,0,0.9-0.1
	c0.2,0,0.3,0,0.5,0s0.3,0,0.5,0c0.3,0,0.6,0.1,0.9,0.1c0.1,0,0.3,0.1,0.4,0.1s0.3,0.1,0.4,0.2c0.1,0.1,0.3,0.1,0.4,0.2
	c0.1,0,0.1,0.1,0.2,0.1s0.1,0.1,0.2,0.1c0.2,0.2,0.4,0.4,0.6,0.7l0,0c-0.6,0-1.1,0.1-1.7,0.2c-0.5,0.1-1.1,0.2-1.6,0.1
	c-0.1,0-0.1,0-0.2,0h-0.2c-0.1,0-0.3-0.1-0.4-0.1c-0.3-0.1-0.5-0.2-0.8-0.3c-0.1-0.1-0.3-0.1-0.4-0.1s-0.3-0.1-0.4-0.1s-0.3,0-0.4,0
	s-0.3,0.1-0.4,0.1l0,0c0.1-0.1,0.3-0.1,0.4-0.1s0.3,0,0.4,0s0.3,0,0.4,0.1c0.1,0,0.3,0.1,0.4,0.1c0.3,0.1,0.5,0.2,0.8,0.3
	c0.1,0,0.1,0,0.2,0.1c0.1,0,0.1,0,0.2,0h0.2c0.1,0,0.1,0,0.2,0c0.3,0,0.6,0,0.8,0c0.3,0,0.6-0.1,0.8-0.1c0.5-0.1,1.1-0.2,1.6-0.2
	l0,0l0,0c-0.1-0.3-0.3-0.5-0.6-0.7c-0.1-0.1-0.1-0.1-0.2-0.1s-0.1-0.1-0.2-0.1s-0.1-0.1-0.2-0.1s-0.1-0.1-0.2-0.1
	c-0.1-0.1-0.3-0.1-0.4-0.2c-0.1-0.1-0.3-0.1-0.4-0.1c-0.3-0.1-0.6-0.1-0.9-0.1s-0.6,0-0.9,0s-0.6,0-0.9,0.1c-0.3,0-0.6,0.1-0.9,0.2
	c-0.1,0-0.3,0.1-0.4,0.2C90.5,144.3,90.4,144.3,90.3,144.4L90.3,144.4z"/>
<path fill="#F0533A" d="M89.1,138.8c-0.1,0.1-0.2,0.1-0.3,0.1c-0.1,0-0.2,0-0.3,0.1c-0.1,0-0.2,0-0.3,0h-0.3c-0.2,0-0.4,0.1-0.6,0.1
	s-0.4,0-0.6,0s-0.4,0-0.6,0s-0.4,0-0.6,0s-0.4,0-0.6,0s-0.4-0.1-0.6-0.2l0,0c0.2,0.1,0.4,0.2,0.6,0.2s0.4,0,0.6,0s0.4,0,0.6,0
	s0.4,0,0.6,0s0.4,0,0.6-0.1c0.2,0,0.4,0,0.6-0.1c0.2,0,0.4-0.1,0.6-0.1c0.1,0,0.2,0,0.3-0.1C88.9,138.9,89,138.8,89.1,138.8
	L89.1,138.8z"/>
<path fill="#F0533A" d="M89.1,146.5c-0.3-0.1-0.5-0.3-0.8-0.4c-0.3-0.2-0.5-0.3-0.8-0.4c-0.3-0.1-0.6-0.1-0.9-0.2
	c-0.3,0-0.6,0-0.9,0s-0.6,0.1-0.9,0.1c-0.3,0.1-0.6,0.2-0.8,0.3c-0.1,0.1-0.3,0.1-0.4,0.2l0,0l0,0l-0.1,0.1c-0.1,0-0.1,0.1-0.2,0.1
	c-0.1,0.1-0.2,0.2-0.3,0.3l-0.1,0.1c0,0,0,0.1-0.1,0.1l0,0l0,0l-0.1,0.1l0,0l0,0c0.5,0.1,1,0.1,1.5,0.1s1,0,1.5,0
	c0.3,0,0.5,0,0.8-0.1c0.3,0,0.5-0.1,0.8,0c0.3,0,0.5,0,0.8,0.1s0.5,0.1,0.7,0.2l0,0c-0.2-0.1-0.5-0.1-0.7-0.2
	c-0.3-0.1-0.5-0.1-0.8-0.1s-0.5,0-0.8,0S86,147,85.7,147c-0.5,0-1,0.1-1.5,0.1s-1,0-1.5-0.1l0,0c0.2-0.2,0.4-0.5,0.6-0.6
	c0.1,0,0.1-0.1,0.2-0.1l0.1-0.1l0,0l0,0c0.1-0.1,0.3-0.1,0.4-0.2c0.3-0.1,0.6-0.2,0.8-0.3c0.3-0.1,0.6-0.1,0.9-0.1s0.6,0,0.9,0
	s0.6,0.1,0.9,0.2c0.1,0,0.3,0.1,0.4,0.1c0,0,0,0,0.1,0l0,0h0.1c0.1,0,0.1,0.1,0.2,0.1C88.6,146.3,88.8,146.4,89.1,146.5L89.1,146.5z
	"/>
<path fill="#F0533A" d="M81.6,147.4c-0.3,0.1-0.7,0.2-1,0.2h-0.1h-0.1c-0.1,0-0.2,0-0.3,0c-0.1,0-0.2,0-0.3,0c-0.1,0-0.2,0-0.3,0
	c-0.4,0-0.7-0.1-1.1-0.1c-0.2,0-0.3-0.1-0.5-0.1s-0.4,0-0.5,0l0,0c0.4,0,0.7,0.1,1.1,0.1h0.1h0.1c0.1,0,0.2,0,0.3,0
	c0.2,0,0.4,0,0.5,0c0.2,0,0.4,0,0.5,0c0.2,0,0.4,0,0.5,0c0.2,0,0.4-0.1,0.5-0.1C81.2,147.5,81.4,147.5,81.6,147.4L81.6,147.4z"/>
<path fill="#F0533A" d="M77.2,153.4c0.2-0.1,0.4-0.1,0.5-0.1c0.2,0,0.4-0.1,0.5-0.1c0.4-0.1,0.7-0.1,1.1-0.1c0.1,0,0.2,0,0.3,0h0.1
	c0,0,0.1,0,0.1,0.1c0.2,0.1,0.3,0.2,0.5,0.3c0.3,0.2,0.6,0.5,0.8,0.7l0,0c-0.3,0-0.5,0-0.8,0s-0.5,0-0.8,0s-0.5,0-0.8,0
	c-0.1,0-0.3,0-0.4,0h-0.4l0,0c0.1,0,0.3,0,0.4,0s0.3,0,0.4,0c0.3,0,0.5,0,0.8,0s0.5,0,0.8,0s0.5,0,0.8,0l0,0l0,0
	c-0.3-0.3-0.6-0.5-0.9-0.7c-0.1-0.1-0.2-0.1-0.2-0.2c-0.1-0.1-0.2-0.1-0.2-0.1c-0.1,0-0.2-0.1-0.3-0.1c-0.1,0-0.2,0-0.3,0
	c-0.4,0-0.7,0-1.1,0.1c-0.2,0-0.4,0.1-0.5,0.1C77.6,153.2,77.4,153.3,77.2,153.4L77.2,153.4z"/>
<path fill="#F0533A" d="M98.4,155.7c0,0.1,0.1,0.2,0.2,0.3s0.2,0.1,0.3,0.2c0.1,0,0.2,0.1,0.4,0.1c0.1,0,0.2,0,0.4,0h0.4
	c0.1,0,0.2,0,0.4,0c0.2,0,0.5,0,0.7,0s0.5,0,0.7,0c0.1,0,0.2,0,0.4,0c0.1,0,0.1,0,0.2,0s0.1,0,0.2-0.1c0.1,0,0.1-0.1,0.2-0.1
	l0.2-0.1c0.1-0.1,0.2-0.1,0.3-0.2c0.2-0.1,0.4-0.2,0.6-0.3l0,0c-0.2,0.1-0.5,0.2-0.7,0.3c-0.1,0-0.2,0.1-0.3,0.1
	c-0.1,0-0.2,0.1-0.3,0.2c-0.1,0-0.1,0-0.2,0.1c-0.1,0-0.1,0-0.2,0s-0.2,0-0.4,0c-0.2,0-0.5,0-0.7,0s-0.5,0-0.7,0c-0.1,0-0.2,0-0.4,0
	h-0.4c-0.1,0-0.2,0-0.4,0c-0.1,0-0.2,0-0.4-0.1s-0.2-0.1-0.3-0.2L98.4,155.7C98.4,155.8,98.4,155.7,98.4,155.7L98.4,155.7z"/>
<path fill="#F0533A" d="M96.4,156.6l-0.1,0.1c0,0-0.1,0-0.2,0s-0.2,0-0.3,0c-0.2,0-0.4,0-0.6,0h-0.6c-0.2,0-0.4,0-0.6,0
	s-0.4,0.1-0.6,0.2c-0.2,0.1-0.3,0.3-0.5,0.4c-0.2,0.1-0.3,0.3-0.5,0.3c-0.1,0-0.2,0.1-0.3,0.1c-0.1,0-0.1,0-0.2,0s-0.1,0-0.2,0l0,0
	c0.1,0,0.2,0.1,0.3,0.1c0.1,0,0.2,0,0.3-0.1c0.2-0.1,0.4-0.2,0.6-0.3s0.3-0.3,0.5-0.4c0.2-0.1,0.4-0.2,0.6-0.3s0.4-0.1,0.6-0.1
	c0.1,0,0.2,0,0.3,0h0.3c0.1,0,0.2,0,0.3,0c0.1,0,0.2,0,0.3,0c0.1,0,0.1,0,0.2,0s0.1,0,0.2,0C96.2,156.8,96.3,156.7,96.4,156.6
	L96.4,156.6z"/>
<path fill="#F0533A" d="M78.1,159.2c-0.1-0.1-0.2-0.1-0.4-0.2c-0.1,0-0.1-0.1-0.2-0.1s-0.1-0.1-0.2-0.1c-0.1-0.1-0.2-0.2-0.3-0.3
	c-0.1,0-0.1-0.1-0.2-0.1s-0.2,0-0.2,0l0,0l0,0c0,0.1,0,0.1,0.1,0.2l0.1,0.1c0.1,0.1,0.1,0.2,0.2,0.2l0,0c-0.1-0.1-0.1-0.2-0.2-0.3
	c0,0,0-0.1-0.1-0.1c0,0,0-0.1-0.1-0.1v0.1c0.1,0,0.1,0,0.2,0s0.1,0.1,0.2,0.1s0.1,0.1,0.2,0.1s0.1,0.1,0.2,0.1s0.1,0.1,0.2,0.1
	s0.1,0.1,0.2,0.1C77.8,159.2,77.9,159.2,78.1,159.2L78.1,159.2z"/>
<path fill="#F0533A" d="M83.8,163.8c0,0.2-0.1,0.5,0,0.7c0,0.2,0.1,0.5,0.1,0.7c0,0.1,0.1,0.2,0.1,0.3s0,0.2,0,0.3s0,0.2-0.1,0.3
	c0,0.1-0.1,0.2-0.2,0.3l0,0c0-0.1,0-0.2-0.1-0.3c0-0.1,0-0.2,0-0.3l0,0c0,0.1,0,0.2,0,0.3s0,0.2,0,0.3l0,0l0,0
	c0.1-0.1,0.2-0.2,0.2-0.3s0.1-0.2,0.1-0.4c0-0.1,0-0.2,0-0.4c0-0.1-0.1-0.2-0.1-0.3c-0.1-0.2-0.1-0.5-0.1-0.7
	C83.8,164.3,83.8,164,83.8,163.8L83.8,163.8z"/>
<path fill="#F0533A" d="M90.7,163.3c0.1,0.2,0.3,0.5,0.4,0.7c0.1,0.1,0.2,0.2,0.3,0.3c0,0,0.1,0,0.1,0.1c0,0,0.1,0,0.1,0.1
	c0.1,0,0.1,0.1,0.2,0.1s0.1,0.1,0.1,0.1c0,0.1,0.1,0.1,0,0.2c0,0.1,0,0.1-0.1,0.1h-0.1l0,0l0,0c-0.1,0-0.3,0-0.4-0.1
	s-0.2-0.2-0.2-0.3l0,0c0,0.1,0,0.1,0,0.2c0,0.1,0.1,0.1,0.1,0.2c0.1,0.1,0.2,0.1,0.4,0.1h0.1c0,0,0,0,0.1,0c0,0,0.1,0,0.1-0.1
	c0.1,0,0.1-0.1,0.1-0.2c0-0.1,0-0.1-0.1-0.2c0-0.1-0.1-0.1-0.1-0.1c-0.1,0-0.1-0.1-0.2-0.1s-0.1-0.1-0.2-0.1
	c-0.1-0.1-0.2-0.2-0.3-0.3C90.9,163.8,90.8,163.6,90.7,163.3L90.7,163.3z"/>
<path fill="#F0533A" d="M95.9,160c-0.1,0.2-0.2,0.4-0.2,0.6v0.2c0,0.1,0,0.1,0,0.2c0,0.1,0,0.2,0,0.3c0,0.2-0.1,0.4-0.1,0.7
	c0,0.2-0.1,0.4-0.2,0.6l0,0c0.1-0.2,0.2-0.4,0.3-0.6c0-0.1,0-0.1,0-0.2v-0.2c0-0.1,0-0.1,0-0.2c0-0.1,0-0.1,0-0.2c0-0.1,0-0.1,0-0.2
	c0-0.1,0-0.1,0-0.2c0-0.1,0-0.1,0-0.2v-0.2C95.8,160.4,95.8,160.2,95.9,160L95.9,160z"/>
<path fill="#F0533A" d="M102.1,159.6c0,0,0.1,0,0.2,0.1c0.1,0,0.1,0,0.2,0s0.2,0,0.3-0.1l0,0l0,0v-0.1v-0.1l-0.1-0.1
	c-0.1,0-0.1,0-0.2,0s-0.1,0-0.2,0c-0.2,0-0.4,0-0.6,0s-0.4,0.1-0.6,0.2c-0.2,0.1-0.4,0.2-0.5,0.4l0,0c0.2-0.1,0.3-0.3,0.5-0.3
	c0,0,0.1,0,0.1-0.1h0.1h0.1c0.1,0,0.1,0,0.2-0.1c0.1,0,0.1,0,0.2,0c0.2,0,0.4-0.1,0.6-0.1c0.1,0,0.1,0,0.2,0s0.1,0,0.1,0.1l0.1,0.1
	v0.1l0,0c-0.1,0.1-0.2,0.1-0.3,0.1c-0.1,0-0.1,0-0.2,0C102.2,159.6,102.2,159.6,102.1,159.6L102.1,159.6z"/>
<path fill="#F0533A" d="M103,163.6c0,0,0,0.1-0.1,0.1c0,0-0.1,0-0.1,0.1l-0.3,0.1l-0.3,0.1c-0.1,0-0.2,0.1-0.3,0.1
	c-0.2,0.1-0.4,0.1-0.5,0.2c-0.1,0-0.2,0.1-0.3,0.1c-0.1,0-0.2,0.1-0.3,0.1h-0.1h-0.1h-0.1h-0.1h-0.1h-0.1c-0.1,0-0.2,0-0.3,0
	c-0.4,0-0.8,0.1-1.2,0l0,0c0.4,0.1,0.8,0.1,1.2,0c0.1,0,0.2,0,0.3,0h0.1h0.1h0.1h0.1h0.1h0.1h0.1h0.1c0.1,0,0.2-0.1,0.3-0.1
	c0.2-0.1,0.4-0.1,0.6-0.2c0.2-0.1,0.4-0.1,0.5-0.2c0.1,0,0.2-0.1,0.3-0.1c0,0,0.1,0,0.1-0.1C103,163.7,103,163.7,103,163.6
	L103,163.6L103,163.6z"/>
<path fill="#F0533A" d="M102.8,164.8L102.8,164.8h-0.2c-0.1,0-0.1,0-0.2,0h-0.1h-0.1c-0.1,0-0.1,0-0.2,0s-0.1,0-0.2,0h-0.1h-0.1
	c-0.1,0-0.3,0.1-0.4,0.2l0,0c0.1,0,0.3-0.1,0.4-0.1l0.4-0.1h0.1h0.1c0.1,0,0.1,0,0.2,0h0.1h0.1C102.7,164.8,102.7,164.8,102.8,164.8
	L102.8,164.8z"/>
<path fill="#F0533A" d="M83.8,172.2c-0.2,0-0.4,0-0.6,0.1H83c-0.1,0-0.1,0-0.2,0s-0.2,0.1-0.3,0.1c-0.2,0-0.4,0.1-0.6,0.1
	s-0.4,0-0.6,0l0,0c0.2,0.1,0.4,0.1,0.6,0c0.1,0,0.1,0,0.2,0s0.1,0,0.2,0s0.1,0,0.2,0s0.1,0,0.2,0s0.2-0.1,0.3-0.1
	c0.1,0,0.2,0,0.3-0.1S83.6,172.2,83.8,172.2L83.8,172.2z"/>
<path fill="#F0533A" d="M86.8,184.5C86.8,184.6,86.8,184.6,86.8,184.5c0,0.1,0,0.1,0.1,0.1c0,0,0,0,0,0.1c0,0,0,0,0,0.1
	c0,0,0,0.1,0.1,0.1c0,0,0,0,0,0.1c0,0,0,0,0,0.1c0,0,0,0,0,0.1c0,0,0,0,0,0.1v0.1c0,0,0,0,0,0.1s0,0.2,0,0.3l0,0c0-0.1,0-0.2,0-0.3
	c0,0,0,0,0-0.1v-0.1c0,0,0,0,0-0.1c0,0,0,0,0-0.1c0,0,0,0,0-0.1c0,0,0,0,0-0.1c0,0,0,0,0-0.1v-0.1c0,0,0-0.1-0.1-0.1
	S86.8,184.6,86.8,184.5C86.8,184.6,86.8,184.5,86.8,184.5L86.8,184.5z"/>
<path fill="#F0533A" d="M80.1,194.3c0.5,0.1,0.9,0.2,1.4,0.2c0.5,0.1,0.9,0.1,1.4,0.2c0.5,0.1,1,0.1,1.4,0c0.5-0.1,0.9-0.2,1.4-0.3
	c0.2-0.1,0.5-0.1,0.7-0.1s0.5,0,0.7,0s0.5,0.1,0.7,0.1c0.2,0.1,0.5,0.1,0.7,0.2c0.4,0.2,0.9,0.3,1.3,0.5c0.2,0.1,0.5,0.1,0.7,0.2
	c0.2,0,0.5,0.1,0.7,0.1l0,0c-0.5,0-0.9-0.1-1.4-0.3s-0.9-0.3-1.3-0.5c-0.5-0.2-0.9-0.3-1.4-0.3c-0.2,0-0.5,0-0.7,0s-0.5,0.1-0.7,0.1
	c-0.5,0.1-0.9,0.3-1.4,0.3c-0.1,0-0.2,0-0.4,0c-0.1,0-0.2,0-0.4,0c-0.2,0-0.5,0-0.7-0.1c-0.2,0-0.5-0.1-0.7-0.1l-0.7-0.1
	C81,194.5,80.5,194.4,80.1,194.3L80.1,194.3z"/>
<path fill="#F0533A" d="M100.3,195.1c-0.4,0.2-0.8,0.3-1.2,0.4h-0.2c-0.1,0-0.1,0-0.2,0h-0.2h-0.1h-0.1c-0.2,0-0.4,0.1-0.6,0.1
	c-0.4,0-0.9,0.1-1.3,0.1h-0.2c-0.1,0-0.1,0-0.2,0h-0.2c-0.1,0-0.1,0-0.2,0h-0.2c-0.1,0-0.1,0-0.2,0H95c-0.1,0-0.1,0-0.2,0
	c-0.4,0.1-0.8,0.3-1.2,0.4c-0.2,0.1-0.4,0.1-0.6,0.1h-0.2h-0.1h-0.1h-0.2h-0.2h-0.1H92h-0.2h-0.2c-0.1,0-0.1,0-0.2,0h-0.2
	c-0.1,0-0.1,0-0.2,0s-0.2,0-0.3,0c-0.1,0-0.2,0-0.3-0.1c-0.1,0-0.2,0-0.3-0.1c-0.2,0-0.4-0.1-0.6-0.1l0,0c0.4,0.1,0.8,0.2,1.3,0.3
	c0.4,0.1,0.9,0.1,1.3,0.1h0.2h0.2h0.1h0.1h0.2c0.2,0,0.4-0.1,0.6-0.1s0.4-0.1,0.6-0.2c0.2-0.1,0.4-0.1,0.6-0.2
	c0.4-0.1,0.8-0.2,1.3-0.3c0.4-0.1,0.9-0.1,1.3-0.1s0.9-0.1,1.3-0.2c0.1,0,0.1,0,0.2,0H99l0,0l0,0h0.1h0.2c0.1,0,0.2-0.1,0.3-0.1
	C100.1,195.2,100.2,195.2,100.3,195.1L100.3,195.1z"/>
</svg>
