<?xml version="1.0" encoding="utf-8"?>
<!-- Generator: Adobe Illustrator 24.2.3, SVG Export Plug-In . SVG Version: 6.00 Build 0)  -->
<svg version="1.1" id="Layer_1" xmlns="http://www.w3.org/2000/svg" xmlns:xlink="http://www.w3.org/1999/xlink" x="0px" y="0px"
	 width="509px" height="821px" viewBox="0 0 509 821" enable-background="new 0 0 509 821" xml:space="preserve">
<!-- <rect id="bg3" x="-0.1" y="0.5" fill="#4775BA" width="509.5" height="820.5"/> -->
<path id="bg2" fill="#ED422E" d="M509.4,821H0.3V580.3c0,0,122.3,9.2,250.3-196.7c52.1-83.9,258.8-31.6,258.8-31.6V821L509.4,821z"
	/>
<path id="bg1" fill="#65373C" d="M0.3,820.5l509.1,0.5V601.6c0,0-220,37.6-319.7,13.2C89.9,590.3,0.3,411.4,0.3,411.4V820.5z"/>
<g id="detail">
	<path fill="#FFFFFF" d="M194.9,523.6c-5.3,8.4-8.5,13.6-8.4,13.6C186.6,537.3,189.8,532,194.9,523.6z"/>
	<path fill="#FFFFFF" d="M202.2,527.9c-4.6,8.7-7.3,14-7.2,14.1C195,542,197.8,536.7,202.2,527.9z"/>
	<path fill="#FFFFFF" d="M209.8,531.7c-3.9,8.9-6.2,14.4-6.1,14.5C203.8,546.2,206.1,540.6,209.8,531.7z"/>
	<path fill="#FFFFFF" d="M188,518.7c-6,8-9.6,13-9.6,13.1S182.2,526.8,188,518.7z"/>
	<path fill="#FFFFFF" d="M163.7,519.3c0.1,0.1,4.4-4.3,11.5-11.5C168.1,514.8,163.7,519.2,163.7,519.3z"/>
	<path fill="#FFFFFF" d="M241.3,555.5c0.1,0,0.7-6.4,1.5-16.7C241.8,549.1,241.1,555.5,241.3,555.5z"/>
	<path fill="#FFFFFF" d="M212.9,549.5c0.1,0,2-5.7,5-15C214.7,543.8,212.8,549.5,212.9,549.5z"/>
	<path fill="#FFFFFF" d="M222.2,552.3c0.1,0,1.6-5.9,3.9-15.6C223.6,546.3,222.1,552.2,222.2,552.3z"/>
	<path fill="#FFFFFF" d="M231.7,554.2c0.1,0,1.1-6.1,2.7-16C232.6,548.1,231.6,554.2,231.7,554.2z"/>
	<path fill="#FFFFFF" d="M142.9,432c-10.2,0.1-16.5,0.2-16.5,0.4C126.4,432.5,132.8,432.3,142.9,432z"/>
	<path fill="#FFFFFF" d="M181.4,513.4c-6.6,7.6-10.6,12.3-10.6,12.4S174.9,521.1,181.4,513.4z"/>
	<path fill="#FFFFFF" d="M145.7,457.2c-9.5,2.4-15.4,3.9-15.3,4C130.4,461.3,136.3,459.7,145.7,457.2z"/>
	<path fill="#FFFFFF" d="M144,448.9c-9.7,1.6-15.7,2.7-15.6,2.8C128.4,451.8,134.3,450.7,144,448.9z"/>
	<path fill="#FFFFFF" d="M142.7,440.5c-9.7,0.9-15.7,1.4-15.7,1.5S133,441.5,142.7,440.5z"/>
	<path fill="#FFFFFF" d="M379.1,436.4c0-0.1-6.4-0.4-16.8-0.9C372.6,436.2,379.1,436.5,379.1,436.4z"/>
	<path fill="#FFFFFF" d="M151.1,504.7c0.1,0.1,5-3.6,13-9.6C156.1,501,151.1,504.6,151.1,504.7z"/>
	<path fill="#FFFFFF" d="M159.6,488c-8.6,5.3-14,8.6-13.9,8.7C145.8,496.8,151.1,493.4,159.6,488z"/>
	<path fill="#FFFFFF" d="M151.2,473.3c-9,3.8-14.6,6.2-14.5,6.3C136.7,479.6,142.3,477.2,151.2,473.3z"/>
	<path fill="#FFFFFF" d="M157.2,512.2c0.1,0.1,4.8-4,12.4-10.7C161.8,508.1,157.1,512.2,157.2,512.2z"/>
	<path fill="#FFFFFF" d="M155.1,480.9c-8.8,4.5-14.2,7.4-14.2,7.5C140.9,488.4,146.4,485.5,155.1,480.9z"/>
	<path fill="#FFFFFF" d="M148.2,465.3c-9.3,3.1-15.1,5-15.1,5.1C133.2,470.6,139,468.6,148.2,465.3z"/>
	<path fill="#FFFFFF" d="M344.4,491c8.2,5.6,13.4,9.1,13.4,9S352.8,496.5,344.4,491z"/>
	<path fill="#FFFFFF" d="M352.9,476.4c8.9,4.3,14.5,6.9,14.5,6.8S361.9,480.5,352.9,476.4z"/>
	<path fill="#FFFFFF" d="M348.9,483.9c8.6,5,14,8,14.1,8S357.6,488.7,348.9,483.9z"/>
	<path fill="#FFFFFF" d="M339.1,522.1c0.1-0.1-4.2-4.6-11.1-11.9C334.8,517.6,339,522.1,339.1,522.1z"/>
	<path fill="#FFFFFF" d="M333.7,504c7.5,7,12.1,11.3,12.2,11.2C346,515.2,341.3,510.9,333.7,504z"/>
	<path fill="#FFFFFF" d="M339.5,497.9c7.8,6.2,12.6,10.1,12.7,10C352.2,507.8,347.3,504,339.5,497.9z"/>
	<path fill="#FFFFFF" d="M376.6,455.5c0-0.1-6-1.4-15.8-3.3C370.5,454.4,376.6,455.6,376.6,455.5z"/>
	<path fill="#FFFFFF" d="M378.2,446c0-0.1-6.2-0.9-16.3-2.1C372,445.3,378.2,446.1,378.2,446z"/>
	<path fill="#FFFFFF" d="M374.2,465c0-0.1-5.8-1.8-15.1-4.4C368.5,463.4,374.2,465,374.2,465z"/>
	<path fill="#FFFFFF" d="M250.8,556c0.1,0,0.2-6.3,0.3-16.4C250.8,549.7,250.7,556,250.8,556z"/>
	<path fill="#FFFFFF" d="M371.2,474.2c0-0.1-5.6-2.2-14.8-5.6C365.5,472.1,371.1,474.3,371.2,474.2z"/>
	<path fill="#FFFFFF" d="M276.3,537.7c2,9.6,3.2,15.5,3.4,15.5C279.8,553.1,278.5,547.2,276.3,537.7z"/>
	<path fill="#FFFFFF" d="M267.9,539c1.2,9.8,2.1,15.8,2.2,15.8S269.4,548.8,267.9,539z"/>
	<path fill="#FFFFFF" d="M284.6,535.6c2.7,9.4,4.4,15.2,4.5,15.2C289.2,550.7,287.5,544.9,284.6,535.6z"/>
	<path fill="#FFFFFF" d="M259.5,539.7c0.5,10,0.9,16.1,1,16.1S260.2,549.6,259.5,539.7z"/>
	<path fill="#FFFFFF" d="M292.6,532.8c3.4,9.2,5.6,14.8,5.7,14.8C298.4,547.5,296.2,541.9,292.6,532.8z"/>
	<path fill="#FFFFFF" d="M307.8,525.3c4.9,8.6,7.9,14,8,13.9S312.8,533.9,307.8,525.3z"/>
	<path fill="#FFFFFF" d="M314.7,520.5c5.6,8.5,9.2,13.7,9.3,13.6S320.5,528.8,314.7,520.5z"/>
	<path fill="#FFFFFF" d="M300.4,529.4c4.1,8.9,6.8,14.4,6.8,14.3C307.3,543.7,304.7,538.2,300.4,529.4z"/>
	<path fill="#FFFFFF" d="M331.8,528.4c0.1-0.1-3.9-5-10.2-12.8C327.8,523.5,331.7,528.5,331.8,528.4z"/>
	<path fill="#FFFFFF" d="M229.4,321.7c-2-9.7-3.3-15.6-3.4-15.6S227.2,312.1,229.4,321.7z"/>
	<path fill="#FFFFFF" d="M274,305c-0.1,0-1.1,6.1-2.7,16C273,311.1,274.1,305,274,305z"/>
	<path fill="#FFFFFF" d="M324.3,345.8c6.6-7.6,10.6-12.3,10.5-12.4C334.7,333.4,330.7,338.1,324.3,345.8z"/>
	<path fill="#FFFFFF" d="M310.9,335.5c5.2-8.3,8.4-13.4,8.3-13.5C319.1,322,315.9,327.1,310.9,335.5z"/>
	<path fill="#FFFFFF" d="M341.9,340c-0.1-0.1-4.4,4.3-11.3,11.4C337.6,344.4,342,340,341.9,340z"/>
	<path fill="#FFFFFF" d="M348.5,347c-0.1-0.1-4.8,4-12.4,10.7C343.8,351.2,348.5,347.1,348.5,347z"/>
	<path fill="#FFFFFF" d="M295.9,327.5c3.8-8.9,6.2-14.4,6.1-14.4S299.5,318.6,295.9,327.5z"/>
	<path fill="#FFFFFF" d="M283.5,307c-0.1,0-1.5,5.9-3.8,15.4C282.1,312.9,283.6,307,283.5,307z"/>
	<path fill="#FFFFFF" d="M292.8,309.7c-0.1,0-2,5.7-5,15C291,315.5,292.9,309.7,292.8,309.7z"/>
	<path fill="#FFFFFF" d="M354.5,354.6c-0.1-0.1-5,3.6-13,9.6C349.6,358.3,354.6,354.6,354.5,354.6z"/>
	<path fill="#FFFFFF" d="M303.5,331.3c4.6-8.6,7.3-14,7.2-14.1C310.6,317.2,307.9,322.6,303.5,331.3z"/>
	<path fill="#FFFFFF" d="M317.7,340.5c6-8,9.6-13,9.5-13.1C327.1,327.4,323.5,332.4,317.7,340.5z"/>
	<path fill="#FFFFFF" d="M362.7,427.2c10.2-0.1,16.5-0.2,16.5-0.4C379.2,426.8,372.9,426.9,362.7,427.2z"/>
	<path fill="#FFFFFF" d="M361.4,410.4c9.8-1.6,15.9-2.7,15.9-2.8C377.3,407.5,371.2,408.6,361.4,410.4z"/>
	<path fill="#FFFFFF" d="M362.7,418.8c9.8-0.9,15.9-1.5,15.9-1.6C378.6,417.1,372.5,417.7,362.7,418.8z"/>
	<path fill="#FFFFFF" d="M295,430.3c0-0.1-3.2-0.3-8.8-0.5c28.6-1,58.6-2,76.5-2.6c-17.8,0.2-47.3,0.5-75.7,0.7
		c5-0.5,7.9-0.8,7.9-0.8c0-0.1-3.4,0-9.2,0.1c28.8-3.2,59.1-6.6,77-8.5c-17.6,1.6-47.3,4.1-75.8,6.5c4.9-0.8,7.6-1.3,7.6-1.4
		s-3.3,0.2-8.8,0.8c28.3-5.4,58-11,75.6-14.3c-17.5,2.9-47.1,7.8-75.3,12.4c5-1.3,8-2,7.9-2.1s-3,0.5-8.3,1.4
		c27.9-7.6,57-15.5,74.2-20.1c-17.3,4.3-46.8,11.5-74.9,18.4c5.2-1.8,8.2-2.8,8.2-2.9s-2.8,0.6-7.5,1.9c27-9.6,55-19.6,71.7-25.5
		c-17.1,5.7-46.1,15.2-73.8,24.2c5.4-2.3,8.5-3.6,8.5-3.7s-2.6,0.8-7,2.3c26-11.6,52.9-23.6,69-30.7c-16.7,7-45,18.7-71.8,29.9
		c5.4-2.8,8.5-4.5,8.5-4.5s-2.5,1-6.6,2.8c25-13.5,50.9-27.5,66.4-35.8c-16.1,8.2-43.4,22.1-69.3,35.3c5.1-3.2,8.1-5.1,8.1-5.1
		c0-0.1-2.4,1.2-6.5,3.4c23.9-15.4,48.7-31.4,63.5-40.9c-15.3,9.4-41.3,25.3-66.1,40.3c4.7-3.4,7.5-5.5,7.4-5.5
		c0-0.1-2.5,1.4-6.6,4.1c22.7-17.2,46.3-35.1,60.5-45.8c-14.5,10.5-39,28.2-62.5,45c4.3-3.6,6.8-5.8,6.7-5.9s-2.5,1.7-6.7,4.9
		c21.4-18.9,43.7-38.7,57-50.5c-13.6,11.5-36.5,30.8-58.4,49.2c3.8-3.8,5.9-6,5.9-6s-2.5,2-6.5,5.6c20-20.7,41-42.3,53.5-55.1
		c-12.6,12.5-33.9,33.4-54.3,53.4c3.3-3.8,5.2-6.1,5.1-6.1c0,0-2.4,2.3-6.4,6.4c18.4-22.2,37.7-45.4,49.3-59.2
		c-11.6,13.4-31,35.6-49.7,57c2.9-3.9,4.5-6.2,4.5-6.2c-0.1,0-2.3,2.6-6.1,7.1c16.7-23.6,34.3-48.4,44.8-63.1
		c-10.5,14.2-28.2,37.7-45.1,60.5c2.5-4,3.9-6.3,3.8-6.3s-2.1,2.7-5.5,7.5c15-25,30.8-51.3,40-66.7c-9.4,14.9-25.3,40-40.6,64.1
		c2.2-4.2,3.4-6.6,3.4-6.7c-0.1,0-1.8,2.8-4.8,7.7c13-26,26.6-53.3,34.7-69.3c-8.2,15.6-22.3,42-35.8,67.3c1.9-4.5,3-7.2,3-7.2
		c-0.1,0-1.5,2.8-4,7.7c10.9-26.9,22.4-55.1,29.2-71.6c-7,16.3-19.1,44-30.7,70.5c1.7-5,2.6-7.9,2.6-7.9c-0.1,0-1.2,2.7-3.2,7.4
		c8.7-27.4,17.9-56,23.3-72.9c-5.8,16.9-15.8,45.7-25.3,73.1c1.4-5.4,2.2-8.6,2.1-8.6s-1,2.6-2.5,7.2c6.6-27.9,13.4-56.8,17.5-74
		c-4.5,17.4-12.3,47-19.7,75.1c1-5.8,1.6-9.1,1.5-9.1s-0.8,2.6-1.9,7.3c4.4-28.1,9-57.3,11.7-74.7c-3.2,17.7-8.6,47.5-13.8,76
		c0.6-5.7,0.9-9.1,0.8-9.1s-0.6,3-1.4,8.1c2.2-28.2,4.6-57.7,6-75.5c-1.8,17.8-4.9,47.2-7.8,75.3c0.1-5.2,0.1-8.2,0.1-8.2
		c-0.1,0-0.4,3.4-0.9,9.2c0.1-28.7,0.2-58.8,0.4-76.9c-0.4,17.6-1.3,46.7-2.1,74.8c-0.2-4.6-0.4-7.2-0.5-7.2s-0.1,3.8-0.2,10.2
		c-2.1-29.1-4.4-60-5.6-78.1c0.9,17.4,2.2,46.5,3.6,74.6c-0.6-4.1-0.9-6.5-0.9-6.5c-0.1,0,0.1,3.9,0.6,10.4
		c-4.4-29-9-59.8-11.6-77.8c2.2,17.3,5.8,46.3,9.3,74.3c-0.9-4.1-1.4-6.5-1.5-6.5s0.4,3.6,1.3,9.9c-6.6-28.5-13.5-58.6-17.5-76.3
		c3.6,17.2,9.4,46.1,15.1,73.9c-1.3-4.3-2-6.8-2.1-6.8s0.6,3.4,1.9,9.2c-8.7-27.9-17.9-57.2-23.2-74.4c4.9,16.9,13.1,45.6,21,73.2
		c-1.7-4.5-2.7-7.1-2.8-7.1s0.8,3.1,2.4,8.4c-10.8-26.9-22.1-55.1-28.7-71.8c6.2,16.6,16.7,44.8,26.7,71.9c-2.2-4.6-3.5-7.3-3.5-7.3
		c-0.1,0,1,2.9,2.9,7.8c-12.7-25.9-26.1-52.9-33.9-68.9c7.5,16.2,20.2,43.6,32.3,69.8c-2.6-4.7-4.2-7.4-4.3-7.3
		c-0.1,0,1.2,2.8,3.5,7.4c-14.6-24.6-29.7-50.2-38.8-65.6c8.8,15.6,23.4,41.9,37.4,67c-3.1-4.6-4.9-7.2-4.9-7.2
		c-0.1,0,1.4,2.6,4,7.1c-16.4-23.4-33.5-47.8-43.6-62.4c9.9,14.9,26.5,39.9,42.3,63.7c-3.3-4.2-5.3-6.6-5.3-6.6
		c-0.1,0,1.7,2.7,4.8,7.1c-18.2-22.2-37.2-45.4-48.6-59.3c11,14,29.2,37.5,46.8,60c-3.4-3.7-5.5-5.9-5.5-5.8c-0.1,0,2,2.6,5.6,7
		C211.3,383.9,190.4,362,178,349c12,13,31.9,35,51,56c-3.6-3.3-5.6-5.2-5.7-5.1c-0.1,0,2.3,2.6,6.3,6.9
		c-21.5-19.3-44.2-39.6-57.6-51.8c12.9,12,34.2,32.3,54.8,51.7c-3.6-2.9-5.7-4.5-5.8-4.5c-0.1,0.1,2.6,2.5,7.1,6.6
		c-23.1-17.7-47.4-36.4-61.7-47.5c13.7,11,36.5,29.5,58.5,47.3c-3.7-2.5-5.9-3.9-5.9-3.9c-0.1,0.1,2.8,2.3,7.6,6
		c-24.4-16-50.2-32.8-65.3-42.7c14.5,9.9,38.8,26.7,62.2,42.8c-3.9-2.3-6.2-3.5-6.3-3.5c0,0.1,2.9,2,7.8,5.3
		c-25.5-14-52.4-28.7-68.2-37.5c15.3,8.8,40.9,23.7,65.5,38.1c-4.2-2-6.7-3.1-6.7-3.1c0,0.1,2.9,1.7,7.8,4.5
		c-26.5-12-54.3-24.6-70.7-32c15.9,7.6,42.9,20.7,68.8,33.2c-4.6-1.8-7.3-2.8-7.3-2.7c0,0.1,2.8,1.4,7.7,3.7
		c-27.2-9.9-55.7-20.1-72.4-26.3c16.6,6.4,44.8,17.5,71.7,28c-5.1-1.5-8.1-2.4-8.1-2.3s2.7,1.1,7.4,2.8
		c-27.6-7.6-56.4-15.6-73.4-20.4c17.2,5.2,46.4,14.1,74.2,22.5c-5.7-1.2-9-1.9-9-1.8s2.6,0.8,7.1,2.1c-27.9-5.5-56.8-11.1-74.1-14.6
		c17.7,3.9,47.5,10.5,75.8,16.8c-5.9-0.8-9.4-1.2-9.4-1.2c0,0.1,2.7,0.6,7.3,1.6c-28.2-3.3-57.5-6.8-75.1-8.9
		c17.8,2.5,47.8,6.8,76.4,10.9c-5.7-0.3-9.1-0.5-9.1-0.4s3,0.5,8.2,1.1c-28.3-1.2-57.8-2.4-75.7-3.2c17.9,1.1,47.6,3.1,75.9,5
		c-5.5,0.1-8.7,0.2-8.7,0.2c0,0.1,3.3,0.2,8.9,0.5c-28.7,1-58.7,2-76.7,2.6c17.8-0.2,47.3-0.5,75.7-0.7c-5,0.5-7.9,0.8-7.9,0.8
		c0,0.1,3.3,0,9-0.1c-28.9,3.2-59.2,6.6-77.1,8.5c17.6-1.6,47.4-4.1,76-6.5c-4.8,0.8-7.6,1.3-7.6,1.4s3.2-0.2,8.8-0.8
		c-28.4,5.4-58.2,11.1-75.8,14.4c17.5-2.9,47.1-7.8,75.5-12.4c-5,1.3-7.9,2-7.9,2.1s3-0.5,8.2-1.4c-27.8,7.5-56.9,15.5-74.1,20
		c17.3-4.3,46.8-11.5,74.9-18.3c-5.2,1.8-8.2,2.8-8.2,2.9s2.8-0.6,7.5-1.9c-26.9,9.6-55,19.6-71.7,25.5
		c17.1-5.7,46.1-15.2,73.8-24.2c-5.4,2.3-8.6,3.6-8.5,3.7c0,0.1,2.5-0.8,6.9-2.3c-26,11.6-53.1,23.7-69.1,30.8
		c16.6-7,45-18.8,71.9-30c-5.3,2.8-8.4,4.4-8.4,4.5s2.4-1,6.6-2.8c-25,13.5-50.9,27.5-66.4,35.8c16.1-8.2,43.4-22.1,69.3-35.3
		c-5.1,3.2-8.2,5.1-8.1,5.1c0,0.1,2.4-1.2,6.6-3.4c-23.7,15.3-48.4,31.2-63.3,40.7c15.4-9.5,41.3-25.2,65.9-40.2
		c-4.8,3.5-7.6,5.5-7.5,5.6c0,0.1,2.5-1.5,6.6-4.1c-22.7,17.2-46.4,35.2-60.5,45.8c14.5-10.5,39-28.1,62.4-45
		c-4.3,3.6-6.7,5.8-6.7,5.8c0.1,0.1,2.5-1.7,6.7-4.9c-21.4,18.9-43.6,38.7-57,50.4c13.6-11.6,36.5-30.8,58.4-49.2
		c-3.8,3.8-6,6-5.9,6s2.5-2,6.6-5.7c-20,20.6-40.9,42.2-53.4,55c12.6-12.5,33.9-33.3,54.3-53.3c-3.3,3.9-5.3,6.1-5.2,6.2
		c0.1,0,2.4-2.3,6.4-6.4c-18.4,22.2-37.7,45.4-49.3,59.2c11.6-13.4,31.1-35.6,49.8-57c-2.9,3.9-4.6,6.2-4.5,6.3
		c0.1,0,2.3-2.6,6.1-7.1c-16.8,23.6-34.4,48.5-44.9,63.1c10.5-14.1,28.1-37.7,45.1-60.4c-2.5,4-3.9,6.3-3.8,6.3s2.1-2.8,5.6-7.6
		c-14.9,24.9-30.7,51.1-40,66.6c9.4-14.9,25.3-40,40.6-64c-2.2,4.2-3.5,6.7-3.4,6.8c0.1,0,1.8-2.8,4.8-7.7
		c-13,26-26.6,53.3-34.7,69.3c8.2-15.6,22.3-42,35.7-67.3c-1.9,4.5-3,7.2-3,7.2c0.1,0,1.5-2.8,4-7.6c-10.9,26.9-22.3,55-29.1,71.5
		c7-16.3,19.1-44,30.7-70.5c-1.7,5-2.6,7.9-2.6,7.9c0.1,0,1.2-2.7,3.2-7.5c-8.8,27.4-17.9,56.1-23.3,72.9
		c5.8-16.9,15.8-45.7,25.3-73.1c-1.4,5.4-2.2,8.6-2.1,8.6c0.1,0,1-2.6,2.5-7.3c-6.6,27.8-13.4,56.6-17.5,73.8
		c4.5-17.4,12.3-46.9,19.7-74.9c-1,5.8-1.6,9.1-1.5,9.2c0.1,0,0.8-2.7,1.9-7.4c-4.4,28.1-9,57.3-11.8,74.8
		c3.2-17.7,8.6-47.6,13.8-76c-0.6,5.8-0.9,9.1-0.8,9.1s0.6-3,1.4-8.1c-2.2,28.2-4.6,57.6-6.1,75.5c1.8-17.8,4.9-47.1,7.8-75.3
		c-0.1,5.2-0.1,8.2-0.1,8.2c0.1,0,0.4-3.4,0.9-9.2c-0.1,28.8-0.2,59.1-0.4,77.1c0.4-17.6,1.3-46.8,2.1-75c0.2,4.5,0.4,7.1,0.5,7.1
		s0.1-3.8,0.2-10.2c2.1,29.2,4.4,60,5.6,78.1c-0.9-17.4-2.2-46.5-3.6-74.6c0.5,4.1,0.9,6.5,1,6.4c0.1,0-0.1-3.8-0.6-10.3
		c4.4,29,9,59.7,11.6,77.7c-2.2-17.3-5.8-46.3-9.3-74.3c0.9,4.1,1.4,6.4,1.5,6.4s-0.4-3.7-1.3-9.9c6.6,28.6,13.5,58.8,17.5,76.4
		c-3.6-17.2-9.4-46.1-15.1-74c1.3,4.3,2,6.7,2.1,6.7s-0.6-3.4-1.9-9.2c8.7,27.8,17.9,57.1,23.2,74.3c-4.9-17-13.1-45.6-20.9-73.2
		c1.7,4.5,2.7,7.1,2.8,7.1c0.1,0-0.9-3.1-2.5-8.5c10.8,26.9,22.1,55.2,28.7,71.8c-6.2-16.6-16.7-44.9-26.7-71.9
		c2.2,4.7,3.5,7.4,3.6,7.3s-1-2.9-3-7.8c12.7,25.9,26.1,52.9,33.9,68.9c-7.5-16.2-20.2-43.6-32.3-69.8c2.6,4.7,4.2,7.4,4.3,7.3
		c0.1,0-1.2-2.7-3.4-7.3c14.6,24.7,29.8,50.4,38.8,65.7c-8.8-15.6-23.5-42-37.5-67.2c3.1,4.6,4.9,7.2,5,7.2s-1.4-2.7-4.1-7.2
		c16.3,23.3,33.4,47.7,43.6,62.4c-10-14.9-26.5-39.8-42.2-63.6c3.4,4.2,5.3,6.7,5.4,6.7s-1.7-2.7-4.8-7.1
		c18.2,22.1,37.2,45.3,48.5,59.2c-11-14-29.2-37.5-46.7-59.9c3.5,3.8,5.5,5.9,5.6,5.9s-2-2.7-5.6-7.1c20,20.9,40.9,42.8,53.3,55.8
		c-12-13-31.9-35-51-56c3.5,3.3,5.6,5.2,5.7,5.1c0,0-2.3-2.6-6.4-6.9c21.4,19.2,44,39.4,57.4,51.6c-12.9-12.1-34.2-32.2-54.7-51.5
		c3.7,2.9,5.8,4.6,5.8,4.5s-2.6-2.5-7.1-6.6c23.1,17.7,47.4,36.4,61.7,47.5c-13.7-11-36.5-29.5-58.5-47.3c3.7,2.5,5.9,4,5.9,3.9
		s-2.8-2.3-7.6-6.1c24.4,15.9,50,32.7,65.2,42.6c-14.5-9.9-38.7-26.6-62-42.7c4,2.2,6.2,3.5,6.2,3.5c0-0.1-2.9-2-7.8-5.3
		c25.5,14,52.2,28.6,68.1,37.4c-15.3-8.8-40.9-23.7-65.5-38c4.3,2,6.8,3.2,6.9,3.1c0-0.1-2.9-1.7-7.9-4.5c26.4,12,54.2,24.5,70.5,32
		c-16-7.6-42.8-20.6-68.6-33.1c4.6,1.8,7.3,2.8,7.3,2.7c0-0.1-2.8-1.4-7.7-3.7c27.2,9.8,55.6,20.1,72.4,26.3
		c-16.6-6.4-44.8-17.5-71.7-28c5.1,1.5,8.1,2.4,8.1,2.3s-2.6-1.1-7.3-2.8c27.7,7.7,56.6,15.7,73.6,20.5
		c-17.2-5.2-46.4-14.1-74.3-22.6c5.6,1.2,8.9,1.9,8.9,1.8s-2.6-0.8-7.1-2.1c27.9,5.5,56.8,11.1,74.1,14.6
		c-17.7-3.9-47.5-10.5-75.8-16.8c5.9,0.8,9.4,1.2,9.4,1.2c0-0.1-2.7-0.6-7.3-1.6c28.1,3.3,57.3,6.7,74.9,8.9
		c-17.9-2.5-47.8-6.8-76.3-10.9c5.8,0.4,9.1,0.5,9.1,0.4s-3-0.5-8.1-1.1c28.2,1.2,57.7,2.4,75.6,3.2c-17.8-1.1-47.3-3.1-75.5-5
		C292,430.5,295,430.4,295,430.3z"/>
	<path fill="#FFFFFF" d="M359.9,402c9.5-2.4,15.4-3.9,15.3-4C375.2,398,369.4,399.5,359.9,402z"/>
	<path fill="#FFFFFF" d="M354.2,386c9.1-3.8,14.8-6.2,14.8-6.3C368.9,379.6,363.3,382,354.2,386z"/>
	<path fill="#FFFFFF" d="M346.3,371.1c8.5-5.2,13.7-8.4,13.6-8.5C359.9,362.5,354.7,365.7,346.3,371.1z"/>
	<path fill="#FFFFFF" d="M350.6,378.4c8.8-4.5,14.2-7.4,14.2-7.5C364.7,370.9,359.3,373.7,350.6,378.4z"/>
	<path fill="#FFFFFF" d="M357.4,393.9c9.4-3.1,15.1-5.1,15.1-5.1C372.4,388.7,366.6,390.6,357.4,393.9z"/>
	<path fill="#FFFFFF" d="M166.6,337.2c-0.1,0.1,4.2,4.6,11.1,11.9C170.9,341.7,166.7,337.1,166.6,337.2z"/>
	<path fill="#FFFFFF" d="M156.7,375.3c-8.6-4.9-13.9-8-13.9-7.9C142.7,367.5,148,370.5,156.7,375.3z"/>
	<path fill="#FFFFFF" d="M161.1,368.1c-8.1-5.6-13.2-9-13.3-8.9C147.8,359.3,152.9,362.7,161.1,368.1z"/>
	<path fill="#FFFFFF" d="M171.8,355c-7.3-6.9-11.9-11.1-11.9-11C159.8,344.1,164.3,348.3,171.8,355z"/>
	<path fill="#FFFFFF" d="M264.4,303.8c-0.1,0-0.7,6.4-1.5,16.7C263.9,310.2,264.5,303.8,264.4,303.8z"/>
	<path fill="#FFFFFF" d="M166.2,361.4c-7.8-6.2-12.6-10.1-12.7-10C153.5,351.4,158.3,355.2,166.2,361.4z"/>
	<path fill="#FFFFFF" d="M134.5,385c0,0.1,5.6,2.2,14.8,5.6C140.2,387.1,134.6,384.9,134.5,385z"/>
	<path fill="#FFFFFF" d="M126.6,422.8c0,0.1,6.4,0.4,16.8,0.9C133.1,423,126.6,422.7,126.6,422.8z"/>
	<path fill="#FFFFFF" d="M129.1,403.7c0,0.1,6,1.4,15.8,3.3C135.2,404.9,129.1,403.6,129.1,403.7z"/>
	<path fill="#FFFFFF" d="M127.5,413.2c0,0.1,6.1,0.9,16.1,2.1C133.6,414,127.5,413.1,127.5,413.2z"/>
	<path fill="#FFFFFF" d="M131.4,394.3c0,0.1,5.8,1.8,15.4,4.5C137.3,395.9,131.5,394.2,131.4,394.3z"/>
	<path fill="#FFFFFF" d="M152.6,382.8c-8.8-4.2-14.3-6.8-14.3-6.7C138.3,376.2,143.7,378.7,152.6,382.8z"/>
	<path fill="#FFFFFF" d="M246.2,319.6c-0.5-10-0.9-16.1-1-16.1C245.1,303.5,245.5,309.6,246.2,319.6z"/>
	<path fill="#FFFFFF" d="M221.1,323.6c-2.7-9.4-4.4-15.1-4.5-15.1C216.4,308.5,218.2,314.3,221.1,323.6z"/>
	<path fill="#FFFFFF" d="M237.7,320.3c-1.3-9.8-2.1-15.9-2.2-15.9C235.5,304.4,236.3,310.5,237.7,320.3z"/>
	<path fill="#FFFFFF" d="M254.9,303.2c-0.1,0-0.2,6.4-0.3,16.6C254.9,309.6,255,303.2,254.9,303.2z"/>
	<path fill="#FFFFFF" d="M198,334.1c-4.9-8.8-8-14.2-8.1-14.1S192.9,325.5,198,334.1z"/>
	<path fill="#FFFFFF" d="M213,326.4c-3.4-9.1-5.6-14.7-5.7-14.7S209.4,317.3,213,326.4z"/>
	<path fill="#FFFFFF" d="M173.9,330.9c-0.1,0.1,3.8,4.9,10.2,12.7C177.9,335.7,174,330.8,173.9,330.9z"/>
	<path fill="#FFFFFF" d="M190.8,338.6c-5.6-8.4-9.1-13.5-9.2-13.5C181.6,325.2,185.1,330.3,190.8,338.6z"/>
	<path fill="#FFFFFF" d="M205.3,329.9c-4.1-8.9-6.8-14.4-6.8-14.4C198.3,315.5,201,321,205.3,329.9z"/>
</g>
<g id="sky">
	<polygon fill="#FFFFFF" points="309.1,224.9 304.5,221.9 300,224.9 302.9,220.3 300,215.8 304.5,218.7 309.1,215.8 306.1,220.6 	
		"/>
	<polygon fill="#FFFFFF" points="311.7,220.3 305.1,221 304.5,227.5 303.9,221 297.4,220.3 303.9,219.7 304.5,213.2 305.5,220 	"/>
	<polygon fill="#FFFFFF" points="249.9,269 245.4,266 240.8,269 243.8,264.4 240.8,259.8 245.4,262.8 249.9,259.8 247,264.7 	"/>
	<polygon fill="#FFFFFF" points="252.5,264.4 246,265 245.4,271.5 244.7,265 238.2,264.4 244.7,263.8 245.4,257.2 246.4,264.1 	"/>
	<polygon fill="#FFFFFF" points="404.4,292.8 397.9,293.4 397.3,299.9 396.7,293.4 390.1,292.8 396.7,292.2 397.3,285.6 
			398.3,292.5 		"/>
	<polygon fill="#E8D6AB" points="117.3,204.9 115.1,203.4 112.8,204.9 114.3,202.6 112.8,200.3 115.1,201.8 117.3,200.3 
		115.9,202.7 	"/>
	<polygon fill="#FFFFFF" points="118.7,202.6 115.4,202.9 115.1,206.2 114.8,202.9 111.5,202.6 114.8,202.3 115.1,199 115.6,202.5 	
		"/>
	<polygon fill="#FFFFFF" points="179.4,173 177.1,171.5 174.8,173 176.3,170.7 174.8,168.4 177.1,169.9 179.4,168.4 177.9,170.9 	
		"/>
	<polygon fill="#FFFFFF" points="180.6,170.7 177.4,171 177.1,174.3 176.8,171 173.5,170.7 176.8,170.4 177.1,167.1 177.6,170.6 	
		"/>
	<polygon fill="#FFFFFF" points="108.5,273.5 104,270.5 99.4,273.5 102.4,269 99.4,264.4 104,267.4 108.5,264.4 105.6,269.2 	"/>
	<polygon fill="#FFFFFF" points="131,160.8 124.4,161.4 123.8,167.9 123.2,161.4 116.7,160.8 123.2,160.1 123.8,153.6 124.8,160.4 	
		"/>
	<polygon fill="#FFFFFF" points="199,188.4 192,189.1 191.3,196.1 190.6,189.1 183.6,188.4 190.6,187.7 191.3,180.7 192.4,188.1 	
		"/>
	<polygon fill="#FFFFFF" points="294,131.1 287,131.7 286.3,138.8 285.6,131.7 278.6,131.1 285.6,130.4 286.3,123.3 287.4,130.7 	
		"/>
	<polygon fill="#FFFFFF" points="332.9,292.8 325.9,293.5 325.2,300.5 324.5,293.5 317.5,292.8 324.5,292.1 325.2,285.1 
		326.3,292.5 	"/>
	<polygon fill="#FFFFFF" points="405,178.8 398,179.4 397.3,186.5 396.6,179.4 389.6,178.8 396.6,178.1 397.3,171.1 398.4,178.4 	
		"/>
	<polygon fill="#FFFFFF" points="68.3,183.9 63.8,180.9 59.3,183.9 62.2,179.4 59.3,174.9 63.8,177.8 68.3,174.9 65.4,179.6 	"/>
	<polygon fill="#FFFFFF" points="410.1,233 405.6,230.1 401,233 404,228.5 401,223.9 405.6,226.9 410.1,223.9 407.2,228.7 	"/>
</g>
<g id="char">
	<path fill="#E8D6AB" d="M269.5,633.4c1.2,0.2,1.7,0.2,1.2,0c0.1,0.1,0.2,0.1,0.4,0.2c0,0,0,0-0.1,0c0.1,0.1,0.2,0.2,0.3,0.3
		c-0.1-0.1-0.3-0.3-0.4-0.4c-0.3-0.2-0.6-0.2-0.9-0.3c-0.1,0-0.3,0-0.4,0c-0.2,0-0.4,0-0.6,0s-0.5-0.1,0.1,0c-0.3,0-0.5,0-0.8-0.1
		c-0.3,0-0.6-0.1-0.9-0.2c-0.4,0-0.9,0-1.3,0c0.6,0,0.2,0,0,0c-0.1,0-0.4-0.1,0.1,0c-0.2,0-0.4-0.1-0.6-0.1
		c-0.7-0.1-1.4-0.1-2.1-0.1c-1.6,0-3.5,0.6-4.2,2.1c-0.5,1.1-0.6,2.2-0.6,3.4c0,0.5,0.1,1,0,1.5c0,0.4-0.1,0.8-0.1,1.2
		c0,0.5,0,1,0.1,1.5c0.2,0.6,0.6,1.1,1.2,1.3c0.4,0.2,0.9,0.3,1.4,0.3c0.1,0,0.2,0,0.4,0c0.3,0-0.4-0.1-0.1,0c0.1,0,0.2,0,0.2,0.1
		c0.5,0.2,1,0.3,1.6,0.5c1.4,0.3,2.9,0.3,4.4,0.3c0.8,0,1.6,0,2.4-0.2c0.9-0.2,1.7-0.7,2.4-1.2c0.5-0.4,1-0.9,1.2-1.5
		c0.1-0.4,0.2-0.7,0.1-1.1c-0.2-0.7-0.9-0.9-1.6-1c-0.5-0.1-1.1,0.1-1.6,0.3c-0.4,0.2-0.9,0.5-1,0.9c-0.1,0.3-0.2,0.8,0.1,1
		c0.3,0.3,0.7,0.5,1.1,0.5c-0.4-0.1-0.5-0.1-0.3,0c-0.1-0.1-0.3-0.1-0.4-0.2c0,0,0,0,0.1,0l-0.3-0.3c0,0,0,0,0,0.1
		c0-0.1-0.1-0.2-0.2-0.3v0.1c0-0.1,0-0.2,0-0.4c0,0.1,0,0.1,0,0.2c0-0.1,0.1-0.2,0.1-0.4c0,0.2-0.1,0.3-0.2,0.4l0.2-0.3
		c-0.1,0.1-0.2,0.2-0.2,0.3c-0.1,0.2,0.2-0.2,0.2-0.2c0,0.1-0.2,0.2-0.3,0.2c-0.1,0.1-0.2,0.1-0.3,0.2c0.5-0.3,0.3-0.2,0.1-0.1
		c0,0-0.1,0-0.2,0.1c-0.2,0.1-0.1,0,0.3-0.1c-0.1,0-0.2,0.1-0.3,0.1c0.5-0.2,0.4-0.1,0.2,0c-0.1,0-0.2,0-0.4,0c-0.2,0-0.4,0-0.7,0
		c-0.1,0-0.3,0-0.4,0c-0.2,0-0.1,0,0.2,0c-0.1,0-0.1,0-0.2,0c-0.2,0-0.5,0-0.7,0c-0.5,0-0.9,0-1.4-0.1c-0.1,0-0.2,0-0.3,0
		c-0.1,0-0.5-0.2,0,0c-0.2-0.1-0.4-0.1-0.6-0.2c-0.4-0.1-0.8-0.3-1.2-0.4c-0.3-0.1-0.6-0.2-1-0.2c-0.1,0-0.2,0-0.4,0
		c-0.2,0-0.1,0,0.2,0c-0.1,0-0.1,0-0.2-0.1c0.1,0.1,0.3,0.1,0.4,0.2c-0.1,0-0.2-0.1-0.3-0.2c0.1,0.1,0.2,0.2,0.3,0.3
		c-0.1-0.1-0.2-0.2-0.2-0.3c0,0.1,0.1,0.2,0.2,0.3c-0.1-0.3-0.2-0.6-0.2-0.9c0,0.1,0,0.2,0,0.4c0-0.8,0.1-1.6,0-2.3
		c0-1.1-0.2-2.2,0.2-3.2c0,0.1-0.1,0.2-0.1,0.4c0.1-0.3,0.2-0.7,0.4-0.9c-0.1,0.1-0.2,0.2-0.2,0.3l0.1-0.1c0.2-0.2-0.4,0.3-0.2,0.2
		c0.2-0.2-0.4,0.2-0.2,0.1c0.1,0,0.1,0,0.2-0.1c-0.5,0.3-0.4,0.1-0.2,0.1c0.4-0.1-0.5,0-0.2,0c0.1,0,0.3,0,0.5,0c0.1,0,0.2,0,0.3,0
		h0.1c0.1,0,0.1,0-0.3,0c0.1,0,0.3,0,0.4,0c0.2,0,0.3,0,0.5,0.1c0.1,0,0.3,0.1,0,0c-0.2,0-0.2,0-0.1,0c0.2,0,0.3,0.1,0.5,0.1
		c0.5,0.1,1,0.1,1.5,0.1c0.1,0,0.2,0,0.2,0c-0.6,0-0.3,0-0.1,0c0.2,0,0.4,0.1,0.5,0.1c0.3,0.1,0.7,0.1,1,0.1s0.6,0,1,0
		c-0.6,0-0.3,0-0.2,0c0.2,0,0.4,0.1-0.1,0c-0.1-0.1-0.3-0.1-0.4-0.2c0,0,0.1,0,0.1,0.1l-0.3-0.3c0.3,0.3,0.5,0.4,0.8,0.6
		c0.6,0.2,1.2,0.1,1.7,0s1-0.4,1.3-0.8c0.2-0.3,0.5-0.7,0.3-1.1C271.5,633.2,270.3,633.2,269.5,633.4"/>
	<path fill="#643641" d="M324.4,452.2c3.2,6.7,5.6,14,6.9,21.4c4.3-7,13.1-10.4,20.7-8c0.5,0.2,1,0.4,1.4,0.8
		c0.4,0.5,0.5,1.1,0.6,1.8c1,6.6-0.6,13.4-2.2,19.9c-1.4,5.8-3.4,12.4-8.6,14.9c-5.7,2.8-12.2-0.8-17.6-4.2c-3.1-2-6.2-4-9.3-6
		c-9.1-5.8-21.9-13.4-26.1-24.5c-2.6-7,7.4-6.9,12.4-8.4C310,457.5,317.2,454.9,324.4,452.2"/>
	<path fill="none" d="M324.4,452.2c3.2,6.7,5.6,13.9,6.9,21.4c4.3-7,13.1-10.4,20.7-7.9c0.5,0.2,1,0.4,1.4,0.8
		c0.4,0.5,0.5,1.1,0.6,1.8c1,6.6-0.6,13.4-2.2,19.9c-1.4,5.8-3.4,12.4-8.6,14.9c-5.7,2.8-12.2-0.8-17.5-4.2c-3.1-2-6.2-4-9.3-6
		c-9.1-5.8-21.9-13.4-26.1-24.5c-2.6-7,7.4-6.9,12.4-8.4C310,457.5,317.3,455,324.4,452.2z"/>
	<path fill="#643641" d="M272.1,422.4c7.2,2.1,5.9,2,9.6,2.6c10.1,1.7,19.6,2.5,29,7c6.6,3.2,13.1,6.8,19.6,10.3
		c-11.1,14.4-26.8,18.9-43.3,21.4c-11.5,1.8-22.7,4.5-32.4,11c-4.5,3.1-8,7.6-12,11.4c-1.7,1.6-1.8,4.5-3.8,5.7
		c-9.4,5.7-9.9,13.7-9.6,23.9c-5.4-3.3-10-6.2-14.8-9.2c2,6.1,7.4,8.9,12.6,11.3c10.6,4.8,21.2,9.9,32.4,13.3
		c15.7,4.8,28.7,14,42.2,22.5c3.8,2.4,4.4,5,3.1,9.3c-6.3,20.8-11.6,40-27.3,58.5c-1.6,2.7-2.5,2.9-10.7,1.7
		c-0.6-14.2-5.4-29-0.8-42.9c1.5-4.5,6.9-8.3,10-11.8c3-3.4,3.3-6.5,1.9-10.8c-1,7.5-5.9,6-10.8,5.9c-8.3-0.2-16.6,0.6-24.9,0.3
		c-14.6-0.6-29-2.2-42.3-9.1c-2.1-1.1-5.3-0.3-7.9-0.5c-16.9-1.1-24.4-6.6-30.4-21.4c-3.2-8-0.3-17.6,1.6-26c1.1-5,4.6-9.4,5.4-14.4
		c2.1-13.6,12-21.6,20.5-30.5c10.4-11,21.7-21.4,32.1-32.4c6.1-6.5,10.7-14.5,17.1-20.6c13.9-13.3,26.5-29.1,47.1-31.9
		c7.1-1,14.7-0.3,22,1.1c8.1,1.6,16,6.1,24.2,7.6c6.8,1.2,14,0.4,20.9,1.2c5.2,0.6,8.4-2,11.1-5.5c2.4-3.1,4.8-3.2,7.8-1.2
		c9.1,6.1,18.3,12.1,27.3,18.4c2,1.4,3.3,3.7,1,6.6c-2.1,2.6-3.3,5.8-5.3,9.4c-1.4-3-2.4-5.7-3.7-8.2c-3.5-6.8-8.3-13.6-19.3-12
		c-4.1,0.6-10,0.7-11.5,4.7c-0.9,2.5-1.9,5-3.1,7.3c-0.4,0.7-1.5,1.4-2.4,1.4c-6.8-0.1-12.5-2.1-17.6-7.3
		c-7.7-7.9-17.1-13.5-27.6-17.1c-0.3,0.5,6.4,3.7,8.6,5.2c7,4.9,14.1,9.1,20.4,14.7c5.6,5,9.7,7.4,17,8.1c10.4,1,18.9,6.4,26.5,13.1
		c4.4,3.8,8.7,7.7,13.6,10.9c-7.7-8-14.2-17.4-25.6-21.5c1.5-3.9,2.9-7.5,4.4-11.2c-0.4-0.3-0.9-0.5-1.3-0.8
		c-1.7,2.4-3.5,4.8-5.6,7.6c-1.3-3.2-2.5-6.2-4-9.8c1.9-4.1,8.8-6,14.7-2.7c4,2.3,8.8,3.8,8.2,10.8c-0.3,3.1,4.5,6.5,6.2,10
		c4.4,9.3,8.5,18.7,12.2,28.2c2.2,5.8,0.3,8.5-5.6,10.4c-14.5,4.9-28.1,1.5-41.2-4.7c-14.7-6.9-28.9-15-43.5-21.9
		c-6-2.8-12.6-4.5-19.1-5.6C287.9,423.2,280.3,423,272.1,422.4"/>
	<path fill="#FFFFFF" d="M271.5,422.7c2.4,0.7,4.7,1.6,7.2,2.1c3.2,0.8,6.4,1.1,9.6,1.6c4.5,0.7,9.1,1.5,13.5,2.8
		c4.6,1.3,8.9,3.4,13.2,5.5c5,2.5,9.8,5.3,14.8,7.9c0-0.1-0.1-0.2-0.1-0.3c-5.6,7.2-13,12.5-21.5,15.8s-17.5,4.5-26.4,6.2
		c-9.6,1.8-19.1,4.7-27.3,10.1c-4.1,2.7-7.2,6.4-10.6,9.9c-0.8,0.8-1.7,1.5-2.4,2.4c-0.6,0.7-0.9,1.5-1.3,2.3c-0.4,1-0.9,2-1.7,2.6
		c-0.9,0.7-1.8,1.2-2.7,1.9c-3.2,2.5-5.4,5.9-6.4,9.8c-1.1,4.1-1,8.5-0.9,12.8c0.5-0.2,1-0.3,1.5-0.5c-4.9-3.1-9.9-6.1-14.8-9.2
		c-0.3-0.2-1.7,0-1.5,0.5c2.6,7.7,10.8,10.5,17.4,13.6c8.9,4.1,17.9,8.1,27.2,11c8.8,2.8,17.1,6.8,25,11.6c3.9,2.3,7.7,4.8,11.5,7.2
		c1.9,1.2,3.8,2.4,5.6,3.6c1.5,0.9,3,2,3.6,3.7c0.6,1.5,0.4,3.2,0,4.7c-0.5,2-1.2,4-1.8,6c-1.2,4.1-2.5,8.2-3.8,12.2
		c-2.6,8-5.7,15.8-9.6,23.2c-2.1,3.9-4.4,7.7-7,11.3c-1.4,1.9-2.8,3.8-4.3,5.6c-0.6,0.8-1.2,1.9-2,2.5c-0.6,0.5-1.5,0.5-2.3,0.5
		c-1.6,0-3.6-0.1-5.2-0.5c-0.8-0.2-0.6-0.5-0.7-1.3c0-0.5-0.1-1-0.1-1.5c-0.1-1.3-0.2-2.5-0.4-3.8c-0.3-2.3-0.6-4.7-0.9-7
		c-1.2-9.4-2.5-19.2,0.4-28.5c1.2-3.9,4.3-6.6,7.2-9.3c2.6-2.5,5.4-5.1,5.7-8.8c0.1-1.8-0.2-3.5-0.8-5.2c-0.1-0.4-1.5,0-1.5,0.3
		c-0.4,2.9-1.5,5.5-4.8,5.6c-1.3,0-2.6-0.1-3.9-0.2c-2-0.1-4-0.1-6-0.1c-4.6,0.1-9.3,0.3-13.9,0.4c-4.6,0-9.2-0.2-13.7-0.5
		c-8.5-0.7-17.1-1.9-25.2-4.7c-2-0.7-4-1.5-6-2.4c-1.7-0.8-3.3-1.9-5.2-2.1c-2-0.2-3.9,0.2-5.9,0.1c-1.7-0.1-3.4-0.3-5.1-0.5
		c-5.5-0.8-10.9-2.4-15.2-5.9c-4.4-3.6-7.2-8.7-9.4-13.9c-3.4-8-1.2-16.5,0.6-24.6c0.4-2,0.9-3.9,1.6-5.7c0.8-1.8,1.7-3.6,2.5-5.4
		s1.5-3.6,1.8-5.5c0.3-1.8,0.7-3.6,1.3-5.4c2.3-6.8,6.9-12.4,11.8-17.5c5.6-5.9,11.2-11.7,17-17.4c6.4-6.4,13-12.7,19.3-19.3
		c3-3.1,5.9-6.3,8.6-9.8c2.5-3.3,4.9-6.6,7.6-9.8c2.5-2.9,5.2-5.5,7.9-8.1c2.5-2.5,5-5,7.5-7.5c5.1-5,10.5-9.9,16.7-13.6
		c6.6-4,13.9-6.5,21.6-7c9-0.6,18.1,0.9,26.6,4c4.1,1.5,8.2,3.2,12.5,4.3c4.1,1.1,8.3,1.4,12.5,1.5c2.4,0.1,4.7,0.1,7.1,0.1
		c2.1,0.1,4.1,0.4,6.2,0.4c3.1,0,6-1.1,8.3-3.1c1.2-1.1,2.1-2.4,3.2-3.6c0.7-0.7,1.5-1.4,2.6-1.4c1,0,1.9,0.5,2.7,1
		c4,2.4,7.7,5.2,11.6,7.7c4,2.6,7.9,5.3,11.8,8c2.8,1.9,8.2,4.4,5.6,8.5c-1,1.5-2.1,3-2.9,4.6c-1,1.9-1.9,3.8-2.9,5.6
		c0.5-0.1,1-0.2,1.5-0.3c-2.7-5.9-5.1-12.8-10.3-17.1c-5.2-4.3-11.6-3.6-17.8-2.6c-2.5,0.4-5.6,1.1-7.2,3.3
		c-1.1,1.5-1.5,3.5-2.2,5.2c-0.4,1-0.9,2-1.4,3c-0.7,1.4-1.8,1.4-3.2,1.2c-3.8-0.3-7.5-1.3-10.7-3.3c-3.4-2.1-5.9-5.1-8.9-7.7
		c-6.9-6-15-10.4-23.6-13.4c-0.3-0.1-1.3,0-1.4,0.5c-0.2,0.9,3.2,2.3,3.8,2.6c2.3,1.3,4.5,2.6,6.7,4.1c6.6,4.5,13.3,8.8,19.3,14.1
		c2.3,2,4.8,3.9,7.5,5.2c2.8,1.3,5.8,2,8.8,2.3c7.3,0.7,13.9,3.6,19.9,7.8c7.1,4.9,13,11.4,20.2,16.1c0.3,0.2,1.8-0.2,1.5-0.6
		c-5-5.2-9.4-10.9-15-15.4c-2.8-2.3-5.9-4.2-9.2-5.6c-0.2-0.1-1-0.3-1.1-0.4c-0.3-0.4,0.3-1.3,0.5-1.7c0.4-1,0.8-2,1.2-3
		c0.8-2.1,1.7-4.3,2.5-6.4c0-0.1,0-0.1,0-0.2c-0.4-0.3-0.9-0.5-1.3-0.8c-0.4-0.2-1.2,0-1.4,0.3c-1.9,2.5-3.7,5.1-5.6,7.6
		c0.5-0.1,1-0.2,1.5-0.2c-0.7-1.8-1.5-3.6-2.2-5.4c-0.4-0.9-0.7-1.8-1.1-2.7c-0.2-0.4-0.4-0.9-0.5-1.3c-0.1-0.6,0.1-1,0.5-1.5
		c2.1-2.8,6.1-3.2,9.3-2.4c2.6,0.6,5.3,2.2,7.5,3.7s3.6,3.5,3.8,6.3c0.1,1.5-0.2,2.7,0.4,4.1c0.6,1.3,1.5,2.4,2.4,3.4
		c1.1,1.3,2.2,2.5,3,4c1,1.8,1.8,3.7,2.6,5.6c3.5,7.7,7.1,15.5,10,23.5c0.8,2.3,1.3,5-0.4,6.9c-2.1,2.4-6.1,3.2-9.1,3.9
		c-8,1.8-16.3,1-24.2-1.4c-7.9-2.4-15.3-6.2-22.6-9.9c-7.5-3.8-15-7.8-22.5-11.6c-3.8-1.9-7.5-3.8-11.4-5.5
		c-3.7-1.6-7.5-2.8-11.4-3.7c-7.7-1.8-15.5-2.5-23.4-3c-2.1-0.1-4.2-0.3-6.4-0.5c-0.4,0-1.8,0.7-1,0.7c8.8,0.7,17.5,0.9,26.1,2.7
		c4.3,0.9,8.6,2,12.7,3.6c4.2,1.6,8.2,3.7,12.2,5.7c8.1,4.1,16.1,8.3,24.2,12.4c7.9,4,15.8,8,24.3,10.3c7.9,2.1,16.2,2.5,24.2,0.6
		c4.8-1.2,12-3.2,10.8-9.5c-0.4-1.9-1.2-3.6-1.9-5.4c-0.9-2.2-1.8-4.3-2.6-6.5c-1.8-4.3-3.7-8.5-5.6-12.8c-1-2.1-1.9-4.2-2.9-6.2
		c-0.7-1.4-1.8-2.7-2.8-3.9c-1.1-1.3-2.3-2.5-2.9-4.1c-0.6-1.4-0.2-3-0.4-4.5c-0.3-2.7-2-4.7-4.2-6.1c-2.4-1.5-5.1-3.1-7.9-3.7
		c-2.9-0.6-6.2-0.3-8.8,1.1c-1.2,0.6-2.2,1.5-3,2.6c-0.5,0.8-0.5,1-0.1,1.8c0.4,1,0.9,2.1,1.3,3.2c0.8,1.9,1.6,3.9,2.4,5.8
		c0.2,0.4,1.3,0,1.5-0.2c1.9-2.5,3.7-5.1,5.6-7.6c-0.5,0.1-1,0.2-1.4,0.3c0.5,0.3,1,0.5,1.1,1.1c0,0.3-0.4,0.9-0.5,1.3
		c-0.4,1.1-0.8,2.1-1.2,3.2c-0.8,2.1-1.6,4.2-2.5,6.3c0,0.1,0.1,0.2,0.1,0.2c10.9,4,17.7,13.4,25.5,21.5c0.5-0.2,1-0.4,1.5-0.6
		c-6.4-4.2-11.8-9.7-17.8-14.3c-5.4-4.1-11.4-7.5-18.1-9c-3.2-0.7-6.6-0.7-9.8-1.7c-3-0.9-5.6-2.3-8.1-4.2c-2.9-2.2-5.6-4.8-8.5-7
		c-3.2-2.4-6.5-4.5-9.8-6.8c-2.8-1.9-5.5-3.9-8.5-5.6c-1.2-0.7-2.5-1.3-3.7-2c-0.2-0.1-2-1-1.9-1.3c-0.5,0.1-0.9,0.3-1.4,0.5
		c7.7,2.6,15,6.5,21.4,11.5c3.1,2.5,5.7,5.5,8.8,7.9c2.7,2.1,5.9,3.6,9.3,4.4c1.7,0.4,3.4,0.6,5.2,0.6c1.4,0,2.8-0.2,3.9-1.2
		c0.5-0.5,0.8-1.2,1.1-1.9c0.5-1.1,1-2.1,1.4-3.2c0.7-1.7,1-3.6,2.5-4.8c2.4-1.9,6.1-1.9,9-2.2c3.6-0.5,7.2-0.2,10.4,1.7
		c6.5,3.8,9.2,11.9,12.1,18.3c0.2,0.5,1.4,0,1.5-0.3c1-1.9,2-3.9,3-5.8c0.5-0.9,1-1.9,1.7-2.8c0.6-0.8,1.2-1.5,1.6-2.5
		c1.5-3.9-3.5-6.1-6-7.9c-4-2.7-8-5.4-12-8.1c-2-1.3-4-2.7-6-4s-4-2.8-6-4c-2.6-1.5-5.5-1.1-7.6,1.1c-1.3,1.3-2.2,2.8-3.6,3.9
		c-1.5,1.2-3.1,2-5,2.1c-2.2,0.2-4.5-0.3-6.7-0.4c-2.3-0.1-4.6-0.1-6.9-0.1c-4.9-0.1-9.6-0.5-14.3-2c-4.3-1.3-8.4-3.1-12.7-4.5
		c-4.3-1.5-8.7-2.4-13.2-2.9c-8.3-1-16.7-0.6-24.6,2c-14,4.7-24.4,15.6-34.5,25.7c-2.8,2.8-5.7,5.5-8.3,8.5
		c-2.8,3.2-5.3,6.7-7.9,10.1c-5.7,7.3-12.4,13.8-19,20.3s-13.2,13.1-19.7,19.9c-5,5.2-10.4,10.2-14.3,16.3c-2,3.1-3.5,6.4-4.4,9.9
		c-0.5,1.9-0.7,3.9-1.3,5.8c-0.6,2-1.6,3.9-2.5,5.8c-0.9,1.8-1.7,3.7-2.2,5.7c-0.5,2.1-1,4.2-1.4,6.3c-0.9,4.2-1.8,8.4-1.6,12.7
		c0.1,4,1.3,7.6,3,11.2c1.2,2.6,2.6,5.1,4.4,7.3c3.3,4.2,7.8,7.1,13,8.7c3,0.9,6.1,1.4,9.1,1.7c1.8,0.2,3.6,0.3,5.4,0.2
		c1-0.1,2.1-0.2,3.1,0c1.2,0.2,2.1,0.7,3.1,1.2c7.9,3.9,16.5,6,25.2,7.1c9.1,1.2,18.3,1.5,27.4,1.2c4.7-0.2,9.4-0.4,14-0.2
		c2.4,0.1,4.9,0.5,7.2-0.4c2.6-1,3.6-3.4,4-6c-0.5,0.1-1,0.2-1.5,0.3c0.6,2,1.1,4.1,0.6,6.1c-0.4,2-1.6,3.7-3,5.1
		c-2.8,3-6.3,5.5-8.5,9c-2.3,3.7-2.8,8.8-3,13.1c-0.2,5,0.2,10.1,0.9,15.1c0.7,5.7,1.6,11.3,1.9,17c0,0.1,0.2,0.2,0.3,0.2
		c2.4,0.3,4.9,0.8,7.4,0.6c1.3-0.1,2.5-0.4,3.5-1.3c0.4-0.4,0.7-0.9,1.1-1.4c1.1-1.5,2.3-2.8,3.4-4.2c2-2.6,3.9-5.4,5.6-8.2
		c6.8-11,11.2-23.1,15-35.3c1-3.1,1.9-6.2,2.8-9.3c0.7-2.3,1.6-5,0.7-7.4c-1-2.5-3.7-3.9-5.9-5.2c-2.9-1.9-5.8-3.7-8.7-5.6
		c-5.7-3.6-11.5-7.1-17.7-10.1c-3.1-1.5-6.3-2.9-9.6-4c-3.4-1.2-6.9-2.2-10.4-3.5c-7.9-2.9-15.6-6.4-23.2-9.9
		c-6-2.8-12.7-5.5-15-12.3c-0.5,0.2-1,0.3-1.5,0.5l14.8,9.2c0.3,0.2,1.5,0,1.5-0.5c-0.2-7.6,0-15.7,6-21.2c0.8-0.7,1.6-1.3,2.4-1.9
		c0.8-0.5,1.6-1,2.2-1.8c1.1-1.5,1.4-3.4,2.8-4.8c3.5-3.4,6.7-7.4,10.6-10.4c15.6-11.9,36.3-10.1,53.9-16.8c9.1-3.4,17.1-9,23-16.6
		c0.1-0.1,0.1-0.2-0.1-0.3c-4.4-2.3-8.7-4.7-13.1-7c-4.3-2.2-8.6-4.4-13.2-5.9c-7.9-2.5-16.2-3.1-24.3-4.8c-2.6-0.5-5.1-1.5-7.7-2.3
		C272.4,421.9,271,422.5,271.5,422.7"/>
	<path fill="#623C3C" d="M193.2,558.6c12.4,2.7,24.7,5.3,37.1,7.9c2.3,0.5,4.8,0.9,7,0.6c4.9-0.7,9.2,0.5,10.3,4.4
		c0.1,0.5,1.2,4,1.4,4.4c3.6,6.6-0.6,10.2-7.7,14.6c-10.4,6.4-19.8,14.6-32,18c-4.4,1.2-8.6,2.9-13,3.7c-9.5,1.7-16.4,7.2-22.9,14.2
		c5.9,5.2,3.9,17.3,3.9,17.3s10.2,5.6,14.7,6c-6.2,3.3-21.1,1.3-25-2.2c-0.2-0.1-0.4-0.2-0.7-0.3c-0.3-4.5-0.5-9.1-0.9-13.7
		c-0.4-4.3-2.8-8.3-3.4-12.8c10.2-6.3,22.5-13.3,30.6-23.9c5.1-6.8,12.2-12,18.9-17.5c2.7-2.2,6.2-2.9,9.9-0.2
		c2.1,1.6,5.2,1.7,7.9,2.5c0.2-0.5,0.4-1.1,0.7-1.6c-1.3-0.9-2.5-2-3.9-2.5c-9.9-4.3-19.8-8.5-29.7-12.6c-2.8-1.1-8.4-2.2-9-3.7
		C187.5,561.1,186,556.8,193.2,558.6"/>
	<path fill="#FFFFFF" d="M192.9,559.2c6.2,1.4,12.5,2.7,18.7,4s12.5,2.7,18.7,3.9c1.5,0.3,3,0.5,4.5,0.6c1.4,0,2.7-0.2,4.1-0.3
		c2-0.1,4.2,0.1,5.9,1.3c0.8,0.5,1.4,1.2,1.7,2.1c0.3,0.6,0.4,1.3,0.6,2c0.3,0.8,0.5,1.6,0.8,2.5c0.3,0.8,0.7,1.4,1,2.2
		c0.7,1.7,0.9,3.5,0.2,5.2c-0.8,1.8-2.2,3.1-3.7,4.3c-2,1.6-4.2,2.9-6.4,4.3c-2.3,1.5-4.5,3-6.7,4.5c-4.4,3-8.9,6-13.6,8.4
		c-2.4,1.2-4.8,2.3-7.4,3.1c-1.4,0.5-2.8,0.8-4.1,1.2c-1.4,0.5-2.9,0.9-4.4,1.4c-1.4,0.5-2.9,0.9-4.4,1.2c-1.4,0.3-2.8,0.5-4.1,0.9
		c-2.4,0.6-4.8,1.5-7.1,2.6c-4.4,2.2-8.3,5.4-11.8,8.8c-0.9,0.9-1.8,1.8-2.6,2.7c-0.2,0.2-0.1,0.5,0.1,0.7c2.2,2,3.3,5,3.7,8
		c0.4,2.5,0.4,5,0.2,7.4c0,0.5-0.1,1-0.2,1.5c0,0.1,0.1,0.3,0.2,0.4c3.6,2,7.3,3.9,11.2,5.2c1.2,0.4,2.5,0.8,3.8,0.9
		c0-0.3-0.1-0.7-0.1-1.1c-1.3,0.7-2.8,1.1-4.3,1.3c-1.9,0.3-3.7,0.3-5.6,0.3c-3.6-0.1-7.4-0.7-10.8-1.9c-0.7-0.3-1.5-0.6-2.1-0.9
		c-0.3-0.2-0.6-0.3-0.9-0.5c-0.1-0.1-0.2-0.2-0.4-0.3c-0.2-0.2-0.6-0.3-0.9-0.4c0.1,0.2,0.2,0.3,0.4,0.5c-0.2-3.7-0.4-7.5-0.7-11.2
		c-0.1-1.7-0.3-3.4-0.7-5.1c-0.4-1.6-0.9-3.2-1.5-4.7c-0.6-1.8-1.2-3.6-1.4-5.5c-0.1,0.2-0.3,0.5-0.4,0.7c4.4-2.7,8.8-5.4,13.1-8.3
		c4.5-3,8.8-6.3,12.6-10.1c1.9-1.9,3.7-4,5.4-6.2s3.7-4.3,5.7-6.2c2.1-2,4.4-3.9,6.6-5.8c1.1-0.9,2.2-1.8,3.4-2.7
		c1.1-0.9,2.2-1.9,3.3-2.7c2.1-1.5,4.6-1.6,6.8-0.5c0.6,0.3,1.2,0.8,1.8,1.2c0.5,0.3,1.1,0.6,1.7,0.8c1.3,0.5,2.6,0.7,3.9,1
		c0.6,0.1,1.3,0.3,1.9,0.5c0.4,0.1,1,0,1.2-0.4c0.2-0.5,0.4-1.1,0.7-1.6c0.1-0.2,0-0.4-0.1-0.6c-0.9-0.6-1.8-1.3-2.7-1.9
		c-1-0.6-2.1-1-3.2-1.5c-2.3-1-4.7-2-7-3c-4.6-2-9.3-4-13.9-5.9c-2.3-1-4.6-2-6.9-2.9c-1.5-0.6-3.1-1-4.7-1.5
		c-0.8-0.2-1.6-0.5-2.3-0.8c-0.5-0.2-1.1-0.5-1.5-0.8c-0.1-0.1-0.1-0.1-0.2-0.3c0-0.1,0-0.1,0-0.2v-0.1v-0.1c0-0.1,0,0.1,0,0
		s0-0.3,0-0.4c0-0.1,0-0.2,0-0.2s0,0,0-0.1c-0.1,0.2,0,0,0,0c0-0.1,0.1-0.1,0.1-0.2c0,0,0.1-0.1,0,0l0.1-0.1l0.1-0.1
		c0.1-0.1-0.1,0.1,0,0c0.1,0,0.3-0.2,0.1-0.1c0.1-0.1,0.2-0.1,0.3-0.2c0.2-0.1-0.2,0,0,0c0.1,0,0.1,0,0.2-0.1c0.1,0,0.1,0,0.2,0
		c-0.1,0,0.1,0,0.1,0c0.2,0,0.4,0,0.5,0C191,558.7,192,558.9,192.9,559.2c0.8,0.2,1.6-0.9,0.5-1.2c-2.1-0.5-6.1-1.1-6.8,1.8
		c-0.1,0.5-0.1,1,0,1.5c0.2,0.9,1.3,1.3,2,1.7c1.6,0.7,3.3,1.2,4.9,1.7c2,0.6,3.9,1.4,5.8,2.2c4.9,2.1,9.9,4.2,14.8,6.2
		c2.7,1.2,5.4,2.3,8.1,3.5c1.3,0.6,2.7,1.1,4,1.8c1.1,0.6,2.1,1.5,3.2,2.2c-0.1-0.2-0.1-0.4-0.1-0.6c-0.2,0.5-0.4,1.1-0.7,1.6
		c0.4-0.2,0.8-0.3,1.2-0.4c-1.3-0.4-2.7-0.6-4-0.9c-1.2-0.3-2.5-0.7-3.6-1.4c-1.2-0.8-2.5-1.5-3.9-1.8c-1.3-0.3-2.6-0.2-3.8,0.2
		c-1.3,0.4-2.4,1-3.4,1.9c-1.1,0.9-2.3,1.8-3.4,2.8c-2.3,1.9-4.6,3.7-6.8,5.7c-2.2,1.9-4.3,4-6.2,6.1s-3.5,4.4-5.4,6.5
		c-3.7,4-7.9,7.5-12.4,10.6c-4.3,3-8.8,5.8-13.3,8.5c-0.5,0.3-1.1,0.7-1.6,1c-0.3,0.2-0.5,0.4-0.4,0.7c0.5,3.3,1.8,6.3,2.7,9.5
		c0.5,1.7,0.7,3.3,0.8,5c0.2,1.8,0.3,3.7,0.4,5.5c0.1,2.1,0.2,4.2,0.4,6.3c0,0.2,0.1,0.4,0.4,0.5c0.6,0.3,1.1,0.7,1.7,1.1
		c0.7,0.4,1.4,0.7,2.1,1c1.7,0.7,3.4,1.1,5.2,1.4c3.9,0.8,8,1,11.9,0.5c1.9-0.2,3.9-0.7,5.6-1.5c0.5-0.3,0.6-1-0.1-1.1
		c-2.3-0.2-4.6-1.2-6.8-2.1c-2.2-0.9-4.3-2-6.4-3.1c-0.1-0.1-0.1,0,0,0c-0.1,0-0.1-0.1-0.2-0.1c-0.1,0-0.2-0.1-0.3-0.1
		c-0.1-0.1-0.3-0.2-0.4-0.2c-0.1-0.1-0.2-0.1-0.4-0.2c0.1,0.1,0.1,0.3,0.2,0.4c0.2-1.5,0.3-3,0.3-4.5c0-3-0.3-6.1-1.5-8.8
		c-0.7-1.7-1.6-3.2-3-4.3c0,0.2,0,0.5,0.1,0.7c3.4-3.7,7.1-7.2,11.4-9.8c2.1-1.3,4.3-2.3,6.6-3.1c2.7-0.9,5.5-1.2,8.2-2
		c3-0.8,5.9-1.8,8.8-2.7c2.7-0.8,5.3-1.7,7.8-2.8c5-2.3,9.6-5.2,14.1-8.3c2.2-1.5,4.5-3,6.7-4.5c2.3-1.5,4.6-2.9,6.9-4.4
		c3.2-2.2,6.9-5.2,6.5-9.4c-0.1-1-0.4-2-0.8-2.9c-0.1-0.3-0.2-0.5-0.4-0.8c-0.1-0.1-0.1-0.3-0.2-0.4c0.1,0.1,0,0.1,0,0
		c-0.1-0.3-0.2-0.6-0.3-0.9c-0.3-0.8-0.5-1.7-0.8-2.5c-0.2-0.7-0.4-1.4-0.8-2.1c-1-1.8-2.8-2.9-4.8-3.4c-1.1-0.3-2.2-0.3-3.4-0.3
		c-1.3,0-2.6,0.3-4,0.3c-1.5,0-3-0.2-4.5-0.5c-1.6-0.3-3.1-0.6-4.6-1c-3.2-0.7-6.4-1.3-9.6-2c-6.3-1.3-12.6-2.7-18.9-4
		c-1.6-0.3-3.1-0.7-4.7-1C192.7,557.8,191.9,558.9,192.9,559.2"/>
	<path fill="#D6B047" d="M402.1,398.1c-11-7.3-21.7-14.5-32.5-21.6c3.5-5.8,7.8-7.6,15-4.6c5.1,2.1,10.3,4.6,14.5,8
		C407,386.2,407.1,389.2,402.1,398.1"/>
	<path fill="#643641" d="M337.1,446.1c5.1,2.3,10.2,4.6,15,6.7V466c-5-0.4-10.1-0.7-15.2-1.5c-0.7-0.1-1.7-2.5-1.6-3.7
		C335.7,456.1,336.4,451.5,337.1,446.1"/>
	<path fill="#59373D" d="M167.6,648.7c0.2,0.1,0.5,0.2,0.7,0.3c-1.2,0.9-2.5,2.8-3.5,2.6c-9.6-1.2-11.8,0.3-10.9-10.2
		c0.4-4.9-0.6-13,0.1-17.9c0.2-1.4,4.8-2.1,5.8-3.5c0.9,1.2,2.8,3.3,3,4.7c1.2,6.4,2,13,3.1,19.4C166.2,645.8,167,647.2,167.6,648.7
		"/>
	<path fill="#643641" d="M329.4,459.3c0.9,1.1,2,2.1,2.7,3.3c1,1.6,1.8,3.5,2.7,5.4c-0.8,0.7-1.8,1.6-3.2,2.8
		c-1.2-3.7-2.3-6.9-3.4-10.1C328.6,460.2,329,459.8,329.4,459.3"/>
	<path fill="#55947F" d="M325.3,459c1.6-3.6-2.6-8.5,3.5-12.2c-0.8,4.9-1.4,8.7-2.1,12.5C326.3,459.2,325.8,459.1,325.3,459"/>
	<path fill="#F7B7C6" d="M330.9,456.3c0.5,0.1,1,0.2,1.5,0.3c0.6-3.8,1.3-7.7,2.1-12.5C328.3,447.8,332.5,452.6,330.9,456.3
		 M329.4,459.3c-0.4,0.5-0.8,0.9-1.2,1.4c1.1,3.2,2.2,6.4,3.4,10.1c1.4-1.2,2.4-2.1,3.2-2.8c-1-1.9-1.7-3.7-2.7-5.4
		C331.4,461.4,330.3,460.4,329.4,459.3 M337.1,446.1c-0.7,5.4-1.5,10-1.8,14.8c-0.1,1.2,0.9,3.6,1.6,3.7c5.1,0.8,10.2,1.1,15.2,1.5
		v-13.2C347.3,450.7,342.2,448.4,337.1,446.1 M402.3,397.9c5-9,4.9-11.9-3-18.3c-4.3-3.4-9.5-5.9-14.5-8c-7.1-3-11.5-1.1-15,4.6
		C380.6,383.4,391.3,390.5,402.3,397.9 M285.6,652.5c0.5,0.4-0.2-0.1-0.8-0.7c-3.4-3.2-8.4-4.3-10.2-9.7c-0.9-2.9-11.9-2.7-13.3-0.1
		c-1.8,3.4-3.4,7-4.6,10.7c-0.4,1.1,0.8,3.7,1.5,3.8c4.1,0.6,8.3,0.6,12.5,0.8c1.6,0.1,3.4-0.2,4.8,0.3c10.6,3.9,21.3,5.5,32.4,2.5
		c3.7-1,7.6-1.4,11.4-2.1C308.5,655.4,298.2,651.9,285.6,652.5 M272,422.6c8.2,0.7,15.8,0.8,23.1,2.1c6.5,1.1,13.2,2.8,19.1,5.6
		c14.7,6.9,28.9,14.9,43.5,21.9c13,6.1,26.7,9.6,41.2,4.7c5.9-2,7.8-4.7,5.6-10.4c-3.7-9.5-7.9-18.9-12.2-28.2
		c-1.7-3.6-6.5-6.9-6.2-10c0.6-7-4.1-8.5-8.2-10.8c-5.9-3.3-12.8-1.5-14.7,2.7c1.5,3.6,2.7,6.6,4,9.8c2.1-2.8,3.8-5.2,5.5-7.6
		c0.8,0.4,0.5,0.3,1.3,0.7c-1.4,3.7-2.9,7.3-4.4,11.2c11.4,4.2,17.9,13.5,25.6,21.5c-4.9-3.2-9.3-7-13.7-10.9
		c-7.7-6.7-16.2-12.1-26.5-13.1c-7.3-0.7-11.3-3.3-16.9-8.3c-6.4-5.6-13.5-9.8-20.4-14.7c-2.9-2-9-4.8-8.5-4.9
		c10.4,3.6,19.7,9.2,27.4,17c5.1,5.2,10.8,7.2,17.6,7.3c0.8,0,2-0.7,2.4-1.4c1.2-2.4,2.2-4.8,3.1-7.3c1.4-4,5.9-4.1,10-4.7
		c10.9-1.6,17.2,5.2,20.7,12c1.3,2.5,2.3,5.1,3.7,8.2c2-3.6,3.2-6.9,5.3-9.5c2.3-2.9,1-5.1-1-6.6c-9-6.3-18.2-12.3-27.3-18.4
		c-3-2-5.4-1.9-7.8,1.2c-2.7,3.5-5.9,6-11.1,5.5c-6.9-0.8-14.1,0-20.9-1.2c-8.1-1.4-16-6.2-24.1-7.8c-7.3-1.5-15-1.9-22.1-0.9
		c-20.7,2.8-33.3,18.6-47.1,31.9c-6.4,6.1-11,14.1-17.1,20.6c-10.4,11.1-21.7,21.4-32.1,32.4c-8.5,9-18.4,17-20.5,30.5
		c-0.8,5-4.3,9.4-5.4,14.4c-1.9,8.5-4.1,19.3-0.9,27.3c5.9,14.8,12.8,19.1,29.8,20.1c2.7,0.2,5.8-0.7,7.9,0.5
		c13.3,6.9,27.7,8.5,42.3,9.1c8.3,0.4,16.6-0.5,24.9-0.3c4.9,0.2,9.8,1.6,10.8-5.9c1.4,4.3,1.1,7.4-1.9,10.8
		c-3.1,3.5-8.9,8.2-10.4,12.7c-4.6,13.9,0.5,27.8,1.2,42c8.2,1.1,9.1,1,10.7-1.7c15-16.3,21-37.7,27.3-58.5c1.3-4.3,0.7-6.9-3.1-9.3
		c-13.5-8.6-26.5-17.7-42.2-22.5c-11.1-3.4-21.7-8.5-32.4-13.3c-5.2-2.4-10.7-5.2-12.6-11.3c4.8,3,9.5,5.9,14.8,9.2
		c-0.3-10.2-0.3-18,9.1-23.7c2-1.2,2.5-4.3,4.3-5.9c4-3.8,7.5-8.4,12-11.4c9.7-6.6,20.9-9.2,32.4-11c16.5-2.6,32.2-7.1,43.3-21.4
		c-6.5-3.5-13-7.1-19.6-10.3c-9.4-4.5-15.9-5.1-28.9-7.3C278.4,424.4,274,423.3,272,422.6 M188.8,562.6c-4.4-3.7-8.2-8.4-13.2-10.7
		c-7.7-3.5-11.9-9.7-14.2-16.8c-4.1-12.3-3.2-24.8,0.4-37.5c6.3-21.6,22.9-35,37.6-50.1c11.2-11.4,22.3-22.8,33.2-34.4
		c6.4-6.8,11.5-14.8,18.4-21c9.7-8.7,20.7-14.7,34.4-16.6c13-1.8,24.4,2.6,36.5,5c7.6,1.5,15.3,3.2,23,4.4
		c7.3,1.2,12.9-2.1,17.9-7.4c3.2-3.4,7.4-5.8,10.9-9c3.2-2.9,6.8-2.5,9.9-0.8c7.5,4.1,14.8,8.5,21.9,13.3c3.5,2.3,3.5,11.4,0.6,17.3
		c-2.4,4.9-4.5,9.9-7.6,14.3c-2.8,3.9-1.9,7.4-0.4,11c3,7.1,6.6,14,9.3,21.2c1.1,3.2,1,7.2,0.3,10.6c-0.4,1.5-3.5,2.7-5.6,3.5
		c-12.2,4.6-24.2,5-36.3-0.7c-2.9-1.4-6-2.2-9.7-3.5c-0.4,1.7-1.5,3.6-1.3,5.3c1.7,12-1.2,23.4-4.4,34.8c-0.7,2.6-3.3,4.8-5.2,7
		c-0.4,0.4-3,2.4-4.6,2.4c10.3-9.2,9.9-23.4,11.3-34.4c-1-0.4-1.5-0.7-1.9-0.8c-12.3-1.8-12.2-1.8-18.8,9.3
		c-1.5,2.5-3.3,4.9-5.7,6.9c5.3-8.8,5-9.3,4.5-14.1c-0.6-5.1-5.4-15-7-19.1c-11.3,4.9-22.6,11.5-33.5,15.1
		c11.4,16.5,30.6,30.8,51,37c-1.5-0.3-8.2,0.2-9.2-0.5c-13.1-9.5-27.2-17.9-38.6-29.2c-6.2-6.2-11-7-18.2-5.5s-13.6,4.2-19.1,9.3
		c-6.4,6-13.5,11.3-20,17.2c-7.2,6.5-5.3,20.2,3.6,24.3c6.1,2.8,12.5,4.9,18.8,7.1c15.7,5.5,29.9,13.8,43.5,23.3
		c3.6,2.5,7.8,4.5,7.5,9.7c-0.1,2.5-1.3,5-1.9,7.5c-3.1,11.6-8,22.5-13.8,33c-4.3,7.9-8.7,15.8-12.7,23.2c1.5,1.6,4.5,4,4.2,4.6
		c-2.4,4.3,3.7,12-5.6,14.5c5,1.8,9.9,4.1,15,5.3c9.8,2.2,19.7,3.6,29.5,5.5c1.2,0.2,2.3,1.4,3.4,2.1c-0.9,1.1-1.5,2.8-2.6,3.2
		c-6.4,2-12.9,4.5-19.5,5.2c-9.9,1.1-19.7,1.6-29.5-2.8c-5-2.2-11.4-1.7-17.2-1.6c-4.7,0.1-5.9-2.3-5.2-5.9c0.9-4.6,2.7-9,4.1-13.6
		h-7.7c0.6-5.6,1.2-10.9,1.8-16.4h11.5c0.2-6.3,1.4-12.5,0.5-18.3c-2.3-14.1,0.2-26.8,8.6-39c-7.8,0.5-15,1-23.1,1.6
		c1.4,5.5,2.7,10.4,3.8,15.4c0.3,1.3,0.1,3.4-0.6,4c-13.7,9.3-26.3,20.3-42.7,25c-4.5,1.3-9.3,2-13.6,3.8c-4.7,2-9.4,4.6-13.4,7.8
		c-1.8,1.4-2.1,4.8-2.8,7.3c-0.4,1.4,0.4,3.3-0.2,4.5c-2.7,6,1.5,7.6,5.6,9.3c3.2,1.3,6.5,2.6,9.8,3.9c-3.4,5-8,4.6-12.5,4.4
		c-7.6-0.3-15.4-0.1-22.9-1.2c-6.7-0.9-7.4-3.3-6-10c0.7-3.5,0.6-7.5-0.2-11c-1.6-7.2,1.6-12.1,9.4-14c8-1.9,14.5-5.9,19.7-12.1
		c4.9-5.8,9.3-12.2,14.4-17.8c3-3.3,7.1-5.8,10.6-8.7c1.1-0.9,2-2.1,3-3.1c-1.1-1.1-2.1-2.5-3.4-3.2c-4.3-1.9-8.8-3.3-13-5.4
		c-2-1-3.4-3.3-5-5c2.8,0.9,5.7,1.7,8.5,2.8c9.9,4.1,19.8,8.3,29.7,12.6c1.4,0.6,2.6,1.7,3.9,2.6c-0.2,0.5-0.4,1.1-0.7,1.6
		c-2.7-0.8-5.8-1-7.9-2.5c-3.6-2.7-7.1-2-9.9,0.2c-6.6,5.4-13.8,10.7-18.9,17.5c-8,10.6-20.3,17.2-30.5,23.5
		c0.6,4.4,2.9,8.9,3.3,13.2c0.4,4.5,0.6,9.1,0.9,13.7c-0.5-1.3-1.2-2.7-1.5-4c-1-5.8-1.7-11.5-2.8-17.3c-0.2-1.2-2.1-5.1-3-6.1
		c-0.9,1.2-5.3,2.8-5.5,4c-0.6,4.3,0.1,14.8-0.3,19.2c-0.8,9.3,1.8,5.8,10.5,6.9c0.9,0.1,1.4-1.8,2.5-2.6c3.9,3.5,19.5,5.4,25.7,2.1
		c-4.5-0.3-10.8-5.3-14.6-5.6c-2.1-6.8,1.3-9.6-4.1-17.2c6.4-7,13.4-12.5,22.9-14.2c4.4-0.8,8.7-2.5,13-3.7
		c12.1-3.4,21.5-11.6,32-18c7.2-4.4,11.4-8.4,7.8-15c-0.2-0.4-1.3-3.9-1.4-4.4c-1.1-3.9-5.5-4.7-10.4-4c-2.3,0.3-4.7-0.1-7-0.6
		c-12.4-2.5-24.8-5.2-37.1-7.9C190.4,558.2,188.3,558.5,188.8,562.6"/>
	<path fill="#FFFFFF" d="M135.5,525l0.6,8.2l0.3,4.1l0.3,4.1l1.1,16.5l1.1,16.5c0.2,2.8,0.4,5.5,0.5,8.2l0.5,8.2
		c0.3,5.5,0.7,11,1.1,16.5c0.5,5.5,1,11,1.8,16.4c0.8,5.5,1.7,10.9,2.9,16.2c0.6,2.7,1.3,5.3,2.2,7.9c0.4,1.3,0.9,2.5,1.5,3.8
		l0.4,0.9c0.1,0.3,0.3,0.6,0.5,0.8c0.1,0.1,0.2,0.3,0.3,0.4l0.3,0.4c0.1,0.1,0.2,0.2,0.3,0.4l0.3,0.3l-0.5-0.3
		c2.2,0.3,4.5,0.6,6.8,0.9l3.4,0.4l3.4,0.4c2.2,0.3,4.5,0.5,6.8,0.8c2.3,0.2,4.5,0.5,6.8,0.7c4.5,0.4,9,0.8,13.6,1
		c2.3,0.1,4.5,0.2,6.8,0.3s4.5,0.1,6.8,0.1c4.5,0,9-0.1,13.5-0.6c0.6,0,1.1-0.1,1.7-0.2c0.6-0.1,1.1-0.1,1.7-0.2l1.7-0.2l1.6-0.3
		c2.2-0.4,4.4-0.9,6.5-1.7c2.1-0.7,4.1-1.6,5.9-2.8c0.9-0.6,1.7-1.3,2.5-2.1c0.7-0.8,1.4-1.7,1.8-2.7c0.5-1,0.8-2,0.9-3.1
		c0.1-1.1,0.1-2.2-0.1-3.3c-0.2-1.1-0.5-2.2-0.9-3.2s-0.9-2.1-1.5-3l0.2-0.1c1.4,1.8,2.4,4,2.9,6.2c0.2,1.1,0.4,2.3,0.3,3.5
		c-0.1,1.2-0.3,2.4-0.8,3.5s-1.1,2.1-1.9,3c-0.8,0.9-1.7,1.7-2.6,2.4c-1.9,1.4-4,2.5-6.2,3.3s-4.4,1.4-6.7,1.9s-4.5,0.8-6.8,1.1
		l-1.7,0.2l-1.7,0.2l-0.9,0.1l-0.9,0.1l-1.7,0.1c-0.6,0-1.1,0.1-1.7,0.1c-0.6,0-1.1,0.1-1.7,0.1h-1.7h-0.9h-0.9
		c-9.2,0.1-18.3-0.5-27.4-1.5c-2.3-0.2-4.5-0.5-6.8-0.8s-4.5-0.6-6.8-0.9c-1.1-0.2-2.3-0.3-3.4-0.5l-3.4-0.5
		c-1.1-0.2-2.2-0.4-3.4-0.5l-3.4-0.6l-0.3-0.1l-0.2-0.2l-0.4-0.5c-0.1-0.2-0.2-0.3-0.3-0.5l-0.3-0.5c-0.1-0.2-0.2-0.3-0.3-0.5
		c-0.2-0.3-0.3-0.6-0.5-1l-0.4-1c-0.5-1.3-1-2.6-1.4-4c-0.2-0.7-0.4-1.3-0.6-2c-0.2-0.7-0.3-1.3-0.5-2c-0.3-1.3-0.6-2.7-0.9-4.1
		c-0.5-2.7-1-5.4-1.4-8.2c-0.2-1.4-0.4-2.7-0.6-4.1c-0.2-1.4-0.4-2.7-0.6-4.1c-0.4-2.7-0.7-5.5-1.1-8.2l-0.5-4.1l-0.5-4.1
		c-0.7-5.5-1.3-10.9-1.9-16.4l-0.4-4.1c-0.1-1.4-0.2-2.7-0.4-4.1c-0.2-2.7-0.4-5.5-0.6-8.2c-0.2-2.8-0.3-5.5-0.5-8.2l-0.2-4.1
		l-0.2-4.1c-0.1-2.8-0.2-5.5-0.3-8.3s-0.2-5.5-0.2-8.3l-0.1-4.1v-4.1c0-2.8,0-5.5,0-8.3L135.5,525z"/>
	<path fill="#FFFFFF" d="M142.2,514.8c1.9,3.6,3.9,7.1,5.9,10.6c2.1,3.5,4.2,6.9,6.4,10.3c0.6,0.8,1.1,1.7,1.7,2.5l0.9,1.2l0.9,1.2
		c0.6,0.8,1.2,1.7,1.8,2.5l1.8,2.4c0.6,0.8,1.2,1.6,1.9,2.4l0.9,1.2l1,1.2l1,1.2c0.3,0.4,0.6,0.8,1,1.2l2,2.3c0.3,0.4,0.7,0.8,1,1.1
		l1,1.1l1,1.1l1.1,1.1c0.7,0.7,1.4,1.4,2.1,2.1l2.2,2.1c0.2,0.2,0.4,0.3,0.6,0.5l0.6,0.5l1.1,1l1.1,1c0.4,0.3,0.8,0.6,1.2,1
		c1.6,1.3,3.1,2.5,4.8,3.7c6.5,4.7,13.5,8.7,20.9,11.8c0.9,0.4,1.9,0.7,2.8,1.1c0.5,0.2,0.9,0.3,1.4,0.5l0.7,0.2l0.7,0.2
		c1.9,0.7,3.8,1.2,5.8,1.7c1.9,0.5,3.9,0.9,5.9,1.3c2,0.4,4,0.6,6,0.8s4,0.3,6,0.3s4-0.1,6-0.2l1.5-0.1l1.5-0.2l0.8-0.1l0.8-0.1
		c0.5-0.1,1-0.1,1.5-0.2c2-0.3,4-0.7,5.9-1.2c3.9-0.9,7.8-2.1,11.6-3.4c1-0.3,1.9-0.7,2.9-1c0.9-0.4,1.9-0.7,2.8-1.1
		c0.9-0.4,1.9-0.8,2.8-1.2s1.9-0.8,2.8-1.2l2.8-1.2c0.5-0.2,0.9-0.4,1.4-0.6l1.4-0.7l2.7-1.3l2.7-1.4l1.3-0.7l1.3-0.7l2.6-1.5
		c0.9-0.5,1.7-1,2.6-1.6l1.3-0.8c0.4-0.3,0.9-0.5,1.3-0.8l2.5-1.7c0.8-0.6,1.6-1.2,2.5-1.7c1.7-1.1,3.2-2.4,4.9-3.6
		c3.1-2.5,6.2-5.1,9.1-7.9l1.1-1c0.2-0.2,0.4-0.3,0.5-0.5l0.5-0.5l2.1-2.2c0.2-0.2,0.4-0.4,0.5-0.5l0.5-0.6l1-1.1l1-1.1l0.5-0.6
		l0.5-0.6l1.9-2.4l0.5-0.6l0.4-0.6l0.9-1.2c1.2-1.6,2.3-3.3,3.3-5s2-3.5,3-5.2c0.9-1.8,1.8-3.6,2.7-5.4c1.7-3.6,3.3-7.3,4.8-11.1
		s2.9-7.5,4.3-11.3l4.3-11.4c2.8-7.6,5.6-15.2,8.4-22.8l4.1-11.4l4.1-11.4c1.4-3.8,2.7-7.6,4.1-11.5c0.6-1.9,1.2-3.8,1.7-5.8
		c0.2-1,0.4-1.9,0.6-2.9l0.1-0.7v-0.4v-0.4v-0.7c0-0.2,0-0.5,0-0.7c0-0.5,0-1,0-1.5c0-0.2,0-0.5-0.1-0.7c0-0.2,0-0.5-0.1-0.7
		c-0.1-0.5-0.1-1-0.3-1.4c-0.1-0.2-0.1-0.5-0.2-0.7s-0.1-0.5-0.2-0.7c-0.7-1.8-1.9-3.4-3.3-4.7c-1.5-1.3-3.2-2.3-5.2-2.7
		c-0.5-0.1-1-0.1-1.5-0.2c-0.5,0-1,0-1.5,0.1c-1,0.1-1.9,0.5-2.8,1.1l-0.1-0.2c0.8-0.6,1.8-1,2.8-1.2c0.5-0.1,1-0.2,1.5-0.2
		s1,0,1.5,0.1c2.1,0.3,4,1.3,5.6,2.6c1.6,1.3,3,3,3.8,5s1.1,4,1.2,6.1c0,0.3,0,0.5,0,0.8v0.8v0.4v0.4l-0.1,0.8c-0.1,1-0.3,2-0.5,3.1
		c-0.4,2-1,4-1.6,5.9c-1.2,3.9-2.5,7.7-3.8,11.6c-1.3,3.8-2.6,7.7-3.9,11.5l-4,11.5c-1.3,3.8-2.7,7.6-4.1,11.5
		c-1.4,3.8-2.8,7.6-4.1,11.4c-1.4,3.8-2.8,7.6-4.2,11.4c-1.4,3.8-2.9,7.6-4.4,11.3c-1.5,3.8-3.2,7.5-5,11.2
		c-0.9,1.8-1.8,3.7-2.8,5.5s-2,3.6-3.1,5.3c-1.1,1.8-2.2,3.4-3.5,5.1l-0.9,1.2l-0.5,0.6l-0.5,0.6l-1.9,2.4l-0.5,0.6l-0.5,0.6l-1,1.2
		l-1,1.2l-0.5,0.6c-0.2,0.2-0.4,0.4-0.5,0.5l-2.1,2.2l-0.5,0.5c-0.2,0.2-0.4,0.3-0.6,0.5l-1.1,1l-1.1,1c-0.4,0.3-0.8,0.7-1.1,1
		l-2.3,2c-0.8,0.7-1.6,1.3-2.4,1.9l-1.2,0.9c-0.4,0.3-0.8,0.6-1.2,0.9c-1.7,1.2-3.3,2.4-5,3.5c-0.9,0.6-1.7,1.1-2.5,1.7l-2.6,1.6
		c-0.4,0.3-0.9,0.5-1.3,0.8l-1.3,0.8c-0.9,0.5-1.8,1-2.6,1.5l-2.7,1.4l-1.3,0.7l-1.4,0.7l-2.7,1.4l-2.8,1.3l-1.4,0.7
		c-0.5,0.2-0.9,0.4-1.4,0.6l-2.8,1.2c-7.5,3.2-15.1,6-23,7.9c-2,0.5-4,0.9-6,1.3c-2,0.3-4,0.7-6.1,0.8c-2,0.2-4.1,0.3-6.1,0.4
		c-2,0-4.1,0-6.1-0.2c-2-0.1-4.1-0.3-6.1-0.7c-2-0.3-4-0.7-6-1.1c-2-0.5-4-1-5.9-1.6s-3.9-1.3-5.8-2c-7.6-3-14.8-7-21.4-11.9
		c-1.6-1.2-3.2-2.5-4.8-3.8c-0.4-0.3-0.8-0.7-1.2-1l-1.1-1l-1.1-1l-0.6-0.5c-0.2-0.2-0.4-0.3-0.6-0.5l-2.2-2.1
		c-0.7-0.7-1.4-1.5-2.1-2.2l-1.1-1.1l-1-1.1l-1-1.1c-0.4-0.4-0.7-0.8-1-1.1l-2-2.3c-0.7-0.8-1.3-1.6-1.9-2.4l-1-1.2l-0.9-1.2
		c-0.6-0.8-1.2-1.6-1.8-2.4c-2.4-3.3-4.7-6.7-6.8-10.1c-2.1-3.5-4.1-7-6.1-10.5c-1.9-3.6-3.7-7.2-5.4-10.9L142.2,514.8z"/>
	<path fill="#FFFFFF" d="M355.3,453.3c-0.2,4.4-0.4,8.8-0.7,13.1l-0.2,3.3l-0.2,3.3c-0.1,2.2-0.3,4.4-0.5,6.5l-0.5,6.5l-0.5,6.5
		c-0.4,4.4-0.8,8.7-1.2,13.1c-0.9,8.7-2.1,17.4-2.9,26.1c-0.9,8.7-1.5,17.4-2.1,26.2l-0.8,13.1l-0.4,6.5c-0.1,2.2-0.3,4.4-0.4,6.5
		c-0.2,4.4-0.5,8.7-0.6,13.1c-0.1,2.2-0.1,4.4-0.2,6.5c0,2.2-0.1,4.4-0.1,6.5c0,2.2,0,4.4-0.1,6.5v3.3c0,1.1,0,2.2,0,3.3
		c0,2.2,0.2,4.3,0.4,6.5c0.2,2.1,0.6,4.2,1.1,6.3c0.6,2,1.3,4,2.4,5.9c0.5,0.9,1.1,1.8,1.8,2.6c0.7,0.8,1.4,1.6,2.2,2.3
		c0.8,0.7,1.7,1.2,2.6,1.7s2,0.8,3,1.1c1,0.2,2.1,0.3,3.2,0.2c1-0.1,2.1-0.4,3-0.9l0.1,0.2c-0.9,0.6-2,1-3.1,1.3s-2.2,0.2-3.4,0
		c-1.1-0.2-2.2-0.5-3.3-0.9s-2-1-3-1.7c-1.8-1.4-3.3-3.1-4.6-5c-1.2-1.9-2.1-4-2.8-6.2c-0.7-2.2-1.1-4.3-1.4-6.6s-0.5-4.4-0.6-6.6
		c-0.1-2.2-0.1-4.4-0.2-6.6c0-2.2,0-4.4,0-6.6c0-1.1,0-2.2,0-3.3s0-2.2,0.1-3.3c0.1-2.2,0.1-4.4,0.3-6.6c0.1-2.2,0.2-4.4,0.4-6.6
		c0.1-2.2,0.3-4.4,0.5-6.6c0.3-4.4,0.7-8.7,1.1-13.1c0.4-4.4,0.9-8.7,1.4-13.1c1-8.7,1.9-17.4,2.6-26.1c0.7-8.7,1.1-17.5,1.8-26.2
		c0.3-4.4,0.7-8.7,1.1-13.1l0.6-6.5l0.7-6.5c0.2-2.2,0.5-4.4,0.7-6.5l0.4-3.3l0.4-3.3c0.5-4.4,1-8.7,1.7-13L355.3,453.3z"/>
	<path fill="#EFC2A0" d="M238,354.6c-2.8,1.2-5.6,2.7-8.7,2.6c-2.5-0.1-4.9-1.2-7.3-2.1c-7.1-2.6-14.6-3.4-22-4.1
		c-1.8-0.2-3.6-0.3-5.2,0.1c-2.1,0.6-3.7,2.2-5.5,3.4c-3.1,2.1-7,3.1-10.9,2.9c-6.2-0.4-12.9-3.8-18.5-1.4
		c-7.8,3.4-6.3,14.5-8.3,22.6c-0.3,1.2-0.7,2.4-1.6,3.3c-1.8,1.8-4.8,1.6-7.5,1.4c-13.4-1-14.2-3.3-26.7,0.2
		c-2.7,0.7-5.3,17.1-7.1,19c-5.4,5.6-14.7,31.2-9.7,37.9c5.5,7.5,7.7,12.8,13.2,20.3c6.8,9.1,3.7,21.5,12.6,28.8
		c7.3,5.9-3.9,15.9,2.8,22.5c8.7,8.5,4.5,5,12.6,14c0.9,0.9,38.7-10,40-9.8c1.2,0.2,9-8.1,9.9-8.7c26.5-16.6,50.2-38.9,60.9-68
		c1.7-4.5,3.1-9.3,5.9-13.2c2.4-3.3,5.7-5.7,8.8-8.4c16.9-14.4,27.5-35.5,29-58c-2.5-2.9-23.4,0-22.3-0.7
		C275.3,357.6,251,349,238,354.6"/>
	<path fill="#C07359" d="M126.5,509.6c4.1-0.5,8.2-1,12.3-1.5l3.1-0.3c1-0.1,2-0.2,3-0.5s1.9-0.6,2.6-1.2c0.7-0.6,1.4-1.4,1.8-2.3
		c1-1.8,1.6-3.8,2.8-5.5c0.6-0.9,1.4-1.6,2.2-2.3c0.8-0.7,1.6-1.3,2.3-2c0.4-0.4,0.7-0.7,1-1.1c0.1-0.2,0.3-0.4,0.4-0.6
		c0.1-0.1,0.1-0.2,0.2-0.3l0.1-0.4c0.4-0.9,0.3-2,0-2.9c-0.4-1-0.9-1.8-1.5-2.6c-0.3-0.4-0.6-0.8-0.9-1.3c-0.3-0.4-0.6-0.9-0.8-1.4
		c-1-1.9-1.7-3.9-1.9-6c-0.1-0.5-0.1-1-0.1-1.6c0-0.5,0-1.1,0-1.5c0-0.5-0.1-0.9-0.3-1.3c-0.2-0.3-0.6-0.5-1-0.6s-1-0.2-1.5-0.3
		l-1.5-0.3l-3-0.7c-2-0.5-4-0.9-6-1.4l-12.1-2.9c-1-0.2-2-0.4-3-0.6c-1-0.1-2-0.2-3.1-0.2c-1,0-2,0.1-3.1,0.3c-1,0.2-2,0.4-3,0.8
		V467c0.9-0.4,1.9-0.8,2.9-1s2.1-0.4,3.1-0.4c2.1-0.1,4.2,0.1,6.2,0.5c2,0.4,4.1,0.9,6.1,1.3s4,0.9,6.1,1.4c2,0.5,4,0.9,6,1.4l3,0.7
		l1.5,0.4c0.5,0.1,1,0.2,1.5,0.4c0.3,0.1,0.6,0.2,0.8,0.4c0.3,0.2,0.5,0.4,0.7,0.7c0.4,0.5,0.4,1.2,0.5,1.7c0,0.5,0,1.1,0,1.6
		s0,1,0.1,1.5c0.2,2,0.7,4,1.6,5.8c0.4,0.9,1,1.8,1.6,2.6c0.3,0.4,0.6,0.9,0.8,1.3c0.3,0.5,0.5,0.9,0.7,1.4c0.4,1,0.4,2.1,0,3.1
		l-0.1,0.4c-0.1,0.1-0.1,0.2-0.2,0.4c-0.1,0.2-0.3,0.5-0.4,0.7c-0.3,0.4-0.7,0.8-1,1.2c-0.7,0.7-1.5,1.4-2.3,2.1s-1.4,1.4-2,2.3
		c-0.5,0.9-0.9,1.8-1.3,2.8c-0.4,1-0.7,1.9-1.2,2.9s-1.1,1.9-2,2.6s-1.9,1.1-2.9,1.4s-2.1,0.4-3.1,0.5l-3.1,0.2
		c-4.1,0.3-8.2,0.6-12.4,0.8L126.5,509.6z"/>
	<path fill="#F0543B" d="M180.7,490.6c0.1-1.1,0.2-2.3,0-3.4c-0.3-1.5-1.2-2.7-1.9-4c-3.1-5.9-2.7-12.8-2.3-19.4
		c6.3-3.4,13.7,2.2,20.8,2.4c3.4,0.1,6.7-1.1,9.9-2.2c7.6-2.7,15.3-5.5,21.4-10.8c1.2-1.1,2.4-2.3,2.6-3.9c0.1-0.8,0-1.6,0.2-2.4
		c0.3-0.8,0.9-1.5,1.6-2c4.5-4,9-8,13.5-12c2.4-2.1,5.4-4.4,8.5-3.7c-3.2,3.2-3.8,8.1-5,12.4c-1.6,5.6-4.6,10.8-7.6,15.8
		c-3.4,5.7-6.8,11.3-11,16.4c-6.3,7.6-14.3,13.8-22.1,19.8c-9,6.9-18.1,15.8-27.9,21.3C177.9,510.1,180.2,496.2,180.7,490.6"/>
	<path fill="#C07359" d="M153.3,472.1c-0.4-1.3-0.7-2.7-1.1-4l-0.5-2c-0.2-0.7-0.3-1.3-0.5-2c-0.3-1.3-0.6-2.6-1.2-3.9
		c-0.6-1.3-1.3-2.4-2-3.6c-0.4-0.6-0.8-1.2-1.1-1.8c-0.3-0.6-0.6-1.2-0.9-1.9c-0.5-1.3-0.9-2.7-1.2-4c-0.4-1.3-0.7-2.6-1.3-3.8
		c-0.6-1.2-1.4-2.3-2.6-3V442c0.6,0.2,1.3,0.6,1.8,1.1s1,1,1.4,1.6c0.8,1.2,1.3,2.5,1.7,3.9c0.4,1.3,0.7,2.7,1.1,3.9
		c0.2,0.6,0.5,1.3,0.7,1.9c0.3,0.6,0.6,1.2,0.9,1.9c0.6,1.2,1.2,2.5,1.9,3.7c0.6,1.2,1.2,2.5,1.7,3.8c0.2,0.7,0.4,1.3,0.6,2
		c0.1,0.7,0.3,1.4,0.4,2C153.2,469.3,153.4,470.7,153.3,472.1L153.3,472.1z"/>
	<path fill="#C07359" d="M177.1,463.5c1-2.3,2.1-4.5,3.2-6.8l0.9-1.7c0.3-0.6,0.6-1.1,0.8-1.7c0.5-1.2,0.6-2.4,0.6-3.7
		c0-1.2,0.1-2.5,0.2-3.8c0.1-1.2,0.4-2.5,0.6-3.7c0.6-2.4,1.3-4.8,2.1-7.2l0,0c-0.7,2.4-1.4,4.8-1.9,7.2c-0.3,1.2-0.5,2.4-0.7,3.7
		s-0.3,2.5-0.3,3.7c0,0.6-0.1,1.2-0.2,1.9c-0.1,0.6-0.3,1.2-0.5,1.8c-0.4,1.2-1,2.3-1.5,3.4C179.5,459,178.3,461.3,177.1,463.5
		L177.1,463.5z"/>
	<path fill="#C07359" d="M209.9,449.7c-0.3,1-0.5,2.1-0.5,3.1c0,1.1,0.1,2.1,0.4,3.2c0.2,1,0.4,2.1,0.7,3.1l0.4,1.6
		c0.1,0.5,0.2,1,0.3,1.6c-0.1-0.5-0.3-1-0.4-1.5l-0.4-1.5c-0.3-1-0.5-2.1-0.7-3.1c-0.1-0.5-0.2-1.1-0.2-1.6
		c-0.1-0.5-0.1-1.1-0.1-1.6s0.1-1.1,0.2-1.6C209.5,450.7,209.7,450.2,209.9,449.7"/>
	<path fill="#C07359" d="M210.9,445.6c0.7-0.5,1.6-0.8,2.5-0.9s1.8-0.1,2.7,0s1.8,0.1,2.7,0.2s1.8,0.1,2.7,0.1s1.8,0,2.7,0.1
		s1.8,0.1,2.7,0.1c0.4,0,0.9,0,1.3,0.1c0.4,0,0.9,0.1,1.3,0.1c0.9,0.1,1.8,0.3,2.6,0.5l0,0c-0.9-0.1-1.8-0.2-2.6-0.3
		c-0.4-0.1-0.9-0.1-1.3-0.1c-0.4,0-0.9,0-1.3-0.1c-0.9,0-1.8-0.1-2.7-0.1s-1.8-0.1-2.7-0.2s-1.8-0.1-2.7-0.1s-1.8,0-2.7-0.1
		s-1.8-0.1-2.6,0C212.6,445,211.7,445.2,210.9,445.6L210.9,445.6z"/>
	<path fill="#C07359" d="M254.8,430c-1-0.7-1.8-1.5-2.6-2.4s-1.5-1.8-2.2-2.7c-0.7-0.9-1.4-1.9-2.1-2.9c-0.7-1-1.3-2-1.8-3
		c-0.6-1-1-2.1-1.3-3.3c-0.3-1.1-0.5-2.3-0.8-3.5c-0.2-1.1-0.5-2.3-0.8-3.4c-0.4-1.1-0.9-2.2-1.6-3.1l0,0c0.8,0.9,1.4,2,1.8,3.1
		c0.4,1.1,0.7,2.3,0.9,3.4s0.4,2.3,0.7,3.4s0.7,2.2,1.2,3.3s1.1,2.1,1.8,3c0.7,1,1.4,1.9,2.2,2.8l1.1,1.4c0.4,0.5,0.7,0.9,1.1,1.4
		C253.2,428.4,253.9,429.3,254.8,430L254.8,430z"/>
	<path fill="#F0543B" d="M273.5,359.4c-2.3,1.2-5.1,0.5-7.7,0.9c-3,0.5-5.4,2.6-8.1,3.9c-3.6,1.7-7.6,2.1-11.5,2.5
		c-1.5-1.5-4.1-3.6-5.6-5.1c-1.2-1.2-2.5-2.5-4.2-3.2c-2.2-0.9-5-0.6-7-2c-3.3,2.9-6.8,6.1-11.2,5.7c-1.1-0.1-2.2-0.4-3.4-0.6
		c-3.4-0.5-6.9,0.4-10,2s-5.8,3.8-8.4,6c-3.1-0.6-4.9-4.5-7.3-6.4c-3.3,2.9-7.1,6.2-11.2,7.9c-4.5,1.9-8.2-2-11.2,1.8
		c-0.3,0.4-4.3-6-4.7-5.7c-1.4,1-10.9,3.1-9.4,4c0,0-4.1,11.8-6.3,12.8"/>
	<path fill="none" d="M177.9,357.5c1.2,1,2.4,2,3.7,2.9c0.8,0.7,1.7,1.3,2.7,1.6c1.7,0.4,4-0.4,5,1.1c1.6-4.6,4.4-8.8,8.2-11.9"/>
	<path fill="#F0533D" d="M139.2,524.7c0.4,0.4,0.9,0.8,1.4,0.9c0.6,0.2,1.3,0.1,1.9-0.1c13.2-2.8,26.3-6,39.3-9.5
		c-4.2-0.1-7.9-2.7-11.9-3.9c-2.8-0.9-5.7-1.1-8.6-1.5c-5.8-0.8-11.6-2.3-17.4-2.8c-3.2-0.3-14.4-0.9-15.3,3.4
		C127.9,515.2,136.7,522.4,139.2,524.7"/>
	<path fill="#F0543B" d="M266.3,377.3c1.1,3.2,2.2,6.5,3.3,9.7c1.6,4.6,3.2,9.4,3.3,14.2c0.1,2.7-0.2,5.6,1.2,7.8
		c6.4-4.6,10.3-11.9,13-19.3c3.2-8.8,5.2-18,7.2-27.1c0.3-1.2-22.2-2.6-24.6-2.2C261.6,361.7,264.4,371.7,266.3,377.3"/>
	<path fill="none" d="M114.6,383.6c2.1,2.6,4.2,5.2,6.4,7.8c1.7,2.1,3.5,4.3,4.2,7c0.2,1,0.4,2,1.2,2.6c0.4,0.3,0.8,0.4,1.2,0.7
		c1,0.8,0.9,2.3,0.9,3.6c-0.1,3,0.4,5.9,1.6,8.6"/>
	<path fill="#F0543B" d="M123.1,394.4c0.6,1.2,1.1,2.4,2,3.4c0.6,0.6,1.2,1.1,1.7,1.8c0.4,0.5,0.6,1.1,0.9,1.7
		c0.9,2.2,1.8,4.4,2.7,6.6c8.4-5.6,15.8-13.9,17.3-23.9c-4.6-0.1-9.3-0.5-13.8-1.4c-1.7-0.3-3.4-0.7-5.2-0.9
		c-2.1-0.2-11.5-0.4-12.4,2.3C115.8,385.2,122.2,392.5,123.1,394.4"/>
	<path fill="#EFC2A0" d="M185.5,387.1c1-0.8,2.2-1.3,3.4-1.6c1.2-0.3,2.5-0.3,3.8-0.2c0.6,0.1,1.3,0.3,1.9,0.5
		c0.6,0.2,1.2,0.4,1.8,0.7c1.1,0.5,2.3,0.9,3.5,1.1c-1.3,0.1-2.5-0.2-3.7-0.6c-0.6-0.2-1.2-0.4-1.8-0.5c-0.6-0.2-1.2-0.3-1.8-0.4
		s-1.2-0.1-1.8-0.1s-1.2,0-1.8,0.1C187.8,386.2,186.6,386.6,185.5,387.1"/>
	<path fill="#EFC2A0" d="M203.7,387.9c1.4-0.7,2.9-1.1,4.5-1.4c0.4,0,0.8-0.1,1.2-0.1h1.2c0.4,0,0.8,0,1.2,0l1.2,0.1l1.2,0.2
		l1.1,0.3l1.1,0.4c0.4,0.1,0.7,0.3,1.1,0.5c1.4,0.7,2.8,1.5,3.9,2.6c-1.3-0.8-2.7-1.5-4.1-2.1c-0.4-0.1-0.7-0.2-1.1-0.4l-1.1-0.3
		l-1.1-0.3l-1.1-0.2l-1.1-0.1c-0.4,0-0.8,0-1.1-0.1h-1.1c-0.4,0-0.8,0-1.1,0C206.7,387.2,205.2,387.5,203.7,387.9"/>
	<path fill="#EFC2A0" d="M186.8,390.4c0.3-0.3,0.7-0.5,1.1-0.6c0.4-0.1,0.8-0.1,1.2-0.2c0.8,0,1.6-0.1,2.4,0c0.4,0,0.8,0.1,1.2,0.1
		c0.4,0.1,0.8,0.1,1.2,0.2c0.8,0.2,1.6,0.5,2.2,0.9c-0.8-0.2-1.5-0.4-2.3-0.6c-0.8-0.1-1.6-0.2-2.4-0.2c-0.8,0-1.6-0.1-2.4-0.1
		c-0.4,0-0.8,0-1.2,0C187.5,390.1,187.1,390.2,186.8,390.4"/>
	<path fill="#EFC2A0" d="M195.4,392.5c-2.3,0.4-4.8,0.2-7-0.6c-0.2-0.1-0.5-0.2-0.7-0.3c0.8-0.8,2.9-0.7,4-0.5
		c0.7,0.1,1.4,0.3,2,0.5C194.1,391.7,195.2,392.6,195.4,392.5"/>
	<path fill="#EFC2A0" d="M205.8,392.2c0.7-0.5,1.5-0.8,2.3-1s1.7-0.2,2.6-0.1c0.4,0.1,0.9,0.1,1.3,0.2c0.4,0.1,0.8,0.3,1.2,0.4
		c0.8,0.3,1.5,0.7,2.3,1.1c-0.8-0.2-1.6-0.5-2.4-0.7c-0.8-0.3-1.6-0.5-2.4-0.6c-0.4-0.1-0.8-0.1-1.2-0.1s-0.8,0-1.2,0.1
		C207.4,391.7,206.6,391.9,205.8,392.2"/>
	<path fill="#EFC2A0" d="M210.6,393.2c1.4,0.1,2.6,0.9,3.7,1.7c-2.1,0.4-4.4,0.6-6.3-0.4c-0.4-0.2-0.9-0.5-1.3-0.6
		C207.9,393.5,209.4,393.1,210.6,393.2"/>
	<path fill="#EFC2A0" d="M198.8,390.7c0.2,0.9,0.1,1.8-0.1,2.6c-0.2,0.9-0.5,1.7-0.8,2.5c-0.6,1.6-1.3,3.3-2.1,4.8
		c-0.4,0.8-0.8,1.6-1.2,2.3c-0.4,0.8-0.9,1.5-1.4,2.3c-0.2,0.4-0.4,0.7-0.5,1.1s0.1,0.8,0.3,1.1c0.2,0.3,0.6,0.6,0.9,0.8
		c0.4,0.2,0.8,0.4,1.2,0.5c-0.4-0.1-0.9-0.2-1.2-0.4c-0.4-0.2-0.8-0.4-1.1-0.8s-0.5-0.8-0.5-1.3s0.2-0.9,0.5-1.3
		c0.9-1.5,1.7-3,2.5-4.6s1.5-3.1,2.1-4.8c0.3-0.8,0.7-1.6,0.9-2.4c0.1-0.4,0.2-0.8,0.3-1.3C198.8,391.5,198.9,391.1,198.8,390.7"/>
	<path fill="#EFC2A0" d="M194.7,407.8c-0.4-0.1-0.7-0.4-0.9-0.8v-0.1v-0.1c0.1-0.1,0.2-0.1,0.3-0.1s0.2,0,0.3,0.1
		c0.2,0.1,0.3,0.2,0.4,0.4c0.1,0.3,0.1,0.7,0.3,0.9C195,408.1,194.9,407.9,194.7,407.8c0-0.2,0-0.3-0.1-0.5
		c-0.1-0.1-0.2-0.2-0.3-0.3c-0.1-0.1-0.2-0.1-0.3,0v-0.1C194.2,407.3,194.4,407.6,194.7,407.8"/>
	<path fill="#EFC2A0" d="M197.2,408.8c0.1-0.2,0.2-0.3,0.3-0.5s0.3-0.2,0.5-0.3c0.3-0.1,0.8-0.2,1.1,0h0.1v0.1v0.5v0.1H199
		c-0.3,0-0.6,0-0.8-0.1c-0.3,0-0.6-0.1-0.8-0.1c0.3,0,0.6,0,0.8-0.1s0.6,0,0.8,0l-0.1,0.1V408l0.1,0.1c-0.3-0.1-0.6-0.1-1,0
		c-0.2,0-0.3,0.1-0.4,0.2C197.4,408.5,197.3,408.6,197.2,408.8"/>
	<path fill="#EFC2A0" d="M200,405.9h0.1c0.1,0,0.1,0,0.1,0.1c0.1,0,0.1,0.1,0.2,0.2c0.1,0.1,0.2,0.3,0.2,0.4
		c0.1,0.3,0.3,0.5,0.4,0.8c0.1,0.3,0.2,0.6,0.1,1c0,0.2-0.1,0.4-0.3,0.5s-0.4,0.1-0.5,0.1c0.2,0,0.3-0.1,0.3-0.2
		c0.1-0.1,0.1-0.2,0.1-0.3c0-0.2-0.1-0.5-0.2-0.8s-0.2-0.6-0.3-0.9c0-0.1-0.1-0.3-0.1-0.5c0-0.1,0-0.1,0-0.2S200.1,405.9,200,405.9"
		/>
	<path fill="#EFC2A0" d="M195.8,410.1c0.1,0.4,0.1,0.8,0.1,1.1c0,0.1,0,0.2,0,0.3c0,0.1,0,0.2,0,0.2l0,0c0,0,0,0,0.1,0s0.2,0,0.3,0
		c0.2,0,0.4,0,0.5,0.1c0.1,0,0.1,0,0.2,0c0,0,0.1,0,0.1-0.1s0-0.1,0.1-0.2l0.1-0.3c0.1-0.2,0.1-0.4,0.2-0.5c0,0.2,0,0.4,0.1,0.6v0.3
		c0,0.1,0,0.2,0,0.3c0,0.1-0.1,0.1-0.1,0.2s-0.1,0.1-0.2,0.1c-0.1,0.1-0.2,0.1-0.4,0.1s-0.4,0-0.6,0c-0.1,0-0.2,0-0.3,0
		s-0.1,0-0.2-0.1c-0.1,0-0.2-0.1-0.2-0.2s0-0.2,0-0.2c0-0.1,0-0.1,0-0.1c0-0.1,0-0.2,0.1-0.3C195.6,410.8,195.7,410.4,195.8,410.1"
		/>
	<path fill="#EFC2A0" d="M190.2,415.8c-0.4-0.1-0.8-0.1-1.1,0.1v-0.1c1.4,0.4,2.8,0.2,4-0.5c0.3-0.1,0.6-0.3,1-0.4
		c0.2,0,0.4,0,0.6,0c0.2,0,0.4,0.1,0.6,0.2c0.3,0.1,0.6,0.3,0.9,0.4c0.1,0,0.3,0,0.4,0s0.3-0.1,0.4-0.2c0.1-0.1,0.3-0.2,0.5-0.3
		c0.2-0.1,0.4-0.1,0.6-0.1s0.4,0.1,0.6,0.2c0.2,0.1,0.3,0.2,0.5,0.3c0.1,0.1,0.3,0.2,0.4,0.4c0.1,0.1,0.3,0.2,0.4,0.3
		c0.3,0.2,0.6,0.4,0.9,0.5c1.2,0.6,2.6,0.9,4,1.1l-0.1,0.1c-0.2-0.3-0.6-0.5-1-0.4c0.4-0.2,0.9,0,1.1,0.4l0.1,0.1h-0.1
		c-1.4-0.1-2.8-0.3-4.2-0.9c-0.3-0.1-0.6-0.3-0.9-0.5c-0.3-0.2-0.6-0.5-0.8-0.7c-0.3-0.2-0.5-0.4-0.8-0.4s-0.5,0.2-0.8,0.4
		c-0.2,0.1-0.3,0.2-0.5,0.2c-0.2,0.1-0.4,0-0.6,0c-0.4-0.1-0.7-0.3-1-0.4s-0.6-0.2-0.9-0.2s-0.6,0.2-0.9,0.3
		c-1.3,0.6-2.9,0.7-4.2,0.2h-0.1l0.1-0.1C189.4,415.6,189.8,415.6,190.2,415.8"/>
	<path fill="#EFC2A0" d="M192.3,417.2c0.6,0.3,1.3,0.5,2,0.4c0.3,0,0.7,0,1.1,0s0.7,0.1,1.1,0.2c0.7,0.2,1.4,0.4,2,0.5
		s1.4,0.1,2.1-0.1c-0.3,0.2-0.6,0.4-1,0.4c-0.4,0.1-0.7,0.1-1.1,0c-0.7-0.1-1.4-0.3-2.1-0.5c-0.3-0.1-0.7-0.2-1-0.2
		c-0.3-0.1-0.7,0-1-0.1C193.6,418,192.9,417.7,192.3,417.2"/>
	<path fill="#EFC2A0" d="M187.9,393.5c0.6,0.2,1.1,0.3,1.6,0.5c0.5,0.1,1.1,0.2,1.6,0.3c0.6,0.1,1.1,0.1,1.7,0.1c0.6,0,1.1,0,1.7,0
		c-0.5,0.2-1.1,0.4-1.7,0.4c-0.6,0.1-1.2,0-1.8,0c-0.6-0.1-1.1-0.2-1.7-0.4C188.9,394.2,188.4,393.9,187.9,393.5"/>
	<path fill="#EFC2A0" d="M206.5,395.5c0.4,0.2,0.8,0.4,1.2,0.5c0.4,0.2,0.8,0.3,1.2,0.4s0.8,0.2,1.2,0.3c0.4,0.1,0.8,0.1,1.3,0.2
		c-0.4,0.1-0.9,0.2-1.3,0.2c-0.4,0-0.9-0.1-1.3-0.2s-0.8-0.3-1.2-0.5C207.1,396.1,206.8,395.8,206.5,395.5"/>
	<path fill="#EFC2A0" d="M192.3,406.3c-0.3,0.5-0.5,1-0.8,1.5s-0.6,1-0.9,1.4c-0.3,0.5-0.6,0.9-1,1.4c-0.4,0.4-0.8,0.8-1.3,1.1
		c0.8-0.8,1.5-1.7,2.1-2.6c0.3-0.5,0.6-0.9,0.9-1.4C191.6,407.2,192,406.8,192.3,406.3"/>
	<path fill="#EFC2A0" d="M201.1,407.2c0.3,0.3,0.5,0.7,0.8,1.1c0.2,0.4,0.4,0.8,0.6,1.2c-0.3-0.3-0.5-0.7-0.8-1.1
		C201.5,408,201.3,407.6,201.1,407.2"/>
	<path fill="#EFC2A0" d="M144.1,396.8c-0.1-0.3-0.4-0.5-0.6-0.6c-0.3-0.1-0.6-0.1-0.8-0.1c-0.5,0.1-1,0.5-1.4,0.9
		c-0.9,0.9-1.7,1.9-2.5,2.8c-0.8,1-1.8,2-2.9,2.8c-0.6,0.4-1.2,0.7-1.8,1c-0.6,0.2-1.3,0.4-2,0.3c1.2-0.5,2.3-1.2,3.2-2
		s1.7-1.8,2.6-2.8c0.9-1,1.7-2,2.9-2.8c0.3-0.2,0.6-0.4,0.9-0.5c0.3-0.1,0.7-0.2,1.1-0.2s0.7,0.2,1,0.4c0.1,0.1,0.3,0.2,0.3,0.4
		C144,396.4,144.1,396.6,144.1,396.8"/>
	<path fill="#EFC2A0" d="M148,395.4v-0.1v-0.1c0.1-0.1,0.1-0.1,0.2-0.2c0.1,0,0.1-0.1,0.2-0.1h0.2c0.1,0,0.3,0,0.4,0
		c0.1,0,0.3,0,0.4,0c0.6,0,1.2,0.1,1.7,0.3c1.1,0.3,2.1,0.9,3.1,1.5c0.9,0.6,1.8,1.4,2.6,2.1s1.6,1.5,2.4,2.2
		c-1.1-0.3-2.1-0.8-3-1.4s-1.8-1.3-2.7-1.9s-1.8-1.2-2.7-1.6c-0.5-0.2-1-0.4-1.5-0.6c-0.1,0-0.3-0.1-0.4-0.1c-0.1,0-0.3-0.1-0.4-0.1
		h-0.2c-0.1,0-0.1,0-0.2,0C148.1,395.2,148,395.2,148,395.4"/>
	<path fill="#EFC2A0" d="M135.2,406.1c0.7-1,1.4-2,2.4-2.9c0.5-0.4,1-0.8,1.5-1.1s1.1-0.5,1.7-0.7c-1.2,0.4-2.2,1.1-3.1,2
		C136.9,404.2,136.1,405.2,135.2,406.1"/>
	<path fill="#EFC2A0" d="M135.8,408.3c0.6,0.1,1.3,0.2,1.9,0.1c0.6-0.2,1.1-0.6,1.6-1c0.7-0.7,1.3-1.6,1.5-2.5
		c0.2-0.8,0.1-2-0.9-1.5c-0.7,0.4-1.5,1.9-2,2.6C137.7,406.2,136.1,408.4,135.8,408.3"/>
	<path fill="#EFC2A0" d="M149.1,398.1c0.2-0.1,0.5-0.1,0.8-0.1c0.3,0.1,0.5,0.2,0.7,0.3c0.4,0.2,0.9,0.5,1.3,0.8s0.9,0.5,1.3,0.8
		c0.4,0.2,0.9,0.5,1.4,0.5c-0.5,0-1-0.1-1.5-0.4c-0.5-0.2-0.9-0.5-1.3-0.7c-0.4-0.3-0.9-0.5-1.3-0.8c-0.2-0.1-0.4-0.2-0.7-0.3
		C149.6,398,149.4,398,149.1,398.1"/>
	<path fill="#EFC2A0" d="M151.3,401.4c0.6,0.4,1.2,0.9,1.8,1.1s1.3,0.3,1.9,0.5c-0.1,0.3-0.4,0.4-0.7,0.4c-1.1,0.2-2.2,0.2-3.2-0.1
		C149.3,402.7,148.8,399.8,151.3,401.4"/>
	<path fill="#EFC2A0" d="M147,399c-0.3,0.6-0.6,1.1-0.8,1.7s-0.3,1.2-0.2,1.8s0.4,1.2,0.7,1.7c0.1,0.3,0.3,0.6,0.4,0.9
		c0.1,0.3,0.1,0.6,0.3,0.9c0.1,0.3,0.4,0.5,0.6,0.8s0.4,0.5,0.6,0.7c0.4,0.5,0.9,0.9,1.4,1.3c0.2,0.2,0.5,0.3,0.8,0.5
		s0.5,0.5,0.6,0.8s0,0.7-0.1,1c-0.1,0.1-0.1,0.3-0.2,0.4c-0.1,0.1-0.2,0.2-0.3,0.3c0.5-0.4,0.7-1.1,0.6-1.7
		c-0.1-0.3-0.3-0.5-0.5-0.7s-0.6-0.3-0.8-0.5c-0.5-0.4-1-0.8-1.4-1.3c-0.2-0.2-0.4-0.5-0.6-0.7c-0.2-0.2-0.4-0.5-0.6-0.8
		c-0.2-0.3-0.2-0.6-0.3-0.9s-0.2-0.6-0.3-0.9c-0.3-0.6-0.6-1.1-0.7-1.8c-0.1-0.6,0.1-1.3,0.3-1.9C146.4,400.1,146.7,399.5,147,399"
		/>
	<path fill="#EFC2A0" d="M146.4,410.5c0.1,0.3,0.1,0.6,0,0.9c0,0.3-0.1,0.6-0.1,0.9s0.1,0.5,0.2,0.7c0.2,0.2,0.4,0.4,0.7,0.3
		c-0.1,0.1-0.3,0.1-0.4,0c-0.1,0-0.3-0.1-0.4-0.2c-0.2-0.2-0.3-0.6-0.4-0.9c0-0.3,0-0.6,0.1-0.9
		C146.4,411.1,146.4,410.8,146.4,410.5"/>
	<path fill="#EFC2A0" d="M148.4,412.4c-0.1-0.1-0.1-0.3,0-0.4s0.1-0.3,0.1-0.4c0.1-0.3,0.4-0.5,0.7-0.6h0.1v0.1
		c0,0.2-0.1,0.4-0.2,0.5c-0.1,0.1-0.2,0.2-0.3,0.3c-0.1,0.1-0.2,0.2-0.3,0.3C148.4,412.2,148.4,412.4,148.4,412.4
		c-0.1-0.1,0-0.2,0.1-0.4s0.2-0.2,0.3-0.3c0.1-0.1,0.2-0.2,0.3-0.3c0.1-0.1,0.1-0.2,0.1-0.3l0.1,0.1c-0.2,0.1-0.5,0.2-0.6,0.4
		c-0.1,0.1-0.1,0.2-0.2,0.4C148.4,412.1,148.4,412.3,148.4,412.4"/>
	<path fill="#EFC2A0" d="M144,419.8c0.4-0.2,0.9-0.4,1.2-0.6c0.4-0.2,0.8-0.5,1.1-0.8s0.6-0.6,0.9-1c0.1-0.2,0.3-0.4,0.5-0.5
		s0.4-0.3,0.7-0.3s0.5,0,0.7,0.1c0.2,0,0.4,0,0.6,0c0.2-0.1,0.3-0.3,0.5-0.4c0.1-0.1,0.2-0.2,0.3-0.2c0.1-0.1,0.3-0.1,0.4-0.1
		c0.3,0,0.5,0.2,0.7,0.3c0.2,0.1,0.4,0.3,0.6,0.4c0.4,0.3,0.7,0.6,1.1,0.9c-0.4-0.3-0.8-0.6-1.1-0.8c-0.2-0.1-0.4-0.3-0.6-0.4
		s-0.4-0.2-0.6-0.2c-0.2,0-0.4,0.1-0.5,0.2c-0.2,0.1-0.3,0.4-0.5,0.5s-0.5,0.1-0.8,0.1c-0.2,0-0.5-0.1-0.7-0.1
		c-0.4,0-0.8,0.4-1.1,0.7c-0.3,0.4-0.6,0.7-1,1s-0.8,0.6-1.2,0.8C144.9,419.5,144.5,419.7,144,419.8"/>
	<path fill="#EFC2A0" d="M147.9,420.3c0.4-0.4,0.9-0.6,1.4-0.8c0.5-0.1,1.1-0.2,1.6-0.2c-0.5,0.1-1,0.2-1.5,0.4
		C148.8,419.9,148.3,420.1,147.9,420.3"/>
	<path fill="#EFC2A0" d="M147.5,423.4c0.6-0.6,1.4-1,2.3-1.2c0.9-0.2,1.8-0.1,2.6,0.3c-0.9-0.2-1.7-0.2-2.5,0
		C149.1,422.5,148.3,422.9,147.5,423.4"/>
	<path fill="#EFC2A0" d="M270.1,369.5c0.5-0.3,0.9-0.6,1.5-0.8c0.3-0.1,0.5-0.2,0.8-0.2s0.6,0,0.9,0c0.6,0.1,1.1,0.3,1.6,0.5
		s1,0.6,1.4,0.9c0.9,0.6,1.8,1.3,2.8,1.5c1,0.3,2.1,0.2,3.2,0.1c-1.1,0.3-2.2,0.5-3.3,0.2c-0.6-0.1-1.1-0.3-1.6-0.6
		c-0.5-0.3-0.9-0.6-1.4-0.9c-0.4-0.3-0.9-0.6-1.4-0.9s-1-0.5-1.5-0.6s-1-0.1-1.5,0.1C271.1,369,270.6,369.3,270.1,369.5"/>
	<path fill="#EFC2A0" d="M286.6,370.7c0.7-0.1,1.2-0.6,1.5-1.2c0.4-0.6,0.6-1.2,0.9-1.9c0.1-0.3,0.3-0.6,0.5-0.9s0.5-0.6,0.8-0.8
		c0.3-0.2,0.7-0.3,1.1-0.3s0.8,0.1,1,0.4c-0.3-0.2-0.6-0.2-1-0.2c-0.3,0-0.6,0.2-0.9,0.4c-0.2,0.2-0.5,0.4-0.6,0.7
		c-0.2,0.3-0.3,0.6-0.5,0.9c-0.3,0.6-0.5,1.3-1,1.9c-0.2,0.3-0.5,0.5-0.8,0.7C287.3,370.7,287,370.8,286.6,370.7"/>
	<path fill="#EFC2A0" d="M273.3,373.5c0.7-0.2,1.4-0.2,2.1-0.1s1.4,0.4,2,0.6c0.6,0.3,1.3,0.6,1.9,1.1c0.5,0.5,0.8,1.2,1,1.9
		c-0.4-0.6-0.8-1.2-1.3-1.6s-1.1-0.7-1.8-1c-0.6-0.3-1.3-0.5-1.9-0.7C274.7,373.6,274,373.5,273.3,373.5"/>
	<path fill="#EFC2A0" d="M288.3,373.9c-0.1,0.1-0.2,0.2-0.2,0.3l-0.1,0.5v-0.5c0-0.4,0-0.8,0.2-1.1c0.2-0.4,0.4-0.7,0.7-1
		c0.3-0.3,0.6-0.5,1-0.6s0.8-0.2,1.1-0.1c-0.4,0.1-0.7,0.3-1,0.4c-0.3,0.2-0.6,0.4-0.8,0.6s-0.5,0.5-0.6,0.8c-0.2,0.3-0.3,0.6-0.4,1
		h-0.1C288,373.9,288.2,373.9,288.3,373.9"/>
	<path fill="#EFC2A0" d="M285.8,374.5c-0.3,1.1-0.7,2.1-1.1,3.1c-0.1,0.2-0.1,0.4,0.1,0.6c0.1,0.2,0.3,0.4,0.5,0.6
		c0.4,0.5,0.6,1.1,0.7,1.6c0.1,0.6,0.1,1.1,0.3,1.6c0.1,0.5,0.3,1,0.7,1.4c0.2,0.2,0.4,0.4,0.6,0.6s0.2,0.6,0.1,0.9
		s-0.2,0.5-0.4,0.8c-0.2,0.2-0.4,0.4-0.5,0.6c0.1-0.2,0.3-0.5,0.4-0.7s0.2-0.5,0.2-0.8c0-0.2,0-0.5-0.2-0.7
		c-0.1-0.2-0.4-0.3-0.6-0.5c-0.1-0.1-0.2-0.2-0.3-0.3c-0.1-0.1-0.2-0.2-0.2-0.4c-0.1-0.3-0.2-0.5-0.3-0.8c-0.1-0.6-0.2-1.1-0.3-1.6
		c-0.1-0.5-0.2-1-0.6-1.4c-0.1-0.2-0.4-0.4-0.5-0.7c-0.1-0.1-0.1-0.3-0.1-0.5s0-0.3,0.1-0.5C284.9,376.5,285.3,375.5,285.8,374.5"/>
	<path fill="#EFC2A0" d="M282.2,384.4c0.1,0.1,0.1,0.2,0.1,0.3c0,0.1,0,0.2,0,0.3c0,0.2-0.1,0.4-0.1,0.5c0,0.3,0.1,0.6,0.3,0.9
		s0.5,0.5,0.8,0.6s0.7,0.2,1.1,0.3c-0.4,0.1-0.8,0.1-1.2,0c-0.4-0.1-0.8-0.3-1.1-0.7c-0.3-0.3-0.4-0.8-0.3-1.2
		c0-0.2,0.1-0.4,0.2-0.5C282.2,384.7,282.2,384.5,282.2,384.4"/>
	<path fill="#EFC2A0" d="M283.9,386.4c0.1-0.1,0.2-0.2,0.4-0.3s0.3-0.1,0.5-0.1s0.4,0.1,0.6,0.2s0.3,0.4,0.2,0.6v0.3l-0.2-0.1
		c-0.2-0.1-0.4-0.1-0.6-0.2s-0.4-0.2-0.5-0.4c0.2,0,0.4,0.1,0.6,0.1l0.6,0.1l-0.3,0.2c0-0.1,0-0.1-0.1-0.2s-0.2-0.1-0.3-0.2
		c-0.1,0-0.2,0-0.4,0C284.2,386.3,284.1,386.3,283.9,386.4"/>
	<path fill="#EFC2A0" d="M286.2,389.3c0.1-0.1,0-0.2,0-0.3c-0.1-0.1-0.2-0.1-0.3-0.1c-0.2,0-0.4,0.1-0.6,0.3
		c-0.1,0.1-0.2,0.1-0.3,0.2s-0.2,0.1-0.4,0.1c-0.2,0-0.5,0-0.7,0s-0.5-0.1-0.7-0.1s-0.4,0-0.6,0.1c-0.4,0.1-0.8,0.4-1.2,0.6
		c-0.9,0.4-1.9,0.5-2.8,0.6c-0.5,0-0.9,0-1.4,0.1s-0.9,0.1-1.3,0.4c0.3-0.3,0.8-0.5,1.3-0.6s0.9-0.1,1.4-0.2
		c0.9-0.1,1.8-0.3,2.6-0.6c0.4-0.2,0.8-0.5,1.3-0.6c0.2-0.1,0.5-0.1,0.8-0.1c0.2,0,0.5,0.1,0.7,0.1c0.5,0.1,0.9,0.2,1.3,0
		c0.2-0.1,0.4-0.2,0.7-0.2c0.1,0,0.2,0.1,0.3,0.2C286.3,389.1,286.3,389.2,286.2,389.3"/>
	<path fill="#EFC2A0" d="M279.7,392c0.3,0.1,0.5,0.2,0.8,0.2c0.2,0,0.5-0.1,0.8-0.1c0.5-0.1,1.1-0.2,1.6-0.2c0.3,0,0.6,0,0.8,0
		c0.3,0,0.5,0,0.8,0c0.2,0,0.5-0.1,0.7-0.2s0.4-0.3,0.5-0.6c0,0.3-0.1,0.6-0.4,0.8c-0.2,0.2-0.5,0.4-0.8,0.4
		c-0.3,0.1-0.6,0.1-0.9,0.1s-0.5,0-0.8,0c-0.5,0-1.1,0.1-1.6,0.1c-0.3,0-0.6,0-0.9,0C280.2,392.3,279.9,392.2,279.7,392"/>
	<path fill="#EFC2A0" d="M191.8,481.6c-1.6-0.3-3.1,0.2-4.3,1.1c-0.3,0.2-0.6,0.5-0.9,0.7c-0.3,0.3-0.5,0.5-0.7,0.9
		c-0.2,0.3-0.4,0.6-0.6,0.9c-0.2,0.3-0.3,0.7-0.5,1c-0.1,0.4-0.3,0.7-0.4,1.1c-0.1,0.4-0.2,0.7-0.3,1.1s-0.1,0.8-0.2,1.1
		s-0.1,0.8-0.1,1.1c-0.1,1.5,0,3.1,0,4.7c-0.3-1.5-0.5-3.1-0.5-4.7c0-0.8,0.1-1.6,0.2-2.4c0.1-0.8,0.4-1.6,0.6-2.3
		c0.3-0.8,0.7-1.5,1.2-2.1c0.3-0.3,0.5-0.6,0.9-0.9c0.3-0.3,0.6-0.5,1-0.7s0.7-0.4,1.1-0.5c0.4-0.1,0.8-0.2,1.2-0.3
		c0.4,0,0.8-0.1,1.2,0C191.1,481.4,191.4,481.5,191.8,481.6"/>
	<path fill="#EFC2A0" d="M198.9,475.7c0.7-1.6,1.6-3.2,2.7-4.6c1.1-1.4,2.4-2.7,3.9-3.7c0.8-0.5,1.6-0.9,2.4-1.3
		c0.8-0.3,1.7-0.6,2.6-0.7c1.8-0.3,3.6,0,5.2-0.6c-0.8,0.5-1.7,0.6-2.5,0.8c-0.9,0.1-1.8,0.2-2.6,0.4c-0.8,0.2-1.7,0.5-2.4,0.8
		c-0.8,0.4-1.5,0.8-2.2,1.2c-0.7,0.5-1.4,1-2,1.6s-1.2,1.2-1.8,1.9C200.9,472.8,199.8,474.2,198.9,475.7"/>
	<path fill="#EFC2A0" d="M188.4,487.6c-1.2,0.8-2,2.1-2.2,3.6c-0.1,1.1,0.1,2.3,0.5,3.3c0,0.1,0.1,0.1,0.1,0.2
		c0.2,0.2,0.5-0.2,0.6-0.5c0.5-1.8,1.2-3.6,2.6-4.8c0.3-0.3,0.7-0.5,1-0.8C193.7,486.2,189.8,486.6,188.4,487.6"/>
	<path fill="#EFC2A0" d="M203.4,474.4c0.9-1,2.2-1.5,3.5-1.8s2.6-0.3,4-0.2c0.2,0,0.4,0.1,0.4,0.2s-0.1,0.2-0.2,0.2
		c-2.8,1.4-5.2,3.4-7.3,5.7c-0.1,0.2-0.3,0.3-0.5,0.5C200.9,480.5,202.6,475.2,203.4,474.4"/>
	<path fill="#EFC2A0" d="M189,495.2c0.3-0.4,0.6-0.8,0.9-1.2l0.9-1.1l0.9-1.1c0.3-0.4,0.6-0.8,0.9-1.1c-0.1,0.5-0.2,1-0.4,1.4
		c-0.2,0.5-0.5,0.9-0.8,1.2c-0.3,0.4-0.7,0.7-1.1,1C189.9,494.8,189.5,495.1,189,495.2"/>
	<path fill="#EFC2A0" d="M204.8,480.9c0.4-0.5,0.8-0.9,1.2-1.2l1.2-1.2l1.2-1.2c0.4-0.4,0.8-0.8,1.2-1.2c-0.2,0.5-0.5,1.1-0.8,1.5
		c-0.3,0.5-0.7,0.9-1.1,1.3c-0.4,0.4-0.9,0.8-1.3,1.1C205.8,480.4,205.3,480.7,204.8,480.9"/>
	<path fill="#EFC2A0" d="M201.5,474.2c0.1-0.3,0.2-0.6,0.4-0.9s0.4-0.5,0.6-0.7s0.5-0.3,0.8-0.5c0.3-0.1,0.6-0.2,0.9-0.1
		c-0.2,0.2-0.4,0.4-0.7,0.6c-0.2,0.2-0.4,0.4-0.7,0.5s-0.4,0.3-0.7,0.5C202,473.9,201.8,474,201.5,474.2"/>
	<path fill="#EFC2A0" d="M188.9,485.9c-0.2,0.3-0.4,0.5-0.6,0.7c-0.2,0.2-0.5,0.4-0.7,0.6s-0.5,0.4-0.8,0.5s-0.5,0.3-0.9,0.5
		c0.1-0.3,0.3-0.6,0.5-0.9s0.4-0.5,0.7-0.7s0.5-0.4,0.8-0.5C188.3,486.1,188.6,486,188.9,485.9"/>
	<path fill="#EFC2A0" d="M193.9,483c0.1,0.8,0.4,1.4,0.8,2.1c0.4,0.6,0.9,1.3,1.1,2c0,0.1,0.1,0.2,0.1,0.3l0.1,0.3
		c0,0.2,0.1,0.4,0.1,0.6c0,0.4-0.1,0.8-0.1,1.2c-0.1,0.4-0.1,0.7-0.1,1.1c0,0.2,0,0.3,0.1,0.5c0,0.2,0.1,0.3,0.2,0.5
		c0.1,0.2,0.1,0.4,0.2,0.6c0,0.2,0.1,0.4,0.1,0.6c0,0.4-0.1,0.8-0.2,1.2c-0.1,0.4-0.2,0.8-0.4,1.1c-0.2,0.4-0.3,0.7-0.4,1
		c-0.1,0.3,0,0.6,0.1,0.9c0.2,0.3,0.4,0.5,0.7,0.7c0.6,0.4,1.4,0.5,2.1,0.6c-0.8,0-1.6,0.1-2.3-0.3c-0.4-0.2-0.7-0.5-0.9-0.8
		c-0.2-0.4-0.4-0.9-0.3-1.3s0.2-0.8,0.4-1.1c0.1-0.4,0.2-0.7,0.3-1c0.1-0.4,0.1-0.7,0.1-1c0-0.2,0-0.3-0.1-0.5
		c0-0.2-0.1-0.3-0.1-0.5s-0.1-0.4-0.2-0.6c-0.1-0.2-0.1-0.4-0.1-0.6c0-0.4,0.1-0.8,0.1-1.2c0.1-0.4,0.1-0.7,0.2-1.1
		c0-0.3,0-0.7-0.1-1c-0.2-0.7-0.6-1.4-0.9-2C194.1,484.6,193.9,483.8,193.9,483"/>
	<path fill="#EFC2A0" d="M197.8,497.4c-0.1,0.1-0.2,0.1-0.4,0.1h-0.1l-0.1-0.1c0-0.1-0.1-0.2,0-0.3s0.1-0.2,0.1-0.3
		c0.1-0.1,0.3-0.2,0.4-0.3c0.2-0.1,0.3-0.1,0.5-0.2c0.1,0,0.2,0,0.4,0.1c0.1,0.1,0.3,0.2,0.3,0.4c0.1,0.2,0,0.3-0.1,0.5
		c-0.1,0.1-0.1,0.2-0.2,0.3c-0.1,0.1-0.2,0.1-0.3,0.1s-0.1,0-0.2,0s-0.1,0-0.1,0C198,497.6,197.9,497.6,197.8,497.4
		c-0.2,0-0.3-0.1-0.5-0.2c0.1-0.1,0.3-0.1,0.4-0.1c0.1,0,0.3,0,0.4,0h0.1l0,0c0,0,0,0,0.1-0.1c0,0,0,0,0-0.1s0,0,0,0
		c0,0.1,0.1,0.1,0,0.1s-0.2,0-0.3,0s-0.2,0.1-0.3,0.1s-0.1,0-0.2,0.1l-0.1-0.1C197.6,497.3,197.7,497.4,197.8,497.4"/>
	<path fill="#EFC2A0" d="M200.9,495.9c-0.1-0.1-0.2-0.3-0.3-0.5s-0.1-0.4,0-0.5c0.1-0.4,0.2-0.7,0.6-1l0.4-0.3l0.2,0.5
		c0.1,0.4,0.1,0.8,0,1.1c-0.1,0.2-0.2,0.3-0.3,0.4S201.2,495.8,200.9,495.9c0.2-0.2,0.2-0.4,0.3-0.5c0-0.1,0.1-0.3,0.1-0.4
		c0-0.2,0-0.5-0.1-0.7l0.6,0.1c-0.2,0.1-0.3,0.4-0.5,0.6c-0.1,0.1-0.1,0.2-0.2,0.4S200.9,495.7,200.9,495.9"/>
	<path fill="#EFC2A0" d="M201.1,490.8c0.4,0,0.8,0.1,1.1,0.2s0.7,0.3,1,0.6c0.3,0.3,0.5,0.7,0.6,1.1s0,0.9-0.3,1.1
		c0-0.4-0.1-0.7-0.3-1c-0.1-0.3-0.3-0.5-0.6-0.7c-0.2-0.2-0.5-0.4-0.8-0.6C201.6,491.3,201.4,491.1,201.1,490.8"/>
	<path fill="#EFC2A0" d="M205.1,490.9c0.3-0.3,0.6-0.6,1-0.8c0.4-0.2,0.7-0.4,1.1-0.5c0.4-0.1,0.8-0.2,1.2-0.3c0.4,0,0.8,0,1.3,0.1
		c-0.4,0.2-0.8,0.4-1.1,0.5c-0.4,0.1-0.8,0.3-1.1,0.4c-0.4,0.1-0.8,0.2-1.1,0.4C205.9,490.7,205.5,490.8,205.1,490.9"/>
	<path fill="#EFC2A0" d="M211.9,491.1c0.2-0.4,0.4-0.8,0.5-1.2c0.2-0.4,0.3-0.8,0.5-1.1c0.2-0.4,0.3-0.8,0.4-1.1
		c0.1-0.4,0.3-0.8,0.5-1.2c0.1,0.4,0.1,0.9,0.1,1.3c-0.1,0.5-0.2,0.9-0.3,1.3s-0.4,0.8-0.7,1.2C212.6,490.6,212.2,490.9,211.9,491.1
		"/>
	<path fill="#EFC2A0" d="M213,486.2c0.2-0.3,0.6-0.6,1-0.8c0.4-0.1,0.9-0.1,1.3,0.1s0.7,0.7,0.8,1.1s0.1,0.8-0.1,1.2
		c-0.1-0.4-0.3-0.7-0.4-1c-0.2-0.3-0.4-0.5-0.6-0.7c-0.2-0.1-0.5-0.2-0.9-0.2C213.8,486,213.4,486.1,213,486.2"/>
	<path fill="#FFFFFF" d="M259.2,630.3c0.1,0,0.3,0.1,0.4,0.2c0.1,0.1,0.1,0.3,0.1,0.4c0,0.3-0.1,0.5-0.2,0.8
		c-0.1,0.1-0.2,0.2-0.3,0.3l-0.3,0.2c-0.2,0.2-0.4,0.3-0.5,0.5c-0.7,0.6-1.5,1.2-2.4,1.6c-1.7,0.9-3.7,1.4-5.7,1.5c-1,0-2,0-3-0.3
		s-2-0.6-2.9-1.2c-0.9-0.6-1.7-1.4-2.2-2.4s-0.9-2.1-0.8-3.2l0.1-0.8l0.8-0.1c0.8-0.2,1.6-0.2,2.3,0l0.6,0.1c0.2,0,0.4,0.1,0.5,0.2
		c0.1,0,0.2,0,0.3,0.1l0.3,0.1c0.2,0.1,0.4,0.1,0.5,0.2c1.3,0.7,2.4,1.8,3.1,3.1c0.1,0.2,0.2,0.3,0.2,0.5l0.2,0.5
		c0.1,0.3,0.2,0.7,0.2,1.1c0.1,0.4,0.1,0.7,0.1,1.1c0,0.4-0.1,0.8-0.2,1.2s-0.4,0.7-0.7,1s-0.6,0.5-0.9,0.6
		c-0.3,0.2-0.6,0.3-0.9,0.4s-0.6,0.2-0.9,0.4c-0.6,0.2-1.3,0.4-2,0.5s-1.4,0.1-2.1-0.1c-0.7-0.2-1.3-0.5-1.9-1c-0.6-0.4-1-1-1.4-1.5
		c-0.4-0.6-0.7-1.2-0.9-1.9s-0.4-1.3-0.5-2c-0.2-1.4-0.2-2.7-0.3-4v-1.3l1.2,0.7c0.9,0.5,1.6,1.1,2.3,1.8s1.2,1.5,1.7,2.4
		c0.4,0.9,0.8,1.8,0.9,2.8c0.2,1,0.2,2,0.1,3l-0.2,1.8l-1.5-1c-0.7-0.5-1.4-0.9-2-1.5s-1.3-1.3-1.8-2.1s-0.8-1.7-1-2.5
		c-0.1-0.4-0.2-0.8-0.3-1.2l-0.2-1.2c-0.3-1.6-0.6-3.3-0.5-5.1s0.7-3.6,1.8-5.1c0.6-0.7,1.2-1.4,1.9-1.9c0.3-0.3,0.7-0.5,1.1-0.8
		c0.2-0.1,0.4-0.2,0.6-0.3c0.2-0.1,0.4-0.2,0.6-0.3c1.5-0.8,3.1-1.3,4.8-1.6c0.4-0.1,0.8-0.2,1.2-0.2l0.6-0.1h0.6
		c0.8,0,1.6,0,2.3-0.2c0.4-0.1,0.7-0.2,1-0.3s0.6-0.3,0.8-0.6s0.4-0.6,0.5-0.9c0.1-0.2,0.1-0.3,0.1-0.5s-0.1-0.4-0.1-0.5l0.2-0.1
		c0.1,0.2,0.2,0.4,0.3,0.6c0.1,0.2,0.1,0.4,0.1,0.7c0,0.4-0.2,0.9-0.4,1.2c-0.1,0.2-0.3,0.4-0.4,0.5c-0.2,0.2-0.4,0.3-0.5,0.4
		c-0.4,0.2-0.8,0.4-1.2,0.5c-0.8,0.3-1.7,0.3-2.4,0.5l-0.6,0.1l-0.6,0.1c-0.4,0.1-0.8,0.2-1.1,0.3s-0.7,0.2-1.1,0.3
		c-0.4,0.1-0.7,0.3-1.1,0.4l-0.5,0.2c-0.2,0.1-0.3,0.2-0.5,0.2c-0.3,0.2-0.7,0.4-1,0.5c-0.2,0.1-0.3,0.2-0.5,0.3
		c-0.1,0.1-0.3,0.2-0.4,0.3c-0.3,0.2-0.6,0.4-0.8,0.7c-0.6,0.5-1,1-1.4,1.6c-0.7,1.2-1.2,2.5-1.2,3.9c0,0.7,0,1.4,0.1,2.2
		c0.1,0.7,0.2,1.5,0.4,2.3c0.3,1.6,0.6,3.1,1.2,4.2c0.6,1.1,1.8,2,3.1,3l-1.7,0.7c0.3-1.5,0-3.2-0.6-4.7c-0.3-0.7-0.7-1.5-1.2-2.1
		s-1.1-1.2-1.8-1.7l1.1-0.6c-0.1,1.3-0.2,2.6-0.1,3.8c0.1,1.3,0.4,2.5,1,3.5c0.3,0.5,0.7,1,1.2,1.4s1,0.7,1.6,0.9
		c0.3,0.1,0.6,0.1,0.9,0.2s0.6,0,0.9-0.1c0.6-0.1,1.2-0.3,1.8-0.6s1.2-0.5,1.7-0.8s0.9-0.7,1.1-1.2c0.1-0.5,0.1-1.1-0.1-1.6
		c-0.1-0.3-0.2-0.5-0.3-0.8l-0.2-0.4c-0.1-0.1-0.2-0.2-0.2-0.4c-1.3-1.9-3.8-3-5.9-2.5l0.8-1c0,0.7,0.1,1.5,0.5,2.1
		c0.4,0.7,0.9,1.3,1.5,1.8c1.3,0.9,3,1.4,4.8,1.5c0.9,0,1.8,0,2.6-0.2c0.9-0.1,1.8-0.3,2.6-0.7c0.9-0.3,1.7-0.7,2.4-1.2
		c0.2-0.1,0.4-0.2,0.6-0.4l0.3-0.2c0.1,0,0.1-0.1,0.2-0.2c0.1-0.2,0.2-0.3,0.3-0.5c0-0.2,0-0.3-0.2-0.4L259.2,630.3z"/>
	<path fill="#F0543B" d="M202.8,387.2c-0.3,0.4-0.6,0.9-0.8,1.3s-0.4,0.9-0.6,1.4c-0.2,0.5-0.3,0.9-0.4,1.4c-0.1,0.5-0.2,1-0.3,1.4
		s-0.1,1-0.1,1.5s0,1,0,1.5s0,1-0.1,1.6c-0.1,0.5-0.2,1-0.5,1.5c-0.6,0.9-1.4,1.5-2,2.3c-0.3,0.4-0.6,0.8-0.8,1.2
		c-0.2,0.4-0.4,0.9-0.6,1.4c-0.4,0.9-0.8,1.9-1.3,2.8c-0.3,0.5-0.6,0.9-1,1.3s-0.9,0.7-1.3,1l0.2-0.6c0.5,0.8,1.2,1.5,1.9,2
		c0.8,0.6,1.6,1,2.5,1.4v0.1c-1-0.1-2-0.4-2.9-1c-0.9-0.5-1.7-1.2-2.3-2l-0.3-0.4l0.4-0.3c0.4-0.2,0.8-0.5,1.1-0.9s0.6-0.7,0.9-1.1
		c0.5-0.8,0.9-1.8,1.4-2.7c0.5-0.9,1-1.8,1.8-2.6c0.4-0.4,0.8-0.7,1.2-1c0.2-0.2,0.4-0.3,0.5-0.5s0.3-0.4,0.4-0.6
		c0.1-0.2,0.2-0.4,0.3-0.7c0.1-0.2,0.1-0.5,0.1-0.7c0-0.5,0-1-0.1-1.5l-0.1-0.8c0-0.3-0.1-0.5-0.1-0.8c0-0.5,0-1.1,0.1-1.6
		s0.2-1,0.4-1.5s0.4-1,0.6-1.5c0.2-0.5,0.5-0.9,0.8-1.3C202,387.9,202.4,387.5,202.8,387.2L202.8,387.2z"/>
	<path fill="#F0543B" d="M203.2,409.2c-0.1,0.1-0.2,0.1-0.4,0.1c-0.1,0-0.1,0-0.2,0c-0.1,0-0.1-0.1-0.2-0.1
		c-0.2-0.2-0.4-0.4-0.5-0.7c-0.1-0.3-0.1-0.6,0.1-0.9c0-0.1,0.1-0.1,0.1-0.2c0.1-0.1,0.1-0.1,0.2-0.1c0.1-0.1,0.3-0.1,0.4-0.2
		c0.3-0.1,0.6-0.1,0.8,0c0.2,0,0.5,0.1,0.7,0.2l0.7,0.2c0.2,0.1,0.5,0.1,0.7,0.3c0.2,0.1,0.5,0.3,0.6,0.6c0.1,0.3,0.1,0.6,0,0.9
		s-0.2,0.5-0.4,0.8s-0.4,0.4-0.7,0.5c-0.6,0.2-1.1,0-1.6-0.2c-0.4-0.3-0.8-0.6-1-1l0.1-0.1c0.4,0.2,0.8,0.4,1.2,0.5
		c0.2,0,0.4,0.1,0.6,0.1c0.2,0,0.4,0,0.5-0.1c0.3-0.1,0.6-0.3,0.7-0.6c0.1-0.1,0.1-0.3,0.1-0.4s-0.1-0.3-0.2-0.5
		c-0.3-0.3-0.7-0.5-1.1-0.6c-0.4-0.1-0.9,0.1-1.2,0.2c-0.1,0-0.1,0.1-0.2,0.1l-0.1,0.1c0,0,0,0-0.1,0.1s-0.1,0.2-0.1,0.4
		c0,0.2,0,0.3,0.1,0.5C202.8,409,203,409.1,203.2,409.2L203.2,409.2z"/>
	<path fill="#F0543B" d="M212.4,389.8c2.5-5,9.3-7.3,14.4-4.9c0.6,0.3,1.1,0.6,1.2,1.2c0.2,1.3-1.6,1.6-2.9,1.6
		c-3.9-0.2-7.9,0.7-11.4,2.6c-0.3,0.2-0.7,0.4-1,0.3c-1-0.2-0.7-1.8,0.2-2.5"/>
	<path fill="#F0543B" d="M194.9,396.7c-1.4-0.8-3.3-0.5-4.7,0.3s-2.6,2-3.7,3.2c-1,1-1.9,2-2.9,3c0.8,0.9,2.4,0.3,3.2-0.6
		s1.3-2.2,2.4-2.7c0.9-0.5,2.1-0.4,3.1-0.5c1-0.2,2.2-0.9,2.2-1.9"/>
	<path fill="#C07359" d="M214.1,393.8c0.9,0.2,1.8,0.3,2.7,0.5l0.7,0.1c0.2,0,0.4,0.1,0.7,0.1c0.2,0,0.5,0,0.7,0s0.5,0,0.7,0
		c0.9-0.1,1.8-0.2,2.7-0.3c0.9-0.1,1.8-0.3,2.7-0.5l0,0c-0.9,0.4-1.8,0.6-2.7,0.8c-0.9,0.1-1.9,0.2-2.8,0.2c-0.2,0-0.5,0-0.7,0
		s-0.5,0-0.7,0s-0.5,0-0.7,0h-0.7C215.9,394.4,215,394.2,214.1,393.8L214.1,393.8z"/>
	<path fill="#C07359" d="M184.5,407.1c0.5-0.2,1-0.5,1.5-0.6c0.3-0.1,0.5-0.2,0.8-0.3c0.1-0.1,0.2-0.1,0.4-0.2s0.2-0.2,0.3-0.2
		c0.2-0.2,0.4-0.4,0.6-0.5c0.2-0.2,0.4-0.4,0.6-0.5c0.4-0.4,0.8-0.7,1.2-1.1l0,0c-0.3,0.5-0.6,0.9-1.1,1.3c-0.1,0.1-0.2,0.2-0.3,0.3
		l-0.3,0.2c-0.1,0.1-0.2,0.2-0.4,0.2c-0.1,0.1-0.2,0.1-0.4,0.2s-0.5,0.3-0.7,0.4c-0.1,0.1-0.2,0.1-0.4,0.2l-0.4,0.2
		C185.7,407,185.1,407.1,184.5,407.1L184.5,407.1z"/>
	<path fill="#C07359" d="M215.1,384.1c0.4-0.3,0.8-0.4,1.2-0.6c0.2-0.1,0.4-0.1,0.6-0.2c0.2-0.1,0.4-0.2,0.6-0.3
		c0.2-0.1,0.4-0.2,0.6-0.3s0.4-0.2,0.6-0.3c0.4-0.1,0.8-0.3,1.3-0.4l0,0c-0.4,0.2-0.8,0.4-1.2,0.6c-0.2,0.1-0.4,0.2-0.6,0.2
		c-0.2,0.1-0.4,0.1-0.6,0.2c-0.2,0.1-0.4,0.1-0.6,0.2s-0.4,0.2-0.6,0.3C215.9,383.9,215.5,384.1,215.1,384.1L215.1,384.1z"/>
	<path fill="#F0543B" d="M105.4,438.2c0.1-2.2,0.2-4.4,0.3-6.5c0-0.7,0.1-1.5,0.4-2.1s1-1,1.6-1.4c1-0.7,2-1.3,3-2
		c0.8-0.6,1.8-1.1,2.8-1c1.1,0.1,1.9,1.1,2.2,2.2c0.3,1.1,0.2,2.2,0.1,3.3c-2.8,0.3-6.1,1.1-6.8,3.8c-0.3,1.1-0.1,2.2-0.6,3.2
		c-0.8,1.5-3.5,1.5-4.3-0.1"/>
	<path fill="#C07359" d="M119,413c0.2,0.4,0.5,0.9,0.8,1.3s0.6,0.8,1,1.1c0.3,0.4,0.7,0.7,1.1,1s0.9,0.5,1.3,0.7
		c0.5,0.2,0.9,0.3,1.4,0.4s1,0.2,1.5,0.3c1,0.2,2,0.3,3,0.4l0,0c-1,0-2,0-3-0.2s-2-0.4-2.9-0.9c-0.5-0.2-0.9-0.5-1.3-0.7
		s-0.8-0.6-1.2-0.9C119.9,414.9,119.3,414,119,413L119,413z"/>
	<path fill="#C07359" d="M133.2,419.6c0.6,0.8,1.1,1.7,1.7,2.5c0.2,0.4,0.5,0.9,0.7,1.3c0.3,0.4,0.5,0.9,0.8,1.3
		c0.6,0.9,1,1.8,1.3,2.8c0.1,0.5,0.2,1,0.1,1.5s-0.2,1-0.5,1.4l0,0c0.2-0.5,0.4-1,0.4-1.4c0-0.5-0.1-1-0.2-1.5
		c-0.2-1-0.7-1.9-1.1-2.8c-0.2-0.5-0.5-0.9-0.8-1.3s-0.6-0.8-0.9-1.3C134.2,421.4,133.7,420.5,133.2,419.6L133.2,419.6z"/>
	<path fill="none" d="M132.3,431.2c-0.3-1.2-0.3-2.5-0.2-3.7c-0.3,1.3-0.1,2.6,0.6,3.7"/>
	<path fill="#F0543B" d="M121.9,409.9c-1.8-4.3-2.3-9.1-1.5-13.8c3.4,3.6,3.6,9.1,3.7,14c-0.8,0.3-1.5,0.7-2.3,0.6s-1.6-0.7-1.6-1.5
		c0-0.4,0.2-0.7,0.3-1c0.6-1.3,1.2-2.5,1.8-3.8"/>
	<path fill="#F0543B" d="M149.9,403.4c0.9,3.2,4,5.3,5.2,8.3c1.7,3.9-0.1,8.4-1.2,12.5c-0.7,2.7-1.1,5.7,0.4,8
		c0.8,1.2,1.9,2,3.1,2.8c4.8,3.4,9.6,6.8,14.5,10.1c2.4,1.7,4.9,3.5,6.7,5.9c1.7,2.5,2.5,5.8,1.2,8.5c3.3-9.4,5.4-19.2,6.1-29.1
		c0.1-1.2,0.1-2.4-0.3-3.5c-0.5-1.5-1.8-2.5-3-3.6c-5.6-5.1-9.2-12.1-12-19.2c-0.8-2.1-1.6-4.3-3.2-5.9c-1.7-1.7-4.1-2.4-6.3-3.3
		c-1.7-0.7-4.8-3.1-6.5-3.1C151,391.9,149.1,400.1,149.9,403.4"/>
	<path fill="#C07359" d="M120.5,430.1c0.6,0.3,1.2,0.7,1.7,1.2l0.3,0.4c0.1,0.1,0.2,0.3,0.3,0.4c0.1,0.1,0.2,0.3,0.3,0.4
		c0.1,0.1,0.2,0.3,0.3,0.4c0.4,0.6,0.6,1.2,0.8,1.9c0.2,0.7,0.2,1.4,0.1,2l0,0c-0.1-0.7-0.1-1.3-0.3-2c-0.2-0.6-0.4-1.3-0.7-1.9
		c-0.1-0.1-0.2-0.3-0.2-0.5c-0.1-0.1-0.2-0.3-0.3-0.4c-0.1-0.1-0.2-0.3-0.3-0.4l-0.4-0.4C121.5,431,121,430.5,120.5,430.1
		L120.5,430.1z"/>
	<path fill="#C07359" d="M143.6,439.8c0.2-0.5,0.5-0.9,0.8-1.3c0.1-0.2,0.3-0.4,0.4-0.6c0.1-0.2,0.3-0.4,0.5-0.6
		c0.3-0.4,0.7-0.7,1-1.1s0.6-0.8,0.9-1.2s0.5-0.9,0.8-1.2c0.3-0.4,0.6-0.8,0.9-1.2c0.6-0.8,1.3-1.5,2.1-2.2l0,0
		c-0.5,0.9-1,1.7-1.6,2.5c-0.3,0.4-0.6,0.8-0.9,1.2s-0.6,0.8-1,1.1s-0.7,0.7-1,1.1s-0.5,0.9-0.8,1.3c-0.1,0.2-0.3,0.4-0.4,0.6
		c-0.2,0.2-0.3,0.4-0.5,0.6C144.3,439.1,144,439.5,143.6,439.8L143.6,439.8z"/>
	<path fill="#FFFFFF" d="M136.1,509.3c-0.9-6.8-0.6-13.7,0.6-20.5c0.3-1.7,0.6-3.4,1.1-5c0.4-1.7,0.9-3.3,1.3-5
		c1-3.3,2.1-6.5,3.3-9.7s2.5-6.4,3.9-9.5s2.8-6.2,4.2-9.3c2.9-6.2,5.9-12.3,9.2-18.3c1.7-3,3.5-5.9,5.4-8.8c0.9-1.4,1.9-2.8,2.9-4.2
		c0.2-0.4,0.5-0.7,0.8-1l0.8-1l1.6-2c0.3-0.4,0.5-0.7,0.8-1l0.8-1l1.6-2c0.1-0.2,0.3-0.3,0.4-0.5l0.4-0.5l0.9-1l1.7-1.9
		c0.1-0.2,0.3-0.3,0.4-0.5l0.4-0.5l0.9-0.9l1.8-1.8l0.4-0.5l0.5-0.4l0.9-0.9l1.9-1.8c5-4.7,10.3-9,15.8-13c2.8-2,5.6-4,8.4-5.8
		c0.4-0.2,0.7-0.5,1.1-0.7l1.1-0.7l2.2-1.4l1.1-0.7l1.1-0.7l2.2-1.3c5.9-3.5,11.9-6.7,18.1-9.6c6.2-2.9,12.6-5.5,19.2-7.5
		c0.8-0.2,1.7-0.5,2.5-0.7s1.7-0.4,2.5-0.6s1.7-0.4,2.5-0.6c0.4-0.1,0.9-0.2,1.3-0.2l1.3-0.2l1.3-0.2c0.4-0.1,0.9-0.1,1.3-0.2
		l2.6-0.3c0.2,0,0.4,0,0.6-0.1h0.6l1.3-0.1l1.3-0.1c0.4,0,0.9,0,1.3,0l2.6-0.1l2.6,0.1h0.6c0.2,0,0.4,0,0.6,0l1.3,0.1l1.3,0.1h0.6
		c0.2,0,0.4,0,0.6,0.1l2.6,0.3c0.4,0,0.9,0.1,1.3,0.2l1.3,0.2l1.3,0.2c0.4,0.1,0.9,0.2,1.3,0.2c0.9,0.2,1.7,0.3,2.5,0.5
		c1.7,0.4,3.4,0.8,5,1.3l1.2,0.4l0.6,0.2l0.6,0.2l2.5,0.8c0.8,0.3,1.6,0.6,2.4,0.9l1.2,0.5l1.2,0.5c0.8,0.4,1.6,0.7,2.4,1l2.3,1.1
		c3.1,1.6,6.1,3.2,9,5.2l1.1,0.7l1.1,0.8c0.7,0.5,1.4,1,2.1,1.5c1.4,1,2.7,2.1,4,3.2s2.6,2.3,3.9,3.4c0.6,0.6,1.2,1.2,1.8,1.8
		l0.9,0.9l0.9,1l0.9,0.9c0.3,0.3,0.6,0.6,0.9,1l1.7,2l0.4,0.5l0.4,0.5l0.8,1c0.5,0.7,1.1,1.4,1.5,2.1l1.5,2.1
		c0.5,0.7,0.9,1.4,1.4,2.2c0.2,0.4,0.5,0.7,0.7,1.1l0.6,1.1l0.6,1.1c0.2,0.4,0.4,0.7,0.6,1.1l1.2,2.3c0.1,0.2,0.2,0.4,0.3,0.6
		l0.3,0.6l0.5,1.2l0.5,1.2c0.2,0.4,0.3,0.8,0.5,1.2l0.9,2.4l-0.2,0.1l-1.1-2.3c-0.2-0.4-0.4-0.8-0.5-1.1l-0.6-1.1l-0.6-1.1l-0.3-0.6
		c-0.1-0.2-0.2-0.4-0.3-0.5l-1.3-2.2c-0.2-0.4-0.4-0.7-0.7-1.1l-0.7-1.1l-0.7-1.1c-0.2-0.4-0.5-0.7-0.7-1l-1.5-2.1l-1.5-2
		c-2.1-2.6-4.3-5.2-6.7-7.5l-0.9-0.9l-0.9-0.9c-0.6-0.6-1.2-1.1-1.9-1.7c-1.3-1.1-2.5-2.2-3.9-3.2c-1.3-1.1-2.7-2-4-3
		c-0.7-0.5-1.4-0.9-2.1-1.4l-1-0.7l-1.1-0.7c-2.8-1.8-5.8-3.4-8.8-4.8l-2.3-1.1c-0.8-0.3-1.5-0.6-2.3-1l-1.2-0.5l-1.2-0.4
		c-0.8-0.3-1.6-0.6-2.4-0.9l-2.4-0.8l-0.6-0.2l-0.6-0.2l-1.2-0.3c-1.6-0.5-3.2-0.9-4.9-1.2c-0.8-0.2-1.6-0.3-2.5-0.5
		c-0.4-0.1-0.8-0.2-1.2-0.2l-1.2-0.2l-1.2-0.2c-0.4-0.1-0.8-0.1-1.2-0.2l-2.5-0.3c-0.2,0-0.4,0-0.6-0.1h-0.6l-1.2-0.1l-1.2-0.1
		c-0.2,0-0.4,0-0.6,0h-0.6l-2.5-0.1h-2.5c-0.4,0-0.8,0-1.2,0l-1.2,0.1l-1.2,0.1h-0.6c-0.2,0-0.4,0-0.6,0.1l-2.5,0.3
		c-0.4,0-0.8,0.1-1.2,0.2l-1.2,0.2l-1.2,0.2c-0.4,0.1-0.8,0.1-1.2,0.2c-0.8,0.1-1.6,0.3-2.5,0.5c-0.8,0.2-1.6,0.4-2.5,0.6
		c-0.8,0.2-1.6,0.4-2.4,0.6c-6.5,1.8-12.8,4.3-19,7c-1.6,0.7-3.1,1.4-4.6,2.1l-2.3,1.1c-0.4,0.2-0.8,0.4-1.1,0.5l-1.1,0.6
		c-3.1,1.5-6.1,3-9,4.7c-3,1.6-5.9,3.3-8.8,5.1l-2.1,1.4c-0.7,0.5-1.4,0.9-2.1,1.4l-2.1,1.4c-0.7,0.5-1.4,1-2.1,1.5
		c-5.5,3.9-10.8,8.2-15.7,12.9l-1.8,1.8l-0.9,0.9l-0.4,0.5l-0.4,0.5l-1.7,1.9l-0.9,0.9l-0.4,0.5c-0.1,0.2-0.3,0.3-0.4,0.5l-1.6,1.9
		l-0.8,1l-0.4,0.5c-0.1,0.2-0.3,0.3-0.4,0.5l-1.6,2l-0.8,1c-0.3,0.3-0.5,0.7-0.8,1l-1.5,2.1l-0.7,1c-0.2,0.4-0.5,0.7-0.7,1
		c-0.9,1.4-1.9,2.8-2.7,4.3c-1.8,2.9-3.4,5.8-5,8.8c-3.2,6-6.1,12.1-9.1,18.2c-1.5,3.1-2.9,6.1-4.3,9.2c-1.4,3.1-2.8,6.2-4,9.3
		c-1.2,3.1-2.5,6.3-3.5,9.5c-0.3,0.8-0.5,1.6-0.8,2.4c-0.2,0.8-0.5,1.6-0.7,2.4c-0.5,1.6-0.9,3.3-1.2,4.9
		c-1.5,6.6-2.2,13.4-1.7,20.2L136.1,509.3z"/>
	<path fill="#F0543B" d="M243.7,368.2c3.8-1.2,7.6-2.4,11.4-3.6c-0.4,6.3-3.8,12-5.1,18.1c-0.5,2.3-0.7,4.6-1.3,6.8
		c-0.9,3.1-2.6,5.8-4.4,8.5c-0.8,1.1-1.6,2.2-1.9,3.6c-0.7,3,1.2,6.4-0.4,9c-0.1-6.1-5.5-10.7-7.8-16.3c-1.5-3.7-1.6-7.9-1.6-11.9
		c0-3.5-0.3-8.9,1.9-11.9C236.6,367.4,240.4,369.2,243.7,368.2"/>
	<path fill="#F0543B" d="M201.3,441.8c-1.1-0.8-2.1-1.7-3.2-2.4c-1.1-0.7-2.6-1.2-3.8-0.8c1.9-0.6,12.4,13.7,14,15.4
		c0.5-2.2,2.4-6.2,1.1-8.4C207.9,443.1,203.6,443.3,201.3,441.8"/>
	<path fill="#F0543B" d="M159.3,465.8c-0.3,0-0.6,0.1-0.9,0c-0.2-0.1-0.4-0.3-0.6-0.5c-0.5-0.6-0.9-1.5-1.7-1.7
		c-0.9-0.2-1.8,0.5-2.2,1.4c-0.3,0.9-0.2,1.9-0.1,2.8c0.4,3.4,0.7,6.9,0.8,10.3c0.9-1.8,1.8-3.6,3.3-5c1.3-1.3,2.9-2.1,4.6-2.9
		c3.7-1.9,8.1-3.5,11.4-6C172.4,461.7,162.2,465.8,159.3,465.8"/>
	<path fill="#F0543B" d="M203.8,417.2c1.5-0.2,2.3-1.7,3.5-2.6c2.5-1.9,5.9-0.8,9-1c5.1-0.2,9.4-3.6,13.3-6.9
		c0.2,2.4-0.5,4.8-1.9,6.7c-2.4,3.2-6.8,4.8-8.7,8.3c-0.4,0.8-0.8,1.7-1.4,2.4c-1,1-2.5,1.3-3.9,1.6c-3.3,0.5-6.6,1-10,1.4
		c-3.1,0.4-6.3,0.7-9.3-0.1s-5.8-3.1-6.4-6.1c2.8,0.1,7.6,1.5,9.6-0.8c0.9-1,0.2-2.7,1.7-3.5C200.5,416.1,202.5,417.2,203.8,417.2"
		/>
	<path fill="#F0543B" d="M219.4,403.5c0.4-0.9,0.9-1.6,1.6-2.2c0.2-0.2,0.4-0.3,0.6-0.4c0.1-0.1,0.2-0.1,0.3-0.2l0.3-0.2l0.3-0.2
		c0.1,0,0.2-0.1,0.3-0.1c0.2-0.1,0.4-0.2,0.7-0.2c0.9-0.3,1.8-0.3,2.8-0.3c0.9,0,1.8,0,2.7,0.2h0.2h0.2l0.3,0.1
		c0.2,0,0.4,0.1,0.7,0.2c0.4,0.2,0.9,0.4,1.3,0.6c0.8,0.5,1.5,1.1,2.2,1.8c0.6,0.7,1.2,1.4,1.7,2.2c0.5,0.8,0.9,1.5,1.3,2.4
		l-0.1,0.1c-0.6-0.6-1.2-1.3-1.8-2s-1.2-1.3-1.8-1.9s-1.2-1.2-1.9-1.7s-1.4-0.9-2.2-1.3c-0.8-0.3-1.7-0.5-2.6-0.4
		c-0.9,0.1-1.7,0.4-2.5,0.8c-0.1,0-0.2,0.1-0.3,0.1s-0.2,0.1-0.3,0.1s-0.2,0.1-0.3,0.1l-0.3,0.1c-0.2,0.1-0.4,0.2-0.6,0.3
		c-0.2,0.1-0.4,0.2-0.5,0.3C220.8,402.4,220.1,402.9,219.4,403.5L219.4,403.5z"/>
	<path fill="#C07359" d="M239,412.1c0,0.9,0,1.8,0,2.7c0,0.4-0.1,0.9-0.1,1.3c0,0.5,0,0.9,0,1.3c0.1,0.9,0.1,1.8,0.2,2.6
		c0,0.9,0.1,1.8,0.1,2.7l0,0c-0.2-0.9-0.2-1.8-0.3-2.6c-0.1-0.9-0.1-1.8,0-2.7c0-0.4,0-0.9,0-1.3s0-0.9-0.1-1.3
		C238.8,413.9,238.9,413,239,412.1L239,412.1z"/>
	<path fill="#F0543B" d="M138.6,434.2c-0.2,0.6-0.4,1.2-0.7,1.8c-0.8,1.3-2.3,2-3.6,2.9c-1.7,1.1-3.3,2.4-4.8,3.7
		c-0.5,0.5-1.1,1.2-0.7,1.8c3.8-1.2,7-3.8,10.1-6.3c0.6-0.5,1.2-1,1.6-1.6c0.6-0.9,0.8-1.9,0.9-3c0.4-2.5,1.6-6.8,0.3-9
		C140.4,427.5,139.6,431,138.6,434.2"/>
	<path fill="#FFFFFF" d="M131.6,508.5c-0.6-1.4-1.2-2.9-1.8-4.3c-0.5-1.5-1-2.9-1.5-4.4s-0.9-3-1.3-4.5s-0.8-3-1.1-4.5
		c-0.2-0.8-0.3-1.5-0.5-2.3l-0.4-2.3c-0.2-1.5-0.5-3.1-0.7-4.6s-0.3-3.1-0.5-4.6c0-0.8-0.1-1.5-0.1-2.3s-0.1-1.5-0.1-2.3
		c-0.1-6.2,0.4-12.4,1-18.6c0.6-6.1,1.3-12.3,2.3-18.4c0.5-3.1,1-6.1,1.7-9.1s1.4-6,2.3-9l0.6-2.2l0.3-1.1c0.1-0.4,0.2-0.7,0.3-1.1
		l0.7-2.2c0.2-0.7,0.5-1.5,0.7-2.2c0.5-1.5,1-2.9,1.5-4.4l0.8-2.2c0.3-0.7,0.5-1.5,0.8-2.2l0.9-2.2c0.3-0.7,0.6-1.4,0.9-2.1
		c0.6-1.4,1.2-2.9,1.9-4.3c0.6-1.4,1.3-2.8,1.9-4.2c0.7-1.4,1.3-2.8,2-4.2c0.7-1.4,1.4-2.8,2.1-4.1s1.4-2.7,2.2-4.1s1.5-2.7,2.3-4
		s1.6-2.7,2.4-4l0.2,0.1c-0.6,1.4-1.2,2.8-1.8,4.2c-0.6,1.4-1.2,2.8-1.8,4.2l-0.9,2.1l-0.9,2.1c-0.6,1.4-1.2,2.8-1.8,4.2
		c-1.2,2.8-2.4,5.7-3.5,8.5l-1.7,4.3c-0.6,1.4-1.1,2.9-1.6,4.3c-0.6,1.4-1.1,2.9-1.6,4.3c-0.3,0.7-0.5,1.4-0.8,2.2l-0.8,2.2
		c-1,2.9-2,5.8-2.9,8.7l-0.4,1.1l-0.3,1.1l-0.7,2.2c-0.1,0.4-0.2,0.7-0.3,1.1l-0.3,1.1c-0.2,0.7-0.4,1.5-0.6,2.2
		c-0.1,0.4-0.2,0.7-0.3,1.1L130,429l-0.6,2.2c-0.1,0.4-0.2,0.7-0.3,1.1l-0.3,1.1l-0.6,2.2c-1.4,6-2.4,12.1-2.9,18.2
		c-0.4,6.1-0.1,12.3,0.3,18.4c0.1,1.5,0.3,3,0.4,4.6c0.2,1.5,0.3,3,0.5,4.6l0.6,4.5l0.7,4.5c0.3,1.5,0.6,3,0.8,4.5l0.5,2.2
		c0.2,0.8,0.3,1.5,0.5,2.2c0.4,1.5,0.7,3,1.1,4.5c0.4,1.5,0.8,3,1.2,4.5L131.6,508.5z"/>
	<path fill="#FFFFFF" d="M126.3,510.9c-0.4-2.2-0.8-4.4-1-6.6l-0.2-1.7l-0.1-0.8l0-0.8c-0.1-1.1-0.2-2.2-0.2-3.3v-0.4v-0.4v-0.8
		l-0.1-1.7v-1.7V491v-1.7c0-0.6,0-1.1,0-1.7c0.1-1.1,0.1-2.2,0.2-3.3c0.3-4.5,0.9-8.9,1.7-13.3c0.8-4.4,1.9-8.8,3.3-13
		c0.2-0.5,0.3-1.1,0.5-1.6l0.6-1.6l0.6-1.6c0.2-0.5,0.4-1,0.6-1.6c0.9-2.1,1.6-4.1,2.6-6.2c1.8-4.1,3.8-8.1,5.9-12l1.6-2.9l1.7-2.9
		l0.8-1.5l0.9-1.4l1.7-2.9l1.8-2.8c0.3-0.5,0.6-1,0.9-1.4l0.9-1.4l0.9-1.4c0.3-0.5,0.6-0.9,0.9-1.4l1.9-2.7
		c5.2-7.2,11.1-14,17.6-20.1l2.4-2.3c0.4-0.4,0.8-0.8,1.2-1.1l1.3-1.1l2.5-2.2l2.6-2.1l1.3-1.1c0.4-0.4,0.9-0.7,1.3-1l2.6-2
		c0.4-0.4,0.9-0.7,1.4-1l1.4-1c0.9-0.6,1.8-1.3,2.8-1.9c3.7-2.5,7.5-4.9,11.5-7c0.5-0.3,1-0.5,1.5-0.8l1.5-0.8
		c0.5-0.3,1-0.5,1.5-0.7l1.5-0.7c2-0.9,4.1-1.8,6.2-2.6c1-0.4,2.1-0.8,3.2-1.1c1.1-0.4,2.1-0.7,3.2-1c0.5-0.2,1.1-0.3,1.6-0.5
		l1.6-0.4c0.5-0.1,1.1-0.3,1.6-0.4l1.6-0.4l1.6-0.3c0.6-0.1,1.1-0.2,1.6-0.3l1.6-0.3c0.3,0,0.6-0.1,0.8-0.1l0.8-0.1l1.7-0.2
		c0.3,0,0.5-0.1,0.9-0.1c0.3,0,0.6,0,0.9,0.1c0.3,0.1,0.6,0.3,0.8,0.5c0.1,0.1,0.2,0.2,0.3,0.5c0,0.1,0,0.2-0.1,0.3
		c-0.1,0.1-0.1,0.2-0.2,0.2c-0.1,0.1-0.3,0.2-0.4,0.2c-0.1,0-0.3,0-0.5,0s-0.3,0-0.5-0.1h-0.1c0,0,0,0-0.1-0.1c0,0,0-0.1-0.1-0.1
		v-0.1c0-0.1,0.1-0.2,0.1-0.3l0.2,0.1v0.1c0,0,0,0,0.1,0s0.2,0,0.3,0c0.2,0,0.5-0.1,0.7-0.2l0.1-0.1c0,0,0,0,0-0.1
		c0,0-0.1-0.1-0.2-0.2c-0.2-0.1-0.4-0.2-0.6-0.3c-0.2-0.1-0.5-0.1-0.7-0.1s-0.5,0.1-0.8,0.1l-1.6,0.3l-0.8,0.2
		c-0.3,0-0.5,0.1-0.8,0.2l-1.6,0.4l-1.6,0.4l-1.6,0.4l-1.6,0.4c-0.5,0.2-1.1,0.3-1.6,0.5l-1.6,0.5c-0.5,0.2-1,0.4-1.6,0.5
		c-1,0.4-2.1,0.7-3.1,1.1s-2.1,0.8-3.1,1.2c-2,0.9-4,1.8-6,2.8l-1.5,0.8c-0.5,0.2-1,0.5-1.5,0.8l-1.4,0.8c-0.5,0.3-1,0.5-1.4,0.8
		c-3.8,2.2-7.5,4.5-11.1,7c-7.2,5-14.1,10.5-20.6,16.5c-3.2,3-6.4,6.1-9.4,9.3c-1.5,1.6-3,3.2-4.5,4.9c-0.4,0.4-0.7,0.8-1.1,1.2
		l-1.1,1.3c-0.7,0.8-1.4,1.7-2.1,2.5l-2.1,2.6c-0.7,0.9-1.3,1.8-2,2.6c-1.4,1.8-2.6,3.6-3.8,5.4c-0.6,0.9-1.2,1.9-1.8,2.8l-0.9,1.4
		l-0.8,1.4c-0.6,1-1.1,1.9-1.6,2.9l-1.5,2.9c-0.2,0.5-0.5,1-0.8,1.5l-0.7,1.5l-0.7,1.5c-0.2,0.5-0.5,1-0.7,1.5l-1.3,3l-0.3,0.8
		l-0.3,0.8L136,446c-0.8,2-1.5,4.2-2.2,6.2l-1,3.2l-0.5,1.6c-0.1,0.5-0.3,1.1-0.4,1.6c-1.2,4.2-2.2,8.5-3.1,12.8l-0.6,3.2l-0.5,3.3
		c-0.1,0.5-0.2,1.1-0.2,1.6l-0.2,1.6l-0.2,1.6l-0.1,0.8l-0.1,0.8c-0.5,4.4-0.7,8.8-0.8,13.2c0,4.4,0.2,8.8,0.5,13.3L126.3,510.9z"/>
	<path fill="#6B3D41" d="M286.1,649.3c14.9-0.4,27.2,4.7,38.4,7.7c-3.9,0.9-12.1,2.7-15.9,4c-11.4,3.8-22.4,2.1-33.4-2.5
		c-1.5-0.6-3.3-0.2-4.9-0.3c-4.3-0.2-8.6-0.2-12.9-0.8c-0.7-0.1-1.9-3.3-1.6-4.6c1.2-4.5,2.7-8.8,4.5-13c1.4-3.2,12.6-3.5,13.6,0
		c1.9,6.4,6.6,4.2,10.2,8C284.9,648.5,286.6,649.8,286.1,649.3"/>
	<path fill="#D6B047" d="M268.4,463.4c-0.4,0.1-0.9,0.1-1.3,0s-0.9-0.3-1.2-0.5c-0.8-0.4-1.4-1-2.1-1.5s-1.3-1-1.9-1.3
		s-1.4-0.5-2.1-0.6c-1.5-0.1-3.1,0.1-4.5,1c-0.7,0.4-1.3,1-1.8,1.6c-0.6,0.6-1,1.3-1.4,2s-0.8,1.4-1.2,2.1s-0.9,1.4-1.3,2.1
		c-0.9,1.4-1.9,2.8-2.9,4c-2.1,2.6-4.5,4.9-7.2,6.8l-0.1-0.1c1-1.3,2.1-2.6,3.1-3.9l0.8-1c0.3-0.3,0.5-0.6,0.8-1l1.5-1.9
		c1-1.3,2-2.6,3-3.9c0.5-0.6,1-1.3,1.5-2s1-1.3,1.6-2c1.1-1.3,2.3-2.5,3.7-3.5c0.7-0.5,1.4-0.9,2.2-1.2c0.8-0.3,1.7-0.6,2.6-0.6
		s1.8,0.2,2.6,0.7c0.8,0.5,1.5,1,2,1.6c0.6,0.6,1.1,1.2,1.8,1.7s1.3,0.9,2.1,1v0.4H268.4z"/>
	<path fill="#D6B047" d="M280.1,432.1c-0.3,0.8-0.7,1.5-1.2,2.3c-0.2,0.4-0.5,0.7-0.7,1c-0.3,0.3-0.5,0.7-0.8,1
		c-0.6,0.6-1.3,1.1-1.9,1.7s-1.2,1.2-1.8,1.8c-0.3,0.3-0.6,0.6-0.9,0.9s-0.6,0.5-1,0.8c-0.6,0.5-1.2,1.1-1.7,1.7s-0.9,1.3-1.1,2
		s-0.2,1.6,0.1,2.4H269c-0.3-0.3-0.5-0.7-0.6-1.2s-0.1-0.9-0.1-1.4c0.1-0.9,0.5-1.8,1-2.5s1.2-1.3,1.9-1.8c0.7-0.5,1.4-1,2.1-1.4
		c0.7-0.5,1.4-1,1.9-1.6c0.6-0.6,1-1.3,1.5-2l0.4-0.5l0.4-0.5l0.8-1C279,433.3,279.5,432.7,280.1,432.1L280.1,432.1z"/>
	<path fill="#D6B047" d="M279.2,552.1c-2.2,0.1-4.3,0.1-6.5,0.2l-3.2,0.1c-1.1,0-2.1,0.1-3.2,0.1c-2.2,0-4.3-0.1-6.5-0.2
		s-4.3-0.2-6.5-0.3l-1.6-0.2c-0.5-0.1-1.1-0.2-1.6-0.3c-0.3,0-0.5-0.1-0.8-0.2l-0.8-0.2c-0.5-0.1-1.1-0.3-1.6-0.5
		c-2.1-0.7-4.1-1.5-6.1-2.3c-1-0.4-2-0.7-3-1c-0.5-0.1-1-0.3-1.5-0.4c-0.5-0.1-1-0.2-1.6-0.4c-2.1-0.5-4.2-0.8-6.3-1.3v-0.1
		c2.2,0.1,4.3,0.2,6.5,0.5c2.1,0.3,4.3,0.8,6.4,1.5c2.1,0.7,4,1.7,6,2.4c0.5,0.2,1,0.4,1.5,0.5l0.8,0.2c0.2,0.1,0.5,0.2,0.8,0.2
		c0.5,0.1,1,0.3,1.6,0.4l1.6,0.3c2.1,0.4,4.3,0.6,6.4,0.6s4.3-0.2,6.5-0.4c1.1-0.1,2.1-0.1,3.2-0.1h1.6c0.5,0,1.1,0,1.6,0
		c2.2,0,4.3,0.2,6.5,0.6L279.2,552.1z"/>
	<path fill="#D6B047" d="M275.4,578.2c0-0.2,0.2-0.3,0.4-0.4c0.2-0.1,0.4-0.1,0.5,0c0.1,0,0.2,0,0.3,0.1c0.1,0,0.2,0.1,0.2,0.2
		c0.1,0.1,0.2,0.3,0.3,0.5c0.1,0.3,0.2,0.6,0.3,0.9s0.1,0.6,0.2,0.9c0.1,0.6,0.2,1.2,0.3,1.8c0.1,0.6,0.1,1.2,0.1,1.8s0,1.2-0.1,1.8
		c0,0.6-0.1,1.2-0.1,1.8c0,1.2,0,2.4,0,3.6c0,1.2,0,2.4-0.1,3.6l-0.1,0.9l-0.1,0.9c0,0.3-0.1,0.6-0.1,0.9l-0.2,0.9
		c-0.1,0.6-0.3,1.2-0.4,1.8s-0.4,1.2-0.5,1.7c-0.1,0.3-0.2,0.6-0.3,0.9c-0.1,0.3-0.2,0.6-0.3,0.8c-0.2,0.6-0.5,1.1-0.8,1.7h-0.1
		c0.1-0.6,0.2-1.2,0.3-1.8c0.1-0.6,0.2-1.2,0.3-1.8c0.2-1.2,0.4-2.3,0.6-3.5l0.3-1.8l0.2-0.9l0.1-0.9l0.6-3.5c0-0.3,0.1-0.6,0.1-0.9
		c0-0.3,0.1-0.6,0.1-0.9c0-0.6,0-1.2,0-1.8s-0.1-1.2-0.2-1.8l-0.1-0.9c0-0.3-0.1-0.6-0.1-0.9c0-0.3-0.1-0.6-0.1-0.9l-0.1-0.9
		l-0.1-1.8c0-0.3,0-0.6-0.1-0.9s0-0.6-0.1-0.8c0-0.1-0.1-0.2-0.1-0.3l-0.1-0.1l-0.1-0.1C276,578.1,275.7,578.1,275.4,578.2
		L275.4,578.2z"/>
	<path fill="#D6B047" d="M199.2,600c0.3,0.5,0.8,0.9,1.4,1c0.6,0.2,1.1,0.2,1.7,0.1c0.6,0,1.2-0.2,1.8-0.3c0.3-0.1,0.6-0.2,0.9-0.2
		c0.3-0.1,0.6-0.2,0.9-0.2c1.2-0.3,2.5-0.5,3.6-0.9c1.2-0.4,2.3-0.9,3.4-1.5c0.6-0.3,1.1-0.6,1.6-0.9l1.6-0.9
		c1.1-0.6,2.2-1.2,3.3-1.8s2.3-1.1,3.5-1.5c1.2-0.5,2.4-0.8,3.7-1v0.1c-1.1,0.6-2.2,1.1-3.3,1.8l-3.3,1.8c-1.1,0.6-2.2,1.2-3.4,1.7
		c-0.6,0.3-1.2,0.5-1.8,0.8c-0.6,0.2-1.2,0.4-1.8,0.7c-1.2,0.4-2.4,0.8-3.6,1.3s-2.3,1.1-3.5,1.5c-0.3,0.1-0.6,0.2-0.9,0.3
		c-0.3,0.1-0.6,0.2-0.9,0.3c-0.6,0.1-1.3,0.2-2,0.2s-1.4-0.1-2-0.5c-0.6-0.3-1.1-0.9-1.2-1.5L199.2,600z"/>
	<path fill="#D6B047" d="M344.7,414.4c-1.6,0.2-3.2,0.3-4.8,0.4h-1.2h-1.2c-0.8,0-1.6,0-2.4,0c-1.6,0-3.2-0.1-4.8-0.1
		c-0.8,0-1.6,0-2.4,0s-1.6,0.1-2.4,0.1s-1.6,0.1-2.4,0c-0.8,0-1.6-0.1-2.4-0.2c-1.6-0.2-3.2-0.6-4.7-1.1s-3-1.1-4.5-1.7
		s-2.9-1.4-4.2-2.2v-0.1c3,1.1,6,2.2,9,3.1l1.1,0.3l1.1,0.3c0.8,0.2,1.5,0.4,2.3,0.5c1.5,0.3,3.1,0.4,4.7,0.5s3.2,0.1,4.8,0
		c1.6,0,3.2-0.2,4.8-0.3c0.8,0,1.6-0.1,2.4-0.1h1.2h1.2C341.5,414.1,343.1,414.2,344.7,414.4L344.7,414.4z"/>
	<path fill="#D6B047" d="M304.5,468.5c0.2,0.1,0.4,0.3,0.6,0.5c0.2,0.1,0.4,0.3,0.6,0.5s0.4,0.3,0.6,0.5s0.4,0.3,0.5,0.5
		c0.2,0.2,0.3,0.4,0.5,0.6s0.4,0.4,0.5,0.5c0.2,0.1,0.4,0.3,0.6,0.4s0.5,0.2,0.7,0.3c0.2,0.1,0.5,0.2,0.7,0.3
		c0.2,0.1,0.5,0.2,0.7,0.3c0.2,0.1,0.5,0.2,0.7,0.2c0.2,0.1,0.5,0.2,0.7,0.2c0.9,0.4,1.8,0.7,2.8,1.1v0.1c-1,0.1-2.1,0-3.1-0.3
		c-0.2-0.1-0.5-0.2-0.7-0.3c-0.2-0.1-0.5-0.2-0.7-0.4c-0.2-0.1-0.5-0.2-0.7-0.4c-0.2-0.1-0.4-0.3-0.6-0.5s-0.4-0.3-0.6-0.5
		s-0.4-0.3-0.6-0.4s-0.4-0.3-0.7-0.4c-0.2-0.1-0.5-0.2-0.7-0.4c-0.2-0.1-0.4-0.3-0.6-0.5s-0.4-0.4-0.5-0.6c-0.2-0.2-0.3-0.4-0.4-0.6
		C304.6,469,304.5,468.8,304.5,468.5L304.5,468.5z"/>
</g>
</svg>