<!-- Generator: Adobe Illustrator 24.2.3, SVG Export Plug-In  -->
<svg version="1.1" xmlns="http://www.w3.org/2000/svg" xmlns:xlink="http://www.w3.org/1999/xlink" x="0px" y="0px" width="462.1px"
	 height="807.6px" viewBox="0 0 462.1 807.6" overflow="visible" enable-background="new 0 0 462.1 807.6" xml:space="preserve">
<defs>
</defs>
<path fill="#2D2A2B" d="M15.7,0C7,0,0,7,0,15.7v776.2c0,8.7,7,15.7,15.7,15.7h430.6c8.7,0,15.7-7,15.7-15.7V15.7
	C462.1,7,455,0,446.4,0H15.7z"/>
<path fill="#F0533A" d="M375.3,33.6c0-0.3,0.3-0.6,0.6-0.6c0.3,0,0.6,0.3,0.6,0.6v3.3c0,0,0,0,0,0v1.1c0,0.2,0.1,0.3,0.3,0.3
	c0.2,0,0.3-0.1,0.3-0.3v0h0v-4.4v-1.9c0-0.3,0.3-0.6,0.6-0.6c0.3,0,0.6,0.3,0.6,0.6v4.9v1v0.1c0,0.2,0.1,0.3,0.3,0.3
	c0.2,0,0.3-0.1,0.3-0.3v-0.1v-1v-4.9v-0.5c0-0.3,0.3-0.6,0.6-0.6c0.3,0,0.6,0.3,0.6,0.6v1V37v1v0.1v0.1c0,0.2,0.1,0.3,0.3,0.3
	c0.2,0,0.3-0.1,0.3-0.3v-0.1V38v-1v-4.8c0-0.3,0.3-0.6,0.6-0.6c0.3,0,0.6,0.3,0.6,0.6v4v1.4v2.3c-1.3,0.1-2.4,1.3-2.4,2.7
	c0,0.2,0.1,0.3,0.3,0.3c0.2,0,0.3-0.1,0.3-0.3c0-1.2,0.9-2.1,2.1-2.1c0.2,0,0.3-0.1,0.3-0.3h0v-2.6v-1.4c0-0.3,0.3-0.6,0.6-0.6
	c0.3,0,0.6,0.3,0.6,0.6v3.3V42c0,2.4-1.9,4.3-4.3,4.3c-2.4,0-4.3-1.9-4.3-4.3v-2.5V39v-2.9V33.6z M374.7,39v3c0,2.7,2.2,4.9,4.9,4.9
	c2.7,0,4.9-2.2,4.9-4.9v-0.5h0v-5.4c0-0.7-0.5-1.2-1.2-1.2c-0.2,0-0.4,0.1-0.6,0.2v-3c0-0.7-0.5-1.2-1.2-1.2c-0.2,0-0.4,0.1-0.6,0.2
	c0-0.6-0.6-1.1-1.2-1.1c-0.5,0-0.9,0.3-1.1,0.7c-0.2-0.2-0.5-0.2-0.7-0.2c-0.7,0-1.2,0.5-1.2,1.2v0.9c-0.2-0.1-0.4-0.2-0.6-0.2
	c-0.7,0-1.2,0.5-1.2,1.2L374.7,39L374.7,39z"/>
<path fill="#F0533A" d="M78.8,33.6c0-0.3,0.3-0.6,0.6-0.6c0.3,0,0.6,0.3,0.6,0.6v3.3c0,0,0,0,0,0v1.1c0,0.2,0.1,0.3,0.3,0.3
	c0.2,0,0.3-0.1,0.3-0.3v0h0v-4.4v-1.9c0-0.3,0.3-0.6,0.6-0.6c0.3,0,0.6,0.3,0.6,0.6v4.9v1v0.1c0,0.2,0.1,0.3,0.3,0.3
	c0.2,0,0.3-0.1,0.3-0.3v-0.1v-1v-4.9v-0.5c0-0.3,0.3-0.6,0.6-0.6c0.3,0,0.6,0.3,0.6,0.6v1V37v1v0.1v0.1c0,0.2,0.1,0.3,0.3,0.3
	c0.2,0,0.3-0.1,0.3-0.3v-0.1V38v-1v-4.8c0-0.3,0.3-0.6,0.6-0.6c0.3,0,0.6,0.3,0.6,0.6v4v1.4v2.3c-1.3,0.1-2.4,1.3-2.4,2.7
	c0,0.2,0.1,0.3,0.3,0.3c0.2,0,0.3-0.1,0.3-0.3c0-1.2,0.9-2.1,2.1-2.1c0.2,0,0.3-0.1,0.3-0.3h0v-2.6v-1.4c0-0.3,0.3-0.6,0.6-0.6
	c0.3,0,0.6,0.3,0.6,0.6v3.3V42c0,2.4-1.9,4.3-4.3,4.3c-2.4,0-4.3-1.9-4.3-4.3v-2.5V39v-2.9V33.6z M78.2,39v3c0,2.7,2.2,4.9,4.9,4.9
	c2.7,0,4.9-2.2,4.9-4.9v-0.5h0v-5.4c0-0.7-0.5-1.2-1.2-1.2c-0.2,0-0.4,0.1-0.6,0.2v-3c0-0.7-0.5-1.2-1.2-1.2c-0.2,0-0.4,0.1-0.6,0.2
	c0-0.6-0.6-1.1-1.2-1.1c-0.5,0-0.9,0.3-1.1,0.7c-0.2-0.2-0.5-0.2-0.7-0.2c-0.7,0-1.2,0.5-1.2,1.2v0.9c-0.2-0.1-0.4-0.2-0.6-0.2
	c-0.7,0-1.2,0.5-1.2,1.2L78.2,39L78.2,39z"/>
<g>
	<path fill="#4675BA" d="M93.8,770.4c0,0.9-5.8,0.6-6.2,1.4c-0.3,0.8,4,4.5,3.3,5.1c-0.6,0.6-4.5-3.5-5.4-3.2
		c-0.8,0.3-0.5,5.9-1.4,5.9c-0.9,0-0.6-5.6-1.4-5.9c-0.8-0.3-4.8,3.8-5.4,3.2c-0.6-0.6,3.7-4.3,3.3-5.1c-0.3-0.8-6.2-0.5-6.2-1.4
		s5.8-0.6,6.2-1.4c0.3-0.8-4-4.5-3.3-5.1c0.6-0.6,4.5,3.5,5.4,3.2c0.8-0.3,0.5-5.9,1.4-5.9c0.9,0,0.6,5.6,1.4,5.9
		c0.8,0.3,4.8-3.8,5.4-3.2c0.6,0.6-3.7,4.3-3.3,5.1C88,769.8,93.8,769.6,93.8,770.4"/>
	<path fill="#F0533A" d="M81.4,766.8c-0.4,0.8-0.3,1.8-0.3,2.7c0.1,0.9,0.1,1.8,0.2,2.7c0,0.5,0.1,0.9,0.2,1.4
		c0.5,1.4,2.1,1.8,3.4,2.1c3.2,0.7,3.6-4.5,2.9-7.1C87.2,766,82.9,763.5,81.4,766.8"/>
	<path fill="#4675BA" d="M85.1,774c-0.3,0.3-0.5,0.3-0.8,0.1c0.3-0.3,0.3-0.3-0.1-0.6c-0.1-0.1-0.1-0.2-0.2-0.3
		c0.1,0,0.2-0.1,0.3-0.2c0.2-0.3,0.2-0.3-0.1-0.4c0,0-0.1-0.1-0.1-0.1c0,0,0-0.1,0-0.1c0.1,0,0.3-0.2,0.3-0.3c0-0.3,0-0.6,0-0.8
		c0,0-0.1,0-0.2-0.1c-0.1-0.1-0.2-0.3-0.2-0.4c0-0.2,0.1-0.2,0.2-0.3c0.1-0.2,0.2-0.3,0.2-0.4c0-0.1,0-0.2,0-0.3
		c0-0.3,0-0.4-0.3-0.5c0,0,0-0.1-0.1-0.1c0,0,0,0,0,0c0.2-0.1,0.3-0.3,0.3-0.3c0-0.1-0.1-0.1-0.3-0.3c-0.2-0.3-0.2-0.4,0-0.6
		c0,0,0,0,0,0c0.3-0.4,0.3-0.3,0-0.6c0.3-0.3,0.5-0.2,0.8,0c-0.3,0.3-0.3,0.3,0,0.5c0.2,0.3,0.3,0.5,0,0.5c0,0-0.1,0-0.1,0.1
		c-0.1,0.1-0.2,0.3-0.2,0.3c0,0.1,0.1,0,0.3,0.2c0,0,0.1,0.1,0.1,0.1c0,0,0,0.1,0,0c-0.1,0-0.3,0.1-0.3,0.2c0,0.3,0,0.5,0,0.8
		c0,0,0.1,0,0.1,0.1c0.1,0.1,0.2,0.4,0.2,0.5c0,0.2,0,0.2-0.2,0.3c-0.2,0.2-0.2,0.4-0.2,0.5c0,0,0,0,0,0c0,0.2,0,0.4,0,0.5
		c0,0.1,0.1,0.1,0.3,0.4c-0.1-0.1-0.2,0-0.2,0c-0.2,0.1-0.2,0.3-0.1,0.4c0,0,0,0,0,0c0.2,0.2,0.3,0.4,0.3,0.5c0,0.1-0.1,0.1-0.3,0.4
		C84.7,773.8,84.9,773.9,85.1,774"/>
	<path fill="#4675BA" d="M391,770.4c0,0.9-5.8,0.6-6.2,1.4c-0.3,0.8,4,4.5,3.3,5.1c-0.6,0.6-4.5-3.5-5.4-3.2
		c-0.8,0.3-0.5,5.9-1.4,5.9s-0.6-5.6-1.4-5.9c-0.8-0.3-4.8,3.8-5.4,3.2c-0.6-0.6,3.7-4.3,3.3-5.1c-0.3-0.8-6.2-0.5-6.2-1.4
		s5.8-0.6,6.2-1.4c0.3-0.8-4-4.5-3.3-5.1c0.6-0.6,4.5,3.5,5.4,3.2c0.8-0.3,0.5-5.9,1.4-5.9s0.6,5.6,1.4,5.9c0.8,0.3,4.8-3.8,5.4-3.2
		c0.6,0.6-3.7,4.3-3.3,5.1C385.2,769.8,391,769.6,391,770.4"/>
	<path fill="#F0533A" d="M378.6,766.8c-0.4,0.8-0.3,1.8-0.3,2.7c0.1,0.9,0.1,1.8,0.2,2.7c0,0.5,0.1,0.9,0.2,1.4
		c0.5,1.4,2.1,1.8,3.4,2.1c3.2,0.7,3.6-4.5,2.9-7.1C384.4,766,380.1,763.5,378.6,766.8"/>
	<path fill="#4675BA" d="M382.3,774c-0.3,0.3-0.5,0.3-0.8,0.1c0.3-0.3,0.3-0.3-0.1-0.6c-0.1-0.1-0.1-0.2-0.2-0.3
		c0.1,0,0.2-0.1,0.3-0.2c0.2-0.3,0.2-0.3-0.1-0.4c0,0-0.1-0.1-0.1-0.1c0,0,0-0.1,0-0.1c0.1,0,0.3-0.2,0.3-0.3c0-0.3,0-0.6,0-0.8
		c0,0-0.1,0-0.2-0.1c-0.1-0.1-0.2-0.3-0.2-0.4c0-0.2,0.1-0.2,0.2-0.3c0.1-0.2,0.2-0.3,0.2-0.4c0-0.1,0-0.2,0-0.3
		c0-0.3,0-0.4-0.3-0.5c0,0,0-0.1-0.1-0.1c0,0,0,0,0,0c0.2-0.1,0.3-0.3,0.3-0.3c0-0.1-0.1-0.1-0.3-0.3c-0.2-0.3-0.2-0.4,0-0.6
		c0,0,0,0,0,0c0.3-0.4,0.3-0.3,0-0.6c0.3-0.3,0.5-0.2,0.8,0c-0.3,0.3-0.3,0.3,0,0.5c0.2,0.3,0.3,0.5,0,0.5c0,0-0.1,0-0.1,0.1
		c-0.1,0.1-0.2,0.3-0.2,0.3c0,0.1,0.1,0,0.3,0.2c0,0,0.1,0.1,0.1,0.1c0,0,0,0.1,0,0c-0.1,0-0.3,0.1-0.3,0.2c0,0.3,0,0.5,0,0.8
		c0,0,0.1,0,0.1,0.1c0.1,0.1,0.2,0.4,0.2,0.5c0,0.2,0,0.2-0.2,0.3c-0.2,0.2-0.2,0.4-0.2,0.5c0,0,0,0,0,0c0,0.2,0,0.4,0,0.5
		c0,0.1,0.1,0.1,0.3,0.4c-0.1-0.1-0.2,0-0.2,0c-0.2,0.1-0.2,0.3-0.1,0.4c0,0,0,0,0,0c0.2,0.2,0.3,0.4,0.3,0.5c0,0.1-0.1,0.1-0.3,0.4
		C381.9,773.8,382.1,773.9,382.3,774"/>
	<polygon fill="#F0533A" points="438.8,443.5 432.8,444.1 432.2,449.7 431.6,444.1 425.5,443.5 431.6,443 432.2,437.4 433.1,443.3 	
		"/>
	<polygon fill="#F0533A" points="37.4,248.4 31.3,248.9 30.7,254.5 30.1,248.9 24.1,248.4 30.1,247.8 30.7,242.2 31.7,248.1 	"/>
	<path fill="#4675BA" d="M35.5,233.5c0,0-6.4-0.4-6.4-0.4c0,0,6.3,0.7,6.3,0.7c0,0-6.3-0.9-6.3-0.9c0,0,6.3,1.2,6.3,1.2
		c0,0-6.2-1.3-6.2-1.3c0,0,6.2,1.7,6.1,1.7c0,0-6.1-1.8-6.1-1.8c0,0,6,2.1,6,2.1c0,0-5.9-2.3-5.9-2.2c0,0,5.8,2.6,5.8,2.6
		c0,0-5.7-2.7-5.8-2.7c0,0,5.6,3,5.6,3c0,0-5.5-3.1-5.5-3.1c0,0,5.3,3.4,5.3,3.4c0,0-5.3-3.5-5.3-3.5c0,0,5.1,3.8,5,3.8
		c0,0-5-3.9-5-3.9c0,0,4.7,4.2,4.7,4.2c0,0-4.6-4.3-4.7-4.2c0,0,4.4,4.5,4.4,4.5s-4.3-4.6-4.3-4.6c0,0,4,4.8,4,4.8
		c0,0-3.9-4.9-3.9-4.9c0,0,3.7,5.1,3.6,5.1c0,0-3.5-5.2-3.5-5.2c0,0,3.2,5.3,3.2,5.4c0,0-3.1-5.4-3.1-5.4c0,0,2.8,5.6,2.8,5.6
		c0,0-2.7-5.6-2.7-5.6c0,0,2.4,5.8,2.4,5.8c0,0-2.2-5.8-2.2-5.8c0,0,1.9,5.9,1.9,5.9c0,0-1.8-6-1.8-6c0,0,1.4,6.1,1.4,6.1
		c0,0-1.3-6.1-1.3-6.1c0,0,0.9,6.1,0.9,6.1c0,0-0.8-6.2-0.8-6.2c0,0,0.5,6.2,0.4,6.2c0,0-0.3-6.2-0.3-6.2c0,0,0,6.2,0,6.2
		c0,0,0.2-6.2,0.2-6.2c0,0-0.5,6.2-0.5,6.2c0,0,0.7-6.2,0.6-6.2c0,0-1,6.1-1,6.1c0,0,1.1-6.1,1.1-6.1c0,0-1.5,6-1.5,6
		c0,0,1.6-6,1.6-6c0,0-1.9,5.9-2,5.9c0,0,2.1-5.9,2.1-5.9c0,0-2.4,5.8-2.4,5.7c0,0,2.6-5.7,2.5-5.7c0,0-2.9,5.6-2.9,5.5
		c0,0,3-5.5,3-5.5c0,0-3.3,5.3-3.3,5.3c0,0,3.4-5.2,3.4-5.3c0,0-3.7,5.1-3.7,5.1c0,0,3.8-5,3.8-5c0,0-4.1,4.8-4.1,4.8
		c0,0,4.2-4.7,4.2-4.7c0,0-4.4,4.5-4.5,4.4c0,0,4.6-4.3,4.5-4.4c0,0-4.8,4.1-4.8,4.1c0,0,4.9-4,4.9-4c0,0-5.1,3.8-5.1,3.7
		c0,0,5.2-3.6,5.2-3.6c0,0-5.4,3.4-5.4,3.3c0,0,5.4-3.2,5.4-3.2c0,0-5.6,3-5.6,2.9c0,0,5.7-2.8,5.7-2.8c0,0-5.8,2.5-5.8,2.5
		c0,0,5.9-2.4,5.9-2.4c0,0-6,2.1-6,2.1c0,0,6.1-1.9,6.1-2c0,0-6.2,1.6-6.2,1.6c0,0,6.2-1.5,6.2-1.5c0,0-6.3,1.2-6.3,1.1
		c0,0,6.3-1,6.3-1c0,0-6.3,0.7-6.3,0.7c0,0,6.4-0.5,6.4-0.5c0,0-6.4,0.2-6.4,0.2c0,0,6.4-0.1,6.4-0.1c0,0-6.4-0.3-6.4-0.3
		c0,0,6.4,0.4,6.4,0.4c0,0-6.3-0.7-6.3-0.7c0,0,6.3,0.9,6.3,0.9c0,0-6.3-1.2-6.3-1.2c0,0,6.2,1.3,6.2,1.3c0,0-6.1-1.7-6.1-1.7
		c0,0,6.1,1.8,6.1,1.8c0,0-6-2.1-6-2.1c0,0,5.9,2.3,5.9,2.2c0,0-5.8-2.6-5.8-2.6c0,0,5.7,2.7,5.8,2.7c0,0-5.6-3-5.6-3
		c0,0,5.5,3.1,5.5,3.1c0,0-5.3-3.4-5.3-3.4c0,0,5.3,3.5,5.3,3.5c0,0-5.1-3.8-5-3.8c0,0,5,3.9,5,3.9c0,0-4.7-4.1-4.7-4.2
		c0,0,4.6,4.3,4.7,4.2c0,0-4.4-4.5-4.4-4.5c0,0,4.3,4.6,4.3,4.6c0,0-4-4.8-4-4.8c0,0,3.9,4.9,3.9,4.9c0,0-3.7-5.1-3.6-5.1
		c0,0,3.5,5.2,3.5,5.2c0,0-3.2-5.3-3.2-5.4c0,0,3.1,5.4,3.1,5.4c0,0-2.8-5.6-2.8-5.6c0,0,2.7,5.6,2.7,5.6c0,0-2.4-5.8-2.4-5.8
		c0,0,2.2,5.8,2.2,5.8c0,0-1.9-5.9-1.9-5.9c0,0,1.8,6,1.8,6c0,0-1.4-6.1-1.4-6.1c0,0,1.3,6.1,1.3,6.1c0,0-0.9-6.1-0.9-6.1
		c0,0,0.8,6.2,0.8,6.2c0,0-0.5-6.2-0.4-6.2s0.3,6.2,0.3,6.2c0,0,0-6.2,0-6.2c0,0-0.2,6.2-0.2,6.2c0,0,0.5-6.2,0.5-6.2
		c0,0-0.7,6.2-0.6,6.2c0,0,1-6.1,1-6.1c0,0-1.1,6.1-1.1,6.1c0,0,1.5-6,1.5-6c0,0-1.6,6-1.6,6c0,0,1.9-5.9,2-5.9s-2.1,5.9-2.1,5.9
		c0,0,2.4-5.8,2.4-5.7c0,0-2.6,5.7-2.5,5.7c0,0,2.9-5.6,2.9-5.5c0,0-3,5.5-3,5.5c0,0,3.3-5.3,3.3-5.3c0,0-3.4,5.2-3.4,5.3
		c0,0,3.7-5.1,3.7-5.1c0,0-3.8,5-3.8,5c0,0,4.1-4.8,4.1-4.8c0,0-4.2,4.7-4.2,4.7c0,0,4.4-4.5,4.5-4.4c0,0-4.6,4.3-4.5,4.4
		c0,0,4.8-4.1,4.8-4.1s-4.9,4-4.9,4c0,0,5.1-3.8,5.1-3.7c0,0-5.2,3.6-5.2,3.6c0,0,5.4-3.4,5.4-3.3c0,0-5.4,3.2-5.4,3.2
		c0,0,5.6-3,5.6-2.9c0,0-5.7,2.8-5.7,2.8c0,0,5.8-2.5,5.8-2.5c0,0-5.9,2.4-5.9,2.4c0,0,6-2.1,6-2.1c0,0-6.1,1.9-6.1,2
		c0,0,6.2-1.6,6.2-1.6c0,0-6.2,1.5-6.2,1.5c0,0,6.3-1.2,6.3-1.1c0,0-6.3,1-6.3,1c0,0,6.3-0.7,6.3-0.7c0,0-6.4,0.5-6.4,0.5
		c0,0,6.4-0.2,6.4-0.2c0,0-6.4,0.1-6.4,0.1C29.1,233.2,35.5,233.5,35.5,233.5"/>
	<path fill="#4675BA" d="M34.3,233.2c0,1.9-1.6,3.5-3.6,3.5c-2,0-3.6-1.6-3.6-3.5s1.6-3.5,3.6-3.5C32.7,229.7,34.3,231.3,34.3,233.2
		"/>
	<path fill="#4675BA" d="M35.5,220.2c0,0-6.4-0.4-6.4-0.4c0,0,6.3,0.7,6.3,0.7c0,0-6.3-0.9-6.3-0.9c0,0,6.3,1.2,6.3,1.2
		c0,0-6.2-1.3-6.2-1.3c0,0,6.2,1.7,6.1,1.7c0,0-6.1-1.8-6.1-1.8c0,0,6,2.1,6,2.1c0,0-5.9-2.3-5.9-2.2c0,0,5.8,2.6,5.8,2.6
		c0,0-5.7-2.7-5.8-2.7c0,0,5.6,3,5.6,3c0,0-5.5-3.1-5.5-3.1c0,0,5.3,3.4,5.3,3.4c0,0-5.3-3.5-5.3-3.5c0,0,5.1,3.8,5,3.8
		c0,0-5-3.9-5-3.9c0,0,4.7,4.1,4.7,4.2c0,0-4.6-4.3-4.7-4.2c0,0,4.4,4.5,4.4,4.5s-4.3-4.6-4.3-4.6c0,0,4,4.8,4,4.8
		c0,0-3.9-4.9-3.9-4.9c0,0,3.7,5.1,3.6,5.1c0,0-3.5-5.2-3.5-5.2c0,0,3.2,5.3,3.2,5.4c0,0-3.1-5.4-3.1-5.4c0,0,2.8,5.6,2.8,5.6
		c0,0-2.7-5.6-2.7-5.6c0,0,2.4,5.8,2.4,5.8c0,0-2.2-5.8-2.2-5.8c0,0,1.9,5.9,1.9,5.9c0,0-1.8-6-1.8-6c0,0,1.4,6.1,1.4,6.1
		c0,0-1.3-6.1-1.3-6.1c0,0,0.9,6.1,0.9,6.1c0,0-0.8-6.2-0.8-6.2c0,0,0.5,6.2,0.4,6.2c0,0-0.3-6.2-0.3-6.2c0,0,0,6.2,0,6.2
		c0,0,0.2-6.2,0.2-6.2c0,0-0.5,6.2-0.5,6.2c0,0,0.7-6.2,0.6-6.2c0,0-1,6.1-1,6.1c0,0,1.1-6.1,1.1-6.1c0,0-1.5,6-1.5,6
		c0,0,1.6-6,1.6-6c0,0-1.9,5.9-2,5.9c0,0,2.1-5.9,2.1-5.9c0,0-2.4,5.8-2.4,5.7c0,0,2.6-5.7,2.5-5.7c0,0-2.9,5.6-2.9,5.5
		c0,0,3-5.5,3-5.5c0,0-3.3,5.3-3.3,5.3c0,0,3.4-5.2,3.4-5.3c0,0-3.7,5.1-3.7,5.1c0,0,3.8-5,3.8-5c0,0-4.1,4.8-4.1,4.8
		c0,0,4.2-4.7,4.2-4.7c0,0-4.4,4.5-4.5,4.4c0,0,4.6-4.3,4.5-4.4c0,0-4.8,4.1-4.8,4.1c0,0,4.9-4,4.9-4c0,0-5.1,3.8-5.1,3.7
		c0,0,5.2-3.6,5.2-3.6c0,0-5.4,3.4-5.4,3.3c0,0,5.4-3.2,5.4-3.2c0,0-5.6,3-5.6,2.9c0,0,5.7-2.8,5.7-2.8c0,0-5.8,2.5-5.8,2.5
		c0,0,5.9-2.4,5.9-2.4c0,0-6,2.1-6,2.1c0,0,6.1-1.9,6.1-2c0,0-6.2,1.6-6.2,1.6c0,0,6.2-1.5,6.2-1.5c0,0-6.3,1.2-6.3,1.1
		c0,0,6.3-1,6.3-1c0,0-6.3,0.7-6.3,0.7c0,0,6.4-0.5,6.4-0.5c0,0-6.4,0.2-6.4,0.2c0,0,6.4-0.1,6.4-0.1c0,0-6.4-0.3-6.4-0.3
		c0,0,6.4,0.4,6.4,0.4c0,0-6.3-0.7-6.3-0.7c0,0,6.3,0.9,6.3,0.9c0,0-6.3-1.2-6.3-1.2c0,0,6.2,1.3,6.2,1.3c0,0-6.1-1.7-6.1-1.7
		c0,0,6.1,1.8,6.1,1.8c0,0-6-2.1-6-2.1c0,0,5.9,2.3,5.9,2.2c0,0-5.8-2.6-5.8-2.6c0,0,5.7,2.7,5.8,2.7c0,0-5.6-3-5.6-3
		c0,0,5.5,3.1,5.5,3.1c0,0-5.3-3.4-5.3-3.4c0,0,5.3,3.5,5.3,3.5c0,0-5.1-3.8-5-3.8c0,0,5,3.9,5,3.9c0,0-4.7-4.1-4.7-4.2
		c0,0,4.6,4.3,4.7,4.2c0,0-4.4-4.5-4.4-4.5c0,0,4.3,4.6,4.3,4.6c0,0-4-4.8-4-4.8c0,0,3.9,4.9,3.9,4.9c0,0-3.7-5.1-3.6-5.1
		c0,0,3.5,5.2,3.5,5.2c0,0-3.2-5.3-3.2-5.4c0,0,3.1,5.4,3.1,5.4c0,0-2.8-5.6-2.8-5.6c0,0,2.7,5.6,2.7,5.6c0,0-2.4-5.8-2.4-5.8
		c0,0,2.2,5.8,2.2,5.8c0,0-1.9-5.9-1.9-5.9c0,0,1.8,6,1.8,6c0,0-1.4-6.1-1.4-6.1c0,0,1.3,6.1,1.3,6.1c0,0-0.9-6.1-0.9-6.1
		c0,0,0.8,6.2,0.8,6.2c0,0-0.5-6.2-0.4-6.2c0,0,0.3,6.2,0.3,6.2c0,0,0-6.2,0-6.2c0,0-0.2,6.2-0.2,6.2c0,0,0.5-6.2,0.5-6.2
		c0,0-0.7,6.2-0.6,6.2c0,0,1-6.1,1-6.1c0,0-1.1,6.1-1.1,6.1c0,0,1.5-6,1.5-6c0,0-1.6,6-1.6,6c0,0,1.9-5.9,2-5.9c0,0-2.1,5.9-2.1,5.9
		c0,0,2.4-5.8,2.4-5.7c0,0-2.6,5.7-2.5,5.7c0,0,2.9-5.6,2.9-5.5c0,0-3,5.5-3,5.5c0,0,3.3-5.3,3.3-5.3s-3.4,5.2-3.4,5.3
		c0,0,3.7-5.1,3.7-5.1c0,0-3.8,5-3.8,5c0,0,4.1-4.8,4.1-4.8c0,0-4.2,4.7-4.2,4.7c0,0,4.4-4.5,4.5-4.4c0,0-4.6,4.3-4.5,4.4
		c0,0,4.8-4.1,4.8-4.1c0,0-4.9,4-4.9,4c0,0,5.1-3.8,5.1-3.7c0,0-5.2,3.6-5.2,3.6c0,0,5.4-3.4,5.4-3.3c0,0-5.4,3.2-5.4,3.2
		c0,0,5.6-3,5.6-2.9c0,0-5.7,2.8-5.7,2.8c0,0,5.8-2.5,5.8-2.5c0,0-5.9,2.4-5.9,2.4c0,0,6-2.1,6-2.1c0,0-6.1,1.9-6.1,2
		c0,0,6.2-1.6,6.2-1.6c0,0-6.2,1.5-6.2,1.5c0,0,6.3-1.2,6.3-1.1c0,0-6.3,1-6.3,1c0,0,6.3-0.7,6.3-0.7c0,0-6.4,0.5-6.4,0.5
		c0,0,6.4-0.2,6.4-0.2c0,0-6.4,0.1-6.4,0.1C29.1,219.9,35.5,220.2,35.5,220.2"/>
	<path fill="#4675BA" d="M34.3,219.9c0,1.9-1.6,3.5-3.6,3.5c-2,0-3.6-1.6-3.6-3.5s1.6-3.5,3.6-3.5C32.7,216.4,34.3,218,34.3,219.9"
		/>
	<path fill="#4675BA" d="M437,472.5c0,0-6.4-0.4-6.4-0.4c0,0,6.3,0.7,6.3,0.7c0,0-6.3-0.9-6.3-0.9c0,0,6.3,1.2,6.3,1.2
		c0,0-6.2-1.3-6.2-1.3c0,0,6.2,1.7,6.1,1.7c0,0-6.1-1.8-6.1-1.8c0,0,6,2.1,6,2.1c0,0-5.9-2.3-5.9-2.2c0,0,5.8,2.6,5.8,2.6
		c0,0-5.7-2.7-5.8-2.7c0,0,5.6,3,5.6,3c0,0-5.5-3.1-5.5-3.1c0,0,5.3,3.4,5.3,3.4c0,0-5.3-3.5-5.3-3.5c0,0,5.1,3.8,5,3.8
		c0,0-5-3.9-5-3.9c0,0,4.7,4.1,4.7,4.2c0,0-4.6-4.3-4.7-4.2c0,0,4.4,4.5,4.4,4.5c0,0-4.3-4.6-4.3-4.6c0,0,4,4.8,4,4.8
		c0,0-3.9-4.9-3.9-4.9c0,0,3.7,5.1,3.6,5.1c0,0-3.5-5.2-3.5-5.2c0,0,3.2,5.3,3.2,5.4c0,0-3.1-5.4-3.1-5.4c0,0,2.8,5.6,2.8,5.6
		c0,0-2.7-5.6-2.7-5.6c0,0,2.4,5.8,2.4,5.8c0,0-2.2-5.8-2.2-5.8c0,0,1.9,5.9,1.9,5.9c0,0-1.8-6-1.8-6c0,0,1.4,6.1,1.4,6.1
		c0,0-1.3-6.1-1.3-6.1c0,0,0.9,6.1,0.9,6.1c0,0-0.8-6.2-0.8-6.2c0,0,0.5,6.2,0.4,6.2c0,0-0.3-6.2-0.3-6.2c0,0,0,6.2,0,6.2
		c0,0,0.2-6.2,0.2-6.2c0,0-0.5,6.2-0.5,6.2c0,0,0.7-6.2,0.6-6.2c0,0-1,6.1-1,6.1c0,0,1.1-6.1,1.1-6.1c0,0-1.5,6-1.5,6
		c0,0,1.6-6,1.6-6c0,0-1.9,5.9-2,5.9c0,0,2.1-5.9,2.1-5.9c0,0-2.4,5.8-2.4,5.7c0,0,2.6-5.7,2.5-5.7c0,0-2.9,5.6-2.9,5.5
		c0,0,3-5.5,3-5.5c0,0-3.3,5.3-3.3,5.3c0,0,3.4-5.2,3.4-5.3c0,0-3.7,5.1-3.7,5.1c0,0,3.8-5,3.8-5c0,0-4.1,4.8-4.1,4.8
		c0,0,4.2-4.7,4.2-4.7c0,0-4.4,4.5-4.5,4.4c0,0,4.6-4.3,4.5-4.4c0,0-4.8,4.1-4.8,4.1s4.9-4,4.9-4c0,0-5.1,3.8-5.1,3.7
		c0,0,5.2-3.6,5.2-3.6c0,0-5.4,3.4-5.4,3.3c0,0,5.4-3.2,5.4-3.2c0,0-5.6,3-5.6,2.9c0,0,5.7-2.8,5.7-2.8c0,0-5.8,2.5-5.8,2.5
		c0,0,5.9-2.4,5.9-2.4c0,0-6,2.1-6,2.1c0,0,6.1-1.9,6.1-2c0,0-6.2,1.6-6.2,1.6c0,0,6.2-1.5,6.2-1.5c0,0-6.3,1.2-6.3,1.1
		c0,0,6.3-1,6.3-1c0,0-6.3,0.7-6.3,0.7c0,0,6.4-0.5,6.4-0.5c0,0-6.4,0.2-6.4,0.2c0,0,6.4-0.1,6.4-0.1c0,0-6.4-0.3-6.4-0.3
		c0,0,6.4,0.4,6.4,0.4c0,0-6.3-0.7-6.3-0.7c0,0,6.3,0.9,6.3,0.9c0,0-6.3-1.2-6.3-1.2c0,0,6.2,1.3,6.2,1.3c0,0-6.1-1.7-6.1-1.7
		c0,0,6.1,1.8,6.1,1.8c0,0-6-2.1-6-2.1c0,0,5.9,2.3,5.9,2.2c0,0-5.8-2.6-5.8-2.6c0,0,5.7,2.7,5.8,2.7c0,0-5.6-3-5.6-3
		c0,0,5.5,3.1,5.5,3.1c0,0-5.3-3.4-5.3-3.4c0,0,5.3,3.5,5.3,3.5c0,0-5.1-3.8-5-3.8c0,0,5,3.9,5,3.9c0,0-4.7-4.1-4.7-4.2
		c0,0,4.6,4.3,4.7,4.2c0,0-4.4-4.5-4.4-4.5c0,0,4.3,4.6,4.3,4.6c0,0-4-4.8-4-4.8c0,0,3.9,4.9,3.9,4.9c0,0-3.7-5.1-3.6-5.1
		c0,0,3.5,5.2,3.5,5.2c0,0-3.2-5.3-3.2-5.4c0,0,3.1,5.4,3.1,5.4c0,0-2.8-5.6-2.8-5.6c0,0,2.7,5.6,2.7,5.6c0,0-2.4-5.8-2.4-5.8
		c0,0,2.2,5.8,2.2,5.8c0,0-1.9-5.9-1.9-5.9c0,0,1.8,6,1.8,6c0,0-1.4-6.1-1.4-6.1c0,0,1.3,6.1,1.3,6.1c0,0-0.9-6.1-0.9-6.1
		c0,0,0.8,6.2,0.8,6.2c0,0-0.5-6.2-0.4-6.2c0,0,0.3,6.2,0.3,6.2c0,0,0-6.2,0-6.2c0,0-0.2,6.2-0.2,6.2c0,0,0.5-6.2,0.5-6.2
		c0,0-0.7,6.2-0.6,6.2c0,0,1-6.1,1-6.1c0,0-1.1,6.1-1.1,6.1c0,0,1.5-6,1.5-6c0,0-1.6,6-1.6,6c0,0,1.9-5.9,2-5.9c0,0-2.1,5.9-2.1,5.9
		c0,0,2.4-5.8,2.4-5.7c0,0-2.6,5.7-2.5,5.7c0,0,2.9-5.6,2.9-5.5c0,0-3,5.5-3,5.5c0,0,3.3-5.3,3.3-5.3c0,0-3.4,5.2-3.4,5.3
		c0,0,3.7-5.1,3.7-5.1c0,0-3.8,5-3.8,5c0,0,4.1-4.8,4.1-4.8c0,0-4.2,4.7-4.2,4.7s4.4-4.5,4.5-4.4c0,0-4.6,4.3-4.5,4.4
		c0,0,4.8-4.1,4.8-4.1c0,0-4.9,4-4.9,4c0,0,5.1-3.8,5.1-3.7c0,0-5.2,3.6-5.2,3.6c0,0,5.4-3.4,5.4-3.3c0,0-5.4,3.2-5.4,3.2
		c0,0,5.6-3,5.6-2.9c0,0-5.7,2.8-5.7,2.8c0,0,5.8-2.5,5.8-2.5c0,0-5.9,2.4-5.9,2.4c0,0,6-2.1,6-2.1c0,0-6.1,1.9-6.1,2
		c0,0,6.2-1.6,6.2-1.6c0,0-6.2,1.5-6.2,1.5c0,0,6.3-1.2,6.3-1.1c0,0-6.3,1-6.3,1c0,0,6.3-0.7,6.3-0.7c0,0-6.4,0.5-6.4,0.5
		c0,0,6.4-0.2,6.4-0.2c0,0-6.4,0.1-6.4,0.1C430.6,472.3,437,472.5,437,472.5"/>
	<path fill="#4675BA" d="M435.8,472.3c0,1.9-1.6,3.5-3.6,3.5c-2,0-3.6-1.6-3.6-3.5c0-1.9,1.6-3.5,3.6-3.5
		C434.2,468.7,435.8,470.3,435.8,472.3"/>
	<path fill="#4675BA" d="M437,459.2c0,0-6.4-0.4-6.4-0.4c0,0,6.3,0.7,6.3,0.7c0,0-6.3-0.9-6.3-0.9c0,0,6.3,1.2,6.3,1.2
		c0,0-6.2-1.3-6.2-1.3c0,0,6.2,1.7,6.1,1.7c0,0-6.1-1.8-6.1-1.8c0,0,6,2.1,6,2.1c0,0-5.9-2.3-5.9-2.2c0,0,5.8,2.6,5.8,2.6
		c0,0-5.7-2.7-5.8-2.7c0,0,5.6,3,5.6,3c0,0-5.5-3.1-5.5-3.1c0,0,5.3,3.4,5.3,3.4c0,0-5.3-3.5-5.3-3.5c0,0,5.1,3.8,5,3.8
		c0,0-5-3.9-5-3.9c0,0,4.7,4.2,4.7,4.2c0,0-4.6-4.3-4.7-4.2c0,0,4.4,4.5,4.4,4.5c0,0-4.3-4.6-4.3-4.6s4,4.8,4,4.8
		c0,0-3.9-4.9-3.9-4.9c0,0,3.7,5.1,3.6,5.1c0,0-3.5-5.2-3.5-5.2c0,0,3.2,5.3,3.2,5.4c0,0-3.1-5.4-3.1-5.4c0,0,2.8,5.6,2.8,5.6
		c0,0-2.7-5.6-2.7-5.6c0,0,2.4,5.8,2.4,5.8c0,0-2.2-5.8-2.2-5.8c0,0,1.9,5.9,1.9,5.9c0,0-1.8-6-1.8-6c0,0,1.4,6.1,1.4,6.1
		c0,0-1.3-6.1-1.3-6.1c0,0,0.9,6.1,0.9,6.1c0,0-0.8-6.2-0.8-6.2c0,0,0.5,6.2,0.4,6.2c0,0-0.3-6.2-0.3-6.2c0,0,0,6.2,0,6.2
		c0,0,0.2-6.2,0.2-6.2c0,0-0.5,6.2-0.5,6.2c0,0,0.7-6.2,0.6-6.2c0,0-1,6.1-1,6.1c0,0,1.1-6.1,1.1-6.1c0,0-1.5,6-1.5,6
		c0,0,1.6-6,1.6-6c0,0-1.9,5.9-2,5.9c0,0,2.1-5.9,2.1-5.9c0,0-2.4,5.8-2.4,5.7c0,0,2.6-5.7,2.5-5.7c0,0-2.9,5.6-2.9,5.5
		c0,0,3-5.5,3-5.5c0,0-3.3,5.3-3.3,5.3c0,0,3.4-5.2,3.4-5.3c0,0-3.7,5.1-3.7,5.1c0,0,3.8-5,3.8-5c0,0-4.1,4.8-4.1,4.8
		c0,0,4.2-4.7,4.2-4.7c0,0-4.4,4.5-4.5,4.4c0,0,4.6-4.3,4.5-4.4c0,0-4.8,4.1-4.8,4.1c0,0,4.9-4,4.9-4c0,0-5.1,3.8-5.1,3.7
		c0,0,5.2-3.6,5.2-3.6c0,0-5.4,3.4-5.4,3.3c0,0,5.4-3.2,5.4-3.2c0,0-5.6,3-5.6,2.9c0,0,5.7-2.8,5.7-2.8c0,0-5.8,2.5-5.8,2.5
		c0,0,5.9-2.4,5.9-2.4c0,0-6,2.1-6,2.1c0,0,6.1-1.9,6.1-2c0,0-6.2,1.6-6.2,1.6c0,0,6.2-1.5,6.2-1.5c0,0-6.3,1.2-6.3,1.1
		c0,0,6.3-1,6.3-1c0,0-6.3,0.7-6.3,0.7c0,0,6.4-0.5,6.4-0.5c0,0-6.4,0.2-6.4,0.2c0,0,6.4-0.1,6.4-0.1c0,0-6.4-0.3-6.4-0.3
		c0,0,6.4,0.4,6.4,0.4c0,0-6.3-0.7-6.3-0.7c0,0,6.3,0.9,6.3,0.9c0,0-6.3-1.2-6.3-1.2c0,0,6.2,1.3,6.2,1.3c0,0-6.1-1.7-6.1-1.7
		c0,0,6.1,1.8,6.1,1.8c0,0-6-2.1-6-2.1c0,0,5.9,2.3,5.9,2.2c0,0-5.8-2.6-5.8-2.6c0,0,5.7,2.7,5.8,2.7c0,0-5.6-3-5.6-3
		c0,0,5.5,3.1,5.5,3.1c0,0-5.3-3.4-5.3-3.4c0,0,5.3,3.5,5.3,3.5c0,0-5.1-3.8-5-3.8c0,0,5,3.9,5,3.9c0,0-4.7-4.1-4.7-4.2
		c0,0,4.6,4.3,4.7,4.2c0,0-4.4-4.5-4.4-4.5c0,0,4.3,4.6,4.3,4.6c0,0-4-4.8-4-4.8c0,0,3.9,4.9,3.9,4.9c0,0-3.7-5.1-3.6-5.1
		c0,0,3.5,5.2,3.5,5.2c0,0-3.2-5.3-3.2-5.4c0,0,3.1,5.4,3.1,5.4c0,0-2.8-5.6-2.8-5.6c0,0,2.7,5.6,2.7,5.6c0,0-2.4-5.8-2.4-5.8
		c0,0,2.2,5.8,2.2,5.8c0,0-1.9-5.9-1.9-5.9c0,0,1.8,6,1.8,6c0,0-1.4-6.1-1.4-6.1c0,0,1.3,6.1,1.3,6.1c0,0-0.9-6.1-0.9-6.1
		c0,0,0.8,6.2,0.8,6.2c0,0-0.5-6.2-0.4-6.2c0,0,0.3,6.2,0.3,6.2c0,0,0-6.2,0-6.2c0,0-0.2,6.2-0.2,6.2c0,0,0.5-6.2,0.5-6.2
		c0,0-0.7,6.2-0.6,6.2c0,0,1-6.1,1-6.1c0,0-1.1,6.1-1.1,6.1c0,0,1.5-6,1.5-6c0,0-1.6,6-1.6,6c0,0,1.9-5.9,2-5.9c0,0-2.1,5.9-2.1,5.9
		c0,0,2.4-5.8,2.4-5.7c0,0-2.6,5.7-2.5,5.7c0,0,2.9-5.6,2.9-5.5c0,0-3,5.5-3,5.5c0,0,3.3-5.3,3.3-5.3c0,0-3.4,5.2-3.4,5.3
		c0,0,3.7-5.1,3.7-5.1c0,0-3.8,5-3.8,5c0,0,4.1-4.8,4.1-4.8c0,0-4.2,4.7-4.2,4.7c0,0,4.4-4.5,4.5-4.4c0,0-4.6,4.3-4.5,4.4
		c0,0,4.8-4.1,4.8-4.1c0,0-4.9,4-4.9,4c0,0,5.1-3.8,5.1-3.7c0,0-5.2,3.6-5.2,3.6c0,0,5.4-3.4,5.4-3.3c0,0-5.4,3.2-5.4,3.2
		c0,0,5.6-3,5.6-2.9c0,0-5.7,2.8-5.7,2.8c0,0,5.8-2.5,5.8-2.5c0,0-5.9,2.4-5.9,2.4c0,0,6-2.1,6-2.1c0,0-6.1,1.9-6.1,2
		c0,0,6.2-1.6,6.2-1.6c0,0-6.2,1.5-6.2,1.5c0,0,6.3-1.2,6.3-1.1c0,0-6.3,1-6.3,1c0,0,6.3-0.7,6.3-0.7c0,0-6.4,0.5-6.4,0.5
		c0,0,6.4-0.2,6.4-0.2c0,0-6.4,0.1-6.4,0.1C430.6,458.9,437,459.2,437,459.2"/>
	<path fill="#4675BA" d="M435.8,459c0,1.9-1.6,3.5-3.6,3.5c-2,0-3.6-1.6-3.6-3.5c0-1.9,1.6-3.5,3.6-3.5
		C434.2,455.4,435.8,457,435.8,459"/>
	<path fill="#4675BA" d="M437,729.8c0,0-6.4-0.4-6.4-0.4c0,0,6.3,0.7,6.3,0.7s-6.3-0.9-6.3-0.9c0,0,6.3,1.2,6.3,1.2
		c0,0-6.2-1.3-6.2-1.3c0,0,6.2,1.7,6.1,1.7c0,0-6.1-1.8-6.1-1.8c0,0,6,2.1,6,2.1c0,0-5.9-2.3-5.9-2.2c0,0,5.8,2.6,5.8,2.6
		c0,0-5.7-2.7-5.8-2.7c0,0,5.6,3,5.6,3c0,0-5.5-3.1-5.5-3.1c0,0,5.3,3.4,5.3,3.4c0,0-5.3-3.5-5.3-3.5c0,0,5.1,3.8,5,3.8
		c0,0-5-3.9-5-3.9c0,0,4.7,4.1,4.7,4.2c0,0-4.6-4.3-4.7-4.2c0,0,4.4,4.5,4.4,4.5c0,0-4.3-4.6-4.3-4.6s4,4.8,4,4.8
		c0,0-3.9-4.9-3.9-4.9c0,0,3.7,5.1,3.6,5.1c0,0-3.5-5.2-3.5-5.2c0,0,3.2,5.3,3.2,5.4c0,0-3.1-5.4-3.1-5.4c0,0,2.8,5.6,2.8,5.6
		c0,0-2.7-5.6-2.7-5.6c0,0,2.4,5.8,2.4,5.8c0,0-2.2-5.8-2.2-5.8c0,0,1.9,5.9,1.9,5.9c0,0-1.8-6-1.8-6c0,0,1.4,6.1,1.4,6.1
		c0,0-1.3-6.1-1.3-6.1c0,0,0.9,6.1,0.9,6.1c0,0-0.8-6.2-0.8-6.2c0,0,0.5,6.2,0.4,6.2c0,0-0.3-6.2-0.3-6.2c0,0,0,6.2,0,6.2
		c0,0,0.2-6.2,0.2-6.2c0,0-0.5,6.2-0.5,6.2c0,0,0.7-6.2,0.6-6.2c0,0-1,6.1-1,6.1c0,0,1.1-6.1,1.1-6.1c0,0-1.5,6-1.5,6
		c0,0,1.6-6,1.6-6c0,0-1.9,5.9-2,5.9c0,0,2.1-5.9,2.1-5.9c0,0-2.4,5.8-2.4,5.7c0,0,2.6-5.7,2.5-5.7c0,0-2.9,5.6-2.9,5.5
		c0,0,3-5.5,3-5.5c0,0-3.3,5.3-3.3,5.3c0,0,3.4-5.2,3.4-5.3c0,0-3.7,5.1-3.7,5.1c0,0,3.8-5,3.8-5c0,0-4.1,4.8-4.1,4.8
		c0,0,4.2-4.7,4.2-4.7s-4.4,4.5-4.5,4.4c0,0,4.6-4.3,4.5-4.4c0,0-4.8,4.1-4.8,4.1c0,0,4.9-4,4.9-4c0,0-5.1,3.8-5.1,3.7
		c0,0,5.2-3.6,5.2-3.6c0,0-5.4,3.4-5.4,3.3c0,0,5.4-3.2,5.4-3.2c0,0-5.6,3-5.6,2.9c0,0,5.7-2.8,5.7-2.8c0,0-5.8,2.5-5.8,2.5
		c0,0,5.9-2.4,5.9-2.4c0,0-6,2.1-6,2.1c0,0,6.1-1.9,6.1-2c0,0-6.2,1.6-6.2,1.6c0,0,6.2-1.5,6.2-1.5c0,0-6.3,1.2-6.3,1.1
		c0,0,6.3-1,6.3-1c0,0-6.3,0.7-6.3,0.7c0,0,6.4-0.5,6.4-0.5c0,0-6.4,0.2-6.4,0.2s6.4-0.1,6.4-0.1c0,0-6.4-0.3-6.4-0.3
		c0,0,6.4,0.4,6.4,0.4s-6.3-0.7-6.3-0.7c0,0,6.3,0.9,6.3,0.9c0,0-6.3-1.2-6.3-1.2c0,0,6.2,1.3,6.2,1.3c0,0-6.1-1.7-6.1-1.7
		c0,0,6.1,1.8,6.1,1.8c0,0-6-2.1-6-2.1c0,0,5.9,2.3,5.9,2.2c0,0-5.8-2.6-5.8-2.6c0,0,5.7,2.7,5.8,2.7c0,0-5.6-3-5.6-3
		c0,0,5.5,3.1,5.5,3.1c0,0-5.3-3.4-5.3-3.4c0,0,5.3,3.5,5.3,3.5c0,0-5.1-3.8-5-3.8c0,0,5,3.9,5,3.9c0,0-4.7-4.1-4.7-4.2
		c0,0,4.6,4.3,4.7,4.2c0,0-4.4-4.5-4.4-4.5c0,0,4.3,4.6,4.3,4.6c0,0-4-4.8-4-4.8c0,0,3.9,4.9,3.9,4.9c0,0-3.7-5.1-3.6-5.1
		c0,0,3.5,5.2,3.5,5.2c0,0-3.2-5.3-3.2-5.4c0,0,3.1,5.4,3.1,5.4c0,0-2.8-5.6-2.8-5.6c0,0,2.7,5.6,2.7,5.6c0,0-2.4-5.8-2.4-5.8
		c0,0,2.2,5.8,2.2,5.8c0,0-1.9-5.9-1.9-5.9c0,0,1.8,6,1.8,6c0,0-1.4-6.1-1.4-6.1c0,0,1.3,6.1,1.3,6.1c0,0-0.9-6.1-0.9-6.1
		c0,0,0.8,6.2,0.8,6.2c0,0-0.5-6.2-0.4-6.2c0,0,0.3,6.2,0.3,6.2c0,0,0-6.2,0-6.2c0,0-0.2,6.2-0.2,6.2c0,0,0.5-6.2,0.5-6.2
		c0,0-0.7,6.2-0.6,6.2c0,0,1-6.1,1-6.1c0,0-1.1,6.1-1.1,6.1c0,0,1.5-6,1.5-6c0,0-1.6,6-1.6,6c0,0,1.9-5.9,2-5.9c0,0-2.1,5.9-2.1,5.9
		c0,0,2.4-5.8,2.4-5.7c0,0-2.6,5.7-2.5,5.7c0,0,2.9-5.6,2.9-5.5c0,0-3,5.5-3,5.5c0,0,3.3-5.3,3.3-5.3c0,0-3.4,5.2-3.4,5.3
		c0,0,3.7-5.1,3.7-5.1c0,0-3.8,5-3.8,5c0,0,4.1-4.8,4.1-4.8c0,0-4.2,4.7-4.2,4.7c0,0,4.4-4.5,4.5-4.4c0,0-4.6,4.3-4.5,4.4
		c0,0,4.8-4.1,4.8-4.1s-4.9,4-4.9,4c0,0,5.1-3.8,5.1-3.7c0,0-5.2,3.6-5.2,3.6c0,0,5.4-3.4,5.4-3.3c0,0-5.4,3.2-5.4,3.2
		c0,0,5.6-3,5.6-2.9c0,0-5.7,2.8-5.7,2.8c0,0,5.8-2.5,5.8-2.5c0,0-5.9,2.4-5.9,2.4c0,0,6-2.1,6-2.1c0,0-6.1,1.9-6.1,2
		c0,0,6.2-1.6,6.2-1.6c0,0-6.2,1.5-6.2,1.5c0,0,6.3-1.2,6.3-1.1c0,0-6.3,1-6.3,1c0,0,6.3-0.7,6.3-0.7c0,0-6.4,0.5-6.4,0.5
		c0,0,6.4-0.2,6.4-0.2c0,0-6.4,0.1-6.4,0.1C430.6,729.5,437,729.8,437,729.8"/>
	<path fill="#4675BA" d="M435.8,729.6c0,1.9-1.6,3.5-3.6,3.5c-2,0-3.6-1.6-3.6-3.5s1.6-3.5,3.6-3.5
		C434.2,726,435.8,727.6,435.8,729.6"/>
	<path fill="#F0533A" d="M437,716.5c0,0-6.4-0.4-6.4-0.4c0,0,6.3,0.7,6.3,0.7c0,0-6.3-0.9-6.3-0.9c0,0,6.3,1.2,6.3,1.2
		c0,0-6.2-1.3-6.2-1.3c0,0,6.2,1.7,6.1,1.7c0,0-6.1-1.8-6.1-1.8c0,0,6,2.1,6,2.1c0,0-5.9-2.3-5.9-2.2c0,0,5.8,2.6,5.8,2.6
		c0,0-5.7-2.7-5.8-2.7c0,0,5.6,3,5.6,3c0,0-5.5-3.1-5.5-3.1c0,0,5.3,3.4,5.3,3.4c0,0-5.3-3.5-5.3-3.5c0,0,5.1,3.8,5,3.8
		c0,0-5-3.9-5-3.9c0,0,4.7,4.2,4.7,4.2c0,0-4.6-4.3-4.7-4.2c0,0,4.4,4.5,4.4,4.5c0,0-4.3-4.6-4.3-4.6c0,0,4,4.8,4,4.8
		c0,0-3.9-4.9-3.9-4.9c0,0,3.7,5.1,3.6,5.1c0,0-3.5-5.2-3.5-5.2c0,0,3.2,5.3,3.2,5.4c0,0-3.1-5.4-3.1-5.4c0,0,2.8,5.6,2.8,5.6
		c0,0-2.7-5.6-2.7-5.6c0,0,2.4,5.8,2.4,5.8c0,0-2.2-5.8-2.2-5.8c0,0,1.9,5.9,1.9,5.9c0,0-1.8-6-1.8-6c0,0,1.4,6.1,1.4,6.1
		c0,0-1.3-6.1-1.3-6.1c0,0,0.9,6.1,0.9,6.1c0,0-0.8-6.2-0.8-6.2c0,0,0.5,6.2,0.4,6.2c0,0-0.3-6.2-0.3-6.2c0,0,0,6.2,0,6.2
		c0,0,0.2-6.2,0.2-6.2c0,0-0.5,6.2-0.5,6.2c0,0,0.7-6.2,0.6-6.2c0,0-1,6.1-1,6.1c0,0,1.1-6.1,1.1-6.1c0,0-1.5,6-1.5,6
		c0,0,1.6-6,1.6-6c0,0-1.9,5.9-2,5.9c0,0,2.1-5.9,2.1-5.9c0,0-2.4,5.8-2.4,5.7c0,0,2.6-5.7,2.5-5.7c0,0-2.9,5.6-2.9,5.5
		c0,0,3-5.5,3-5.5c0,0-3.3,5.3-3.3,5.3c0,0,3.4-5.2,3.4-5.3c0,0-3.7,5.1-3.7,5.1c0,0,3.8-5,3.8-5c0,0-4.1,4.8-4.1,4.8
		c0,0,4.2-4.7,4.2-4.7s-4.4,4.5-4.5,4.4c0,0,4.6-4.3,4.5-4.4c0,0-4.8,4.1-4.8,4.1s4.9-4,4.9-4c0,0-5.1,3.8-5.1,3.7
		c0,0,5.2-3.6,5.2-3.6c0,0-5.4,3.4-5.4,3.3c0,0,5.4-3.2,5.4-3.2c0,0-5.6,3-5.6,2.9c0,0,5.7-2.8,5.7-2.8c0,0-5.8,2.5-5.8,2.5
		c0,0,5.9-2.4,5.9-2.4c0,0-6,2.1-6,2.1c0,0,6.1-1.9,6.1-2c0,0-6.2,1.6-6.2,1.6c0,0,6.2-1.5,6.2-1.5c0,0-6.3,1.2-6.3,1.1
		c0,0,6.3-1,6.3-1c0,0-6.3,0.7-6.3,0.7c0,0,6.4-0.5,6.4-0.5c0,0-6.4,0.2-6.4,0.2c0,0,6.4-0.1,6.4-0.1c0,0-6.4-0.3-6.4-0.3
		c0,0,6.4,0.4,6.4,0.4c0,0-6.3-0.7-6.3-0.7c0,0,6.3,0.9,6.3,0.9c0,0-6.3-1.2-6.3-1.2c0,0,6.2,1.3,6.2,1.3c0,0-6.1-1.7-6.1-1.7
		c0,0,6.1,1.8,6.1,1.8c0,0-6-2.1-6-2.1c0,0,5.9,2.3,5.9,2.2c0,0-5.8-2.6-5.8-2.6c0,0,5.7,2.7,5.8,2.7c0,0-5.6-3-5.6-3
		c0,0,5.5,3.1,5.5,3.1c0,0-5.3-3.4-5.3-3.4c0,0,5.3,3.5,5.3,3.5c0,0-5.1-3.8-5-3.8c0,0,5,3.9,5,3.9c0,0-4.7-4.1-4.7-4.2
		c0,0,4.6,4.3,4.7,4.2c0,0-4.4-4.5-4.4-4.5c0,0,4.3,4.6,4.3,4.6c0,0-4-4.8-4-4.8c0,0,3.9,4.9,3.9,4.9c0,0-3.7-5.1-3.6-5.1
		c0,0,3.5,5.2,3.5,5.2c0,0-3.2-5.3-3.2-5.4c0,0,3.1,5.4,3.1,5.4c0,0-2.8-5.6-2.8-5.6c0,0,2.7,5.6,2.7,5.6c0,0-2.4-5.8-2.4-5.8
		c0,0,2.2,5.8,2.2,5.8c0,0-1.9-5.9-1.9-5.9c0,0,1.8,6,1.8,6c0,0-1.4-6.1-1.4-6.1c0,0,1.3,6.1,1.3,6.1c0,0-0.9-6.1-0.9-6.1
		c0,0,0.8,6.2,0.8,6.2c0,0-0.5-6.2-0.4-6.2c0,0,0.3,6.2,0.3,6.2c0,0,0-6.2,0-6.2c0,0-0.2,6.2-0.2,6.2c0,0,0.5-6.2,0.5-6.2
		c0,0-0.7,6.2-0.6,6.2c0,0,1-6.1,1-6.1c0,0-1.1,6.1-1.1,6.1c0,0,1.5-6,1.5-6c0,0-1.6,6-1.6,6c0,0,1.9-5.9,2-5.9c0,0-2.1,5.9-2.1,5.9
		c0,0,2.4-5.8,2.4-5.7c0,0-2.6,5.7-2.5,5.7c0,0,2.9-5.6,2.9-5.5c0,0-3,5.5-3,5.5c0,0,3.3-5.3,3.3-5.3c0,0-3.4,5.2-3.4,5.3
		c0,0,3.7-5.1,3.7-5.1c0,0-3.8,5-3.8,5c0,0,4.1-4.8,4.1-4.8c0,0-4.2,4.7-4.2,4.7s4.4-4.5,4.5-4.4c0,0-4.6,4.3-4.5,4.4
		c0,0,4.8-4.1,4.8-4.1c0,0-4.9,4-4.9,4c0,0,5.1-3.8,5.1-3.7c0,0-5.2,3.6-5.2,3.6c0,0,5.4-3.4,5.4-3.3c0,0-5.4,3.2-5.4,3.2
		c0,0,5.6-3,5.6-2.9c0,0-5.7,2.8-5.7,2.8c0,0,5.8-2.5,5.8-2.5c0,0-5.9,2.4-5.9,2.4c0,0,6-2.1,6-2.1c0,0-6.1,1.9-6.1,2
		c0,0,6.2-1.6,6.2-1.6c0,0-6.2,1.5-6.2,1.5c0,0,6.3-1.2,6.3-1.1c0,0-6.3,1-6.3,1c0,0,6.3-0.7,6.3-0.7c0,0-6.4,0.5-6.4,0.5
		c0,0,6.4-0.2,6.4-0.2c0,0-6.4,0.1-6.4,0.1C430.6,716.2,437,716.5,437,716.5"/>
	<path fill="#F0533A" d="M435.8,716.2c0,1.9-1.6,3.5-3.6,3.5c-2,0-3.6-1.6-3.6-3.5c0-1.9,1.6-3.5,3.6-3.5
		C434.2,712.7,435.8,714.3,435.8,716.2"/>
	<line fill="none" x1="31.1" y1="112.7" x2="31.1" y2="177.5"/>
	<line fill="none" x1="431.8" y1="517.4" x2="431.8" y2="582.1"/>
</g>
</svg>
